M48
; DRILL file {KiCad 9.0.8} date 2026-06-18T14:37:18+0200
; FORMAT={-:-/ absolute / metric / decimal}
; #@! TF.CreationDate,2026-06-18T14:37:18+02:00
; #@! TF.GenerationSoftware,Kicad,Pcbnew,9.0.8
; #@! TF.FileFunction,MixedPlating,1,2
FMAT,2
METRIC
; #@! TA.AperFunction,Plated,PTH,ViaDrill
T1C0.300
; #@! TA.AperFunction,Plated,PTH,ComponentDrill
T2C0.600
; #@! TA.AperFunction,Plated,PTH,ComponentDrill
T3C0.800
; #@! TA.AperFunction,Plated,PTH,ComponentDrill
T4C1.100
; #@! TA.AperFunction,Plated,PTH,ComponentDrill
T5C1.200
; #@! TA.AperFunction,Plated,PTH,ComponentDrill
T6C2.200
; #@! TA.AperFunction,NonPlated,NPTH,ComponentDrill
T7C0.650
; #@! TA.AperFunction,NonPlated,NPTH,ComponentDrill
T8C2.200
%
G90
G05
T1
X72.04Y-53.85
X72.05Y-55.26
X75.8Y-49.2
X76.95Y-53.1
X77.6Y-58.0
X78.75Y-50.9
X80.6Y-57.2
X82.1Y-49.6
X83.8Y-64.6
X84.6Y-53.8
X85.15Y-47.84
X88.2Y-45.4
X88.7Y-60.25
X90.2Y-50.8
X91.5Y-47.1
X92.15Y-66.9
X93.55Y-61.1
X94.3Y-64.7
X95.4Y-60.4
X95.8Y-62.9
X96.0Y-59.8
X99.15Y-50.6
X99.35Y-66.3
X101.45Y-59.8
X101.45Y-64.2
X102.8Y-64.5
X103.45Y-55.3
X105.4Y-49.2
X105.45Y-45.0
X106.5Y-60.7
X106.5Y-65.5
X109.8Y-59.2
X118.95Y-61.65
X118.95Y-71.65
T3
X76.5Y-46.3
X78.5Y-46.3
X80.5Y-46.3
X82.5Y-46.3
X84.5Y-46.3
T4
X95.75Y-71.8
X95.75Y-86.8
T5
X73.15Y-76.1
X75.65Y-76.1
X78.15Y-76.1
X112.5Y-52.0
X117.5Y-52.0
T7
X72.815Y-51.385
X72.815Y-57.165
T8
X70.0Y-45.0
X70.0Y-89.0
X119.0Y-45.0
X119.0Y-89.0
T2
G00X69.535Y-49.955
M15
G01X68.735Y-49.955
M16
G05
G00X69.535Y-58.595
M15
G01X68.735Y-58.595
M16
G05
G00X73.865Y-49.955
M15
G01X72.765Y-49.955
M16
G05
G00X73.865Y-58.595
M15
G01X72.765Y-58.595
M16
G05
T6
G00X69.95Y-68.2
M15
G01X69.95Y-69.0
M16
G05
G00X81.4Y-68.2
M15
G01X81.4Y-69.0
M16
G05
M30
