%TF.GenerationSoftware,KiCad,Pcbnew,9.0.8*%
%TF.CreationDate,2026-06-18T14:37:21+02:00*%
%TF.ProjectId,eggtimer,65676774-696d-4657-922e-6b696361645f,rev?*%
%TF.SameCoordinates,Original*%
%TF.FileFunction,Copper,L1,Top*%
%TF.FilePolarity,Positive*%
%FSLAX46Y46*%
G04 Gerber Fmt 4.6, Leading zero omitted, Abs format (unit mm)*
G04 Created by KiCad (PCBNEW 9.0.8) date 2026-06-18 14:37:21*
%MOMM*%
%LPD*%
G01*
G04 APERTURE LIST*
G04 Aperture macros list*
%AMRoundRect*
0 Rectangle with rounded corners*
0 $1 Rounding radius*
0 $2 $3 $4 $5 $6 $7 $8 $9 X,Y pos of 4 corners*
0 Add a 4 corners polygon primitive as box body*
4,1,4,$2,$3,$4,$5,$6,$7,$8,$9,$2,$3,0*
0 Add four circle primitives for the rounded corners*
1,1,$1+$1,$2,$3*
1,1,$1+$1,$4,$5*
1,1,$1+$1,$6,$7*
1,1,$1+$1,$8,$9*
0 Add four rect primitives between the rounded corners*
20,1,$1+$1,$2,$3,$4,$5,0*
20,1,$1+$1,$4,$5,$6,$7,0*
20,1,$1+$1,$6,$7,$8,$9,0*
20,1,$1+$1,$8,$9,$2,$3,0*%
%AMFreePoly0*
4,1,9,3.862500,-0.866500,0.737500,-0.866500,0.737500,-0.450000,-0.737500,-0.450000,-0.737500,0.450000,0.737500,0.450000,0.737500,0.866500,3.862500,0.866500,3.862500,-0.866500,3.862500,-0.866500,$1*%
G04 Aperture macros list end*
%TA.AperFunction,SMDPad,CuDef*%
%ADD10RoundRect,0.225000X-0.425000X-0.225000X0.425000X-0.225000X0.425000X0.225000X-0.425000X0.225000X0*%
%TD*%
%TA.AperFunction,SMDPad,CuDef*%
%ADD11FreePoly0,0.000000*%
%TD*%
%TA.AperFunction,SMDPad,CuDef*%
%ADD12RoundRect,0.243750X0.456250X-0.243750X0.456250X0.243750X-0.456250X0.243750X-0.456250X-0.243750X0*%
%TD*%
%TA.AperFunction,SMDPad,CuDef*%
%ADD13RoundRect,0.135000X0.135000X0.185000X-0.135000X0.185000X-0.135000X-0.185000X0.135000X-0.185000X0*%
%TD*%
%TA.AperFunction,SMDPad,CuDef*%
%ADD14RoundRect,0.200000X-0.275000X0.200000X-0.275000X-0.200000X0.275000X-0.200000X0.275000X0.200000X0*%
%TD*%
%TA.AperFunction,SMDPad,CuDef*%
%ADD15RoundRect,0.140000X0.170000X-0.140000X0.170000X0.140000X-0.170000X0.140000X-0.170000X-0.140000X0*%
%TD*%
%TA.AperFunction,SMDPad,CuDef*%
%ADD16RoundRect,0.225000X0.250000X-0.225000X0.250000X0.225000X-0.250000X0.225000X-0.250000X-0.225000X0*%
%TD*%
%TA.AperFunction,ComponentPad*%
%ADD17O,3.000000X4.000000*%
%TD*%
%TA.AperFunction,ComponentPad*%
%ADD18C,1.800000*%
%TD*%
%TA.AperFunction,SMDPad,CuDef*%
%ADD19RoundRect,0.243750X0.243750X0.456250X-0.243750X0.456250X-0.243750X-0.456250X0.243750X-0.456250X0*%
%TD*%
%TA.AperFunction,SMDPad,CuDef*%
%ADD20RoundRect,0.140000X-0.170000X0.140000X-0.170000X-0.140000X0.170000X-0.140000X0.170000X0.140000X0*%
%TD*%
%TA.AperFunction,SMDPad,CuDef*%
%ADD21RoundRect,0.250000X0.475000X-0.250000X0.475000X0.250000X-0.475000X0.250000X-0.475000X-0.250000X0*%
%TD*%
%TA.AperFunction,SMDPad,CuDef*%
%ADD22RoundRect,0.250000X0.450000X-0.262500X0.450000X0.262500X-0.450000X0.262500X-0.450000X-0.262500X0*%
%TD*%
%TA.AperFunction,SMDPad,CuDef*%
%ADD23RoundRect,0.100000X-0.637500X-0.100000X0.637500X-0.100000X0.637500X0.100000X-0.637500X0.100000X0*%
%TD*%
%TA.AperFunction,ComponentPad*%
%ADD24C,2.000000*%
%TD*%
%TA.AperFunction,SMDPad,CuDef*%
%ADD25RoundRect,0.062500X-0.337500X-0.062500X0.337500X-0.062500X0.337500X0.062500X-0.337500X0.062500X0*%
%TD*%
%TA.AperFunction,HeatsinkPad*%
%ADD26R,1.700000X1.400000*%
%TD*%
%TA.AperFunction,SMDPad,CuDef*%
%ADD27RoundRect,0.150000X0.350000X-0.850000X0.350000X0.850000X-0.350000X0.850000X-0.350000X-0.850000X0*%
%TD*%
%TA.AperFunction,ComponentPad*%
%ADD28R,1.350000X1.350000*%
%TD*%
%TA.AperFunction,ComponentPad*%
%ADD29C,1.350000*%
%TD*%
%TA.AperFunction,SMDPad,CuDef*%
%ADD30RoundRect,0.225000X0.225000X0.250000X-0.225000X0.250000X-0.225000X-0.250000X0.225000X-0.250000X0*%
%TD*%
%TA.AperFunction,ComponentPad*%
%ADD31C,1.700000*%
%TD*%
%TA.AperFunction,SMDPad,CuDef*%
%ADD32RoundRect,0.140000X-0.140000X-0.170000X0.140000X-0.170000X0.140000X0.170000X-0.140000X0.170000X0*%
%TD*%
%TA.AperFunction,SMDPad,CuDef*%
%ADD33RoundRect,0.250000X-0.450000X0.262500X-0.450000X-0.262500X0.450000X-0.262500X0.450000X0.262500X0*%
%TD*%
%TA.AperFunction,SMDPad,CuDef*%
%ADD34RoundRect,0.150000X-0.512500X-0.150000X0.512500X-0.150000X0.512500X0.150000X-0.512500X0.150000X0*%
%TD*%
%TA.AperFunction,SMDPad,CuDef*%
%ADD35O,1.971000X0.602000*%
%TD*%
%TA.AperFunction,SMDPad,CuDef*%
%ADD36RoundRect,0.150000X-0.425000X0.150000X-0.425000X-0.150000X0.425000X-0.150000X0.425000X0.150000X0*%
%TD*%
%TA.AperFunction,SMDPad,CuDef*%
%ADD37RoundRect,0.075000X-0.500000X0.075000X-0.500000X-0.075000X0.500000X-0.075000X0.500000X0.075000X0*%
%TD*%
%TA.AperFunction,HeatsinkPad*%
%ADD38O,2.100000X1.000000*%
%TD*%
%TA.AperFunction,HeatsinkPad*%
%ADD39O,1.800000X1.000000*%
%TD*%
%TA.AperFunction,SMDPad,CuDef*%
%ADD40RoundRect,0.250000X-0.250000X-0.475000X0.250000X-0.475000X0.250000X0.475000X-0.250000X0.475000X0*%
%TD*%
%TA.AperFunction,SMDPad,CuDef*%
%ADD41RoundRect,0.200000X0.200000X0.275000X-0.200000X0.275000X-0.200000X-0.275000X0.200000X-0.275000X0*%
%TD*%
%TA.AperFunction,ViaPad*%
%ADD42C,0.600000*%
%TD*%
%TA.AperFunction,Conductor*%
%ADD43C,0.500000*%
%TD*%
%TA.AperFunction,Conductor*%
%ADD44C,0.300000*%
%TD*%
%TA.AperFunction,Conductor*%
%ADD45C,0.200000*%
%TD*%
G04 APERTURE END LIST*
D10*
%TO.P,HT7533-1,1,GND*%
%TO.N,GND*%
X105450000Y-51900000D03*
D11*
%TO.P,HT7533-1,2,VIN*%
%TO.N,reg*%
X105537500Y-53400000D03*
D10*
%TO.P,HT7533-1,3,VOUT*%
%TO.N,+3.3V*%
X105450000Y-54900000D03*
%TD*%
D12*
%TO.P,D9,1,K*%
%TO.N,Net-(D9-K)*%
X94300000Y-50100000D03*
%TO.P,D9,2,A*%
%TO.N,+5V*%
X94300000Y-48225000D03*
%TD*%
D13*
%TO.P,R14,1*%
%TO.N,GND*%
X120112500Y-70400000D03*
%TO.P,R14,2*%
%TO.N,Net-(D3-K)*%
X119092500Y-70400000D03*
%TD*%
D14*
%TO.P,R3,1*%
%TO.N,GND*%
X90750000Y-48100000D03*
%TO.P,R3,2*%
%TO.N,Net-(U2-PROG)*%
X90750000Y-49750000D03*
%TD*%
%TO.P,R2,1*%
%TO.N,Net-(J1-CC2)*%
X76300000Y-56275000D03*
%TO.P,R2,2*%
%TO.N,GND*%
X76300000Y-57925000D03*
%TD*%
D15*
%TO.P,C5,1*%
%TO.N,+3.3V*%
X89950000Y-62000000D03*
%TO.P,C5,2*%
%TO.N,GND*%
X89950000Y-61040000D03*
%TD*%
D16*
%TO.P,C6,1*%
%TO.N,GND*%
X89200000Y-48275000D03*
%TO.P,C6,2*%
%TO.N,+5V*%
X89200000Y-46725000D03*
%TD*%
D17*
%TO.P,Rotary_Encoder1,4*%
%TO.N,N/C*%
X69950000Y-68600000D03*
%TO.P,Rotary_Encoder1,5*%
X81400000Y-68600000D03*
D18*
%TO.P,Rotary_Encoder1,A,A*%
%TO.N,Net-(STM32F042F6P6-PA0)*%
X73150000Y-76100000D03*
%TO.P,Rotary_Encoder1,B,B*%
%TO.N,Net-(STM32F042F6P6-PA1)*%
X78150000Y-76100000D03*
%TO.P,Rotary_Encoder1,C,C*%
%TO.N,GND*%
X75650000Y-76100000D03*
%TD*%
D13*
%TO.P,R4,1*%
%TO.N,Net-(R17-Pad2)*%
X91970000Y-51400000D03*
%TO.P,R4,2*%
%TO.N,Net-(U2-STAT)*%
X90950000Y-51400000D03*
%TD*%
D16*
%TO.P,C1,1*%
%TO.N,reg*%
X103400000Y-53250000D03*
%TO.P,C1,2*%
%TO.N,GND*%
X103400000Y-51700000D03*
%TD*%
D13*
%TO.P,R13,1*%
%TO.N,GND*%
X120132500Y-72900000D03*
%TO.P,R13,2*%
%TO.N,Net-(D2-K)*%
X119112500Y-72900000D03*
%TD*%
D19*
%TO.P,D3,1,K*%
%TO.N,Net-(D3-K)*%
X115050000Y-70400000D03*
%TO.P,D3,2,A*%
%TO.N,Net-(74HC595-QC)*%
X113175000Y-70400000D03*
%TD*%
D20*
%TO.P,C4,1*%
%TO.N,+3.3V*%
X98850000Y-62520000D03*
%TO.P,C4,2*%
%TO.N,GND*%
X98850000Y-63480000D03*
%TD*%
D15*
%TO.P,C8,1*%
%TO.N,GND*%
X85200000Y-64080000D03*
%TO.P,C8,2*%
%TO.N,Net-(STM32F042F6P6-PA0)*%
X85200000Y-63120000D03*
%TD*%
D13*
%TO.P,R11,1*%
%TO.N,GND*%
X104180000Y-44300000D03*
%TO.P,R11,2*%
%TO.N,Net-(D10-K)*%
X103160000Y-44300000D03*
%TD*%
%TO.P,R7,1*%
%TO.N,GND*%
X120132500Y-57900000D03*
%TO.P,R7,2*%
%TO.N,Net-(D8-K)*%
X119112500Y-57900000D03*
%TD*%
D21*
%TO.P,C10,1*%
%TO.N,GND*%
X86400000Y-54550000D03*
%TO.P,C10,2*%
%TO.N,+BATT*%
X86400000Y-52650000D03*
%TD*%
D19*
%TO.P,D6,1,K*%
%TO.N,Net-(D6-K)*%
X115050000Y-62900000D03*
%TO.P,D6,2,A*%
%TO.N,Net-(74HC595-QF)*%
X113175000Y-62900000D03*
%TD*%
D22*
%TO.P,R9,1*%
%TO.N,+3.3V*%
X88450000Y-66112500D03*
%TO.P,R9,2*%
%TO.N,Net-(STM32F042F6P6-PA1)*%
X88450000Y-64287500D03*
%TD*%
D23*
%TO.P,STM32F042F6P6,1,PB8*%
%TO.N,unconnected-(STM32F042F6P6-PB8-Pad1)*%
X91550000Y-59650000D03*
%TO.P,STM32F042F6P6,2,PF0*%
%TO.N,unconnected-(STM32F042F6P6-PF0-Pad2)*%
X91550000Y-60300000D03*
%TO.P,STM32F042F6P6,3,PF1*%
%TO.N,unconnected-(STM32F042F6P6-PF1-Pad3)*%
X91550000Y-60950000D03*
%TO.P,STM32F042F6P6,4,NRST*%
%TO.N,nrst*%
X91550000Y-61600000D03*
%TO.P,STM32F042F6P6,5,VDDA*%
%TO.N,+3.3V*%
X91550000Y-62250000D03*
%TO.P,STM32F042F6P6,6,PA0*%
%TO.N,Net-(STM32F042F6P6-PA0)*%
X91550000Y-62900000D03*
%TO.P,STM32F042F6P6,7,PA1*%
%TO.N,Net-(STM32F042F6P6-PA1)*%
X91550000Y-63550000D03*
%TO.P,STM32F042F6P6,8,PA2*%
%TO.N,Net-(Buzzer1-+)*%
X91550000Y-64200000D03*
%TO.P,STM32F042F6P6,9,PA3*%
%TO.N,unconnected-(STM32F042F6P6-PA3-Pad9)*%
X91550000Y-64850000D03*
%TO.P,STM32F042F6P6,10,PA4*%
%TO.N,unconnected-(STM32F042F6P6-PA4-Pad10)*%
X91550000Y-65500000D03*
%TO.P,STM32F042F6P6,11,PA5*%
%TO.N,Net-(74HC595-SER)*%
X97275000Y-65500000D03*
%TO.P,STM32F042F6P6,12,PA6*%
%TO.N,Net-(74HC595-SRCLK)*%
X97275000Y-64850000D03*
%TO.P,STM32F042F6P6,13,PA7*%
%TO.N,Net-(74HC595-RCLK)*%
X97275000Y-64200000D03*
%TO.P,STM32F042F6P6,14,PB1*%
%TO.N,unconnected-(STM32F042F6P6-PB1-Pad14)*%
X97275000Y-63550000D03*
%TO.P,STM32F042F6P6,15,VSSA*%
%TO.N,GND*%
X97275000Y-62900000D03*
%TO.P,STM32F042F6P6,16,VDD*%
%TO.N,+3.3V*%
X97275000Y-62250000D03*
%TO.P,STM32F042F6P6,17,PA9/PA11*%
%TO.N,D-*%
X97275000Y-61600000D03*
%TO.P,STM32F042F6P6,18,PA10/PA12*%
%TO.N,D+*%
X97275000Y-60950000D03*
%TO.P,STM32F042F6P6,19,PA13*%
%TO.N,/SWDIO*%
X97275000Y-60300000D03*
%TO.P,STM32F042F6P6,20,PA14*%
%TO.N,/SWCLK*%
X97275000Y-59650000D03*
%TD*%
D13*
%TO.P,R17,1*%
%TO.N,Net-(D9-K)*%
X94370000Y-51400000D03*
%TO.P,R17,2*%
%TO.N,Net-(R17-Pad2)*%
X93350000Y-51400000D03*
%TD*%
D24*
%TO.P,Battery_Cell1,1,+*%
%TO.N,+BATT*%
X117500000Y-52000000D03*
%TO.P,Battery_Cell1,2,-*%
%TO.N,GND*%
X112500000Y-52000000D03*
%TD*%
D13*
%TO.P,R18,1*%
%TO.N,GND*%
X104170000Y-45700000D03*
%TO.P,R18,2*%
%TO.N,Net-(D10-K)*%
X103150000Y-45700000D03*
%TD*%
D25*
%TO.P,U2,1,V_{DD}*%
%TO.N,+5V*%
X86300000Y-49550000D03*
%TO.P,U2,2,V_{DD}*%
X86300000Y-50050000D03*
%TO.P,U2,3,V_{BAT}*%
%TO.N,+BATT*%
X86300000Y-50550000D03*
%TO.P,U2,4,V_{BAT}*%
X86300000Y-51050000D03*
%TO.P,U2,5,STAT*%
%TO.N,Net-(U2-STAT)*%
X89200000Y-51050000D03*
%TO.P,U2,6,V_{SS}*%
%TO.N,GND*%
X89200000Y-50550000D03*
%TO.P,U2,7,NC*%
%TO.N,unconnected-(U2-NC-Pad7)*%
X89200000Y-50050000D03*
%TO.P,U2,8,PROG*%
%TO.N,Net-(U2-PROG)*%
X89200000Y-49550000D03*
D26*
%TO.P,U2,9*%
%TO.N,N/C*%
X87750000Y-50300000D03*
%TD*%
D27*
%TO.P,Button,1,A*%
%TO.N,+BATT*%
X97100000Y-47700000D03*
%TO.P,Button,2,B*%
%TO.N,reg*%
X99100000Y-47700000D03*
%TO.P,Button,3,C*%
%TO.N,unconnected-(Push_Button1-C-Pad3)*%
X101100000Y-47700000D03*
%TO.P,Button,4,A*%
%TO.N,unconnected-(Push_Button1-A-Pad4)*%
X97100000Y-55700000D03*
%TO.P,Button,5,B*%
%TO.N,unconnected-(Push_Button1-B-Pad5)*%
X99100000Y-55700000D03*
%TO.P,Button,6,C*%
%TO.N,unconnected-(Push_Button1-C-Pad6)*%
X101100000Y-55700000D03*
%TD*%
D13*
%TO.P,R15,1*%
%TO.N,GND*%
X120132500Y-67900000D03*
%TO.P,R15,2*%
%TO.N,Net-(D4-K)*%
X119112500Y-67900000D03*
%TD*%
D28*
%TO.P,nrst-swclk-gnd-swdio-3v3,1,Pin_1*%
%TO.N,+3.3V*%
X84500000Y-46300000D03*
D29*
%TO.P,nrst-swclk-gnd-swdio-3v3,2,Pin_2*%
%TO.N,/SWDIO*%
X82500000Y-46300000D03*
%TO.P,nrst-swclk-gnd-swdio-3v3,3,Pin_3*%
%TO.N,GND*%
X80500000Y-46300000D03*
%TO.P,nrst-swclk-gnd-swdio-3v3,4,Pin_4*%
%TO.N,/SWCLK*%
X78500000Y-46300000D03*
%TO.P,nrst-swclk-gnd-swdio-3v3,5,Pin_5*%
%TO.N,nrst*%
X76500000Y-46300000D03*
%TD*%
D30*
%TO.P,C2,1*%
%TO.N,+3.3V*%
X105000000Y-56950000D03*
%TO.P,C2,2*%
%TO.N,GND*%
X103450000Y-56950000D03*
%TD*%
D19*
%TO.P,D5,1,K*%
%TO.N,Net-(D5-K)*%
X115050000Y-65400000D03*
%TO.P,D5,2,A*%
%TO.N,Net-(74HC595-QE)*%
X113175000Y-65400000D03*
%TD*%
D14*
%TO.P,R10,1*%
%TO.N,GND*%
X92450000Y-48100000D03*
%TO.P,R10,2*%
%TO.N,Net-(U2-PROG)*%
X92450000Y-49750000D03*
%TD*%
D13*
%TO.P,R12,1*%
%TO.N,GND*%
X120132500Y-75400000D03*
%TO.P,R12,2*%
%TO.N,Net-(D1-K)*%
X119112500Y-75400000D03*
%TD*%
%TO.P,R5,1*%
%TO.N,GND*%
X120152500Y-60400000D03*
%TO.P,R5,2*%
%TO.N,Net-(D7-K)*%
X119132500Y-60400000D03*
%TD*%
D19*
%TO.P,D1,1,K*%
%TO.N,Net-(D1-K)*%
X115050000Y-75400000D03*
%TO.P,D1,2,A*%
%TO.N,Net-(74HC595-QA)*%
X113175000Y-75400000D03*
%TD*%
D30*
%TO.P,C7,1*%
%TO.N,GND*%
X107750000Y-59040000D03*
%TO.P,C7,2*%
%TO.N,+3.3V*%
X106200000Y-59040000D03*
%TD*%
D19*
%TO.P,D10,1,K*%
%TO.N,Net-(D10-K)*%
X101125000Y-45000000D03*
%TO.P,D10,2,A*%
%TO.N,reg*%
X99250000Y-45000000D03*
%TD*%
D31*
%TO.P,Buzzer1,1,+*%
%TO.N,Net-(Buzzer1-+)*%
X95750000Y-71800000D03*
%TO.P,Buzzer1,2,-*%
%TO.N,GND*%
X95750000Y-86800000D03*
%TD*%
D32*
%TO.P,C9,1*%
%TO.N,GND*%
X85320000Y-65300000D03*
%TO.P,C9,2*%
%TO.N,Net-(STM32F042F6P6-PA1)*%
X86280000Y-65300000D03*
%TD*%
D13*
%TO.P,R6,1*%
%TO.N,GND*%
X120152500Y-62900000D03*
%TO.P,R6,2*%
%TO.N,Net-(D6-K)*%
X119132500Y-62900000D03*
%TD*%
D33*
%TO.P,R8,1*%
%TO.N,+3.3V*%
X86750000Y-60800000D03*
%TO.P,R8,2*%
%TO.N,Net-(STM32F042F6P6-PA0)*%
X86750000Y-62625000D03*
%TD*%
D19*
%TO.P,D7,1,K*%
%TO.N,Net-(D7-K)*%
X115050000Y-60400000D03*
%TO.P,D7,2,A*%
%TO.N,Net-(74HC595-QG)*%
X113175000Y-60400000D03*
%TD*%
D13*
%TO.P,R16,1*%
%TO.N,GND*%
X120152500Y-65400000D03*
%TO.P,R16,2*%
%TO.N,Net-(D5-K)*%
X119132500Y-65400000D03*
%TD*%
D34*
%TO.P,U1,1,I/O1*%
%TO.N,/usb_d-*%
X79525000Y-53900000D03*
%TO.P,U1,2,GND*%
%TO.N,GND*%
X79525000Y-54850000D03*
%TO.P,U1,3,I/O2*%
%TO.N,/usb_d+*%
X79525000Y-55800000D03*
%TO.P,U1,4,I/O2*%
%TO.N,D+*%
X81800000Y-55800000D03*
%TO.P,U1,5,VBUS*%
%TO.N,+5V*%
X81800000Y-54850000D03*
%TO.P,U1,6,I/O1*%
%TO.N,D-*%
X81800000Y-53900000D03*
%TD*%
D19*
%TO.P,D8,1,K*%
%TO.N,Net-(D8-K)*%
X115050000Y-57900000D03*
%TO.P,D8,2,A*%
%TO.N,Net-(74HC595-QH)*%
X113175000Y-57900000D03*
%TD*%
D35*
%TO.P,74HC595,1,QB*%
%TO.N,Net-(74HC595-QB)*%
X110250000Y-69580000D03*
%TO.P,74HC595,2,QC*%
%TO.N,Net-(74HC595-QC)*%
X110250000Y-68310000D03*
%TO.P,74HC595,3,QD*%
%TO.N,Net-(74HC595-QD)*%
X110250000Y-67040000D03*
%TO.P,74HC595,4,QE*%
%TO.N,Net-(74HC595-QE)*%
X110250000Y-65770000D03*
%TO.P,74HC595,5,QF*%
%TO.N,Net-(74HC595-QF)*%
X110250000Y-64500000D03*
%TO.P,74HC595,6,QG*%
%TO.N,Net-(74HC595-QG)*%
X110250000Y-63230000D03*
%TO.P,74HC595,7,QH*%
%TO.N,Net-(74HC595-QH)*%
X110250000Y-61960000D03*
%TO.P,74HC595,8,GND*%
%TO.N,GND*%
X110250000Y-60690000D03*
%TO.P,74HC595,9,QH'*%
%TO.N,unconnected-(74HC595-QH'-Pad9)*%
X104750000Y-69580000D03*
%TO.P,74HC595,10,~{SRCLR}*%
%TO.N,+3.3V*%
X104750000Y-68310000D03*
%TO.P,74HC595,11,SRCLK*%
%TO.N,Net-(74HC595-SRCLK)*%
X104750000Y-67040000D03*
%TO.P,74HC595,12,RCLK*%
%TO.N,Net-(74HC595-RCLK)*%
X104750000Y-65770000D03*
%TO.P,74HC595,13,~{OE}*%
%TO.N,GND*%
X104750000Y-64500000D03*
%TO.P,74HC595,14,SER*%
%TO.N,Net-(74HC595-SER)*%
X104750000Y-63230000D03*
%TO.P,74HC595,15,QA*%
%TO.N,Net-(74HC595-QA)*%
X104750000Y-61960000D03*
%TO.P,74HC595,16,VCC*%
%TO.N,+3.3V*%
X104750000Y-60690000D03*
%TD*%
D36*
%TO.P,J1,A1,GND*%
%TO.N,GND*%
X73890000Y-51075000D03*
%TO.P,J1,A4,VBUS*%
%TO.N,+5V*%
X73890000Y-51875000D03*
D37*
%TO.P,J1,A5,CC1*%
%TO.N,Net-(J1-CC1)*%
X73890000Y-53025000D03*
%TO.P,J1,A6,D+*%
%TO.N,/usb_d+*%
X73890000Y-54025000D03*
%TO.P,J1,A7,D-*%
%TO.N,/usb_d-*%
X73890000Y-54525000D03*
%TO.P,J1,A8,SBU1*%
%TO.N,unconnected-(J1-SBU1-PadA8)*%
X73890000Y-55525000D03*
D36*
%TO.P,J1,A9,VBUS*%
%TO.N,+5V*%
X73890000Y-56675000D03*
%TO.P,J1,A12,GND*%
%TO.N,GND*%
X73890000Y-57475000D03*
%TO.P,J1,B1,GND*%
X73890000Y-57475000D03*
%TO.P,J1,B4,VBUS*%
%TO.N,+5V*%
X73890000Y-56675000D03*
D37*
%TO.P,J1,B5,CC2*%
%TO.N,Net-(J1-CC2)*%
X73890000Y-56025000D03*
%TO.P,J1,B6,D+*%
%TO.N,/usb_d+*%
X73890000Y-55025000D03*
%TO.P,J1,B7,D-*%
%TO.N,/usb_d-*%
X73890000Y-53525000D03*
%TO.P,J1,B8,SBU2*%
%TO.N,unconnected-(J1-SBU2-PadB8)*%
X73890000Y-52525000D03*
D36*
%TO.P,J1,B9,VBUS*%
%TO.N,+5V*%
X73890000Y-51875000D03*
%TO.P,J1,B12,GND*%
%TO.N,GND*%
X73890000Y-51075000D03*
D38*
%TO.P,J1,S1,SHIELD*%
X73315000Y-49955000D03*
D39*
X69135000Y-49955000D03*
D38*
X73315000Y-58595000D03*
D39*
X69135000Y-58595000D03*
%TD*%
D19*
%TO.P,D4,1,K*%
%TO.N,Net-(D4-K)*%
X115050000Y-67900000D03*
%TO.P,D4,2,A*%
%TO.N,Net-(74HC595-QD)*%
X113175000Y-67900000D03*
%TD*%
%TO.P,D2,1,K*%
%TO.N,Net-(D2-K)*%
X115050000Y-72900000D03*
%TO.P,D2,2,A*%
%TO.N,Net-(74HC595-QB)*%
X113175000Y-72900000D03*
%TD*%
D40*
%TO.P,C3,1*%
%TO.N,+3.3V*%
X87350000Y-58800000D03*
%TO.P,C3,2*%
%TO.N,GND*%
X89250000Y-58800000D03*
%TD*%
D41*
%TO.P,R1,1*%
%TO.N,Net-(J1-CC1)*%
X77400000Y-50500000D03*
%TO.P,R1,2*%
%TO.N,GND*%
X75750000Y-50500000D03*
%TD*%
D42*
%TO.N,GND*%
X118950000Y-71650000D03*
X118950000Y-61650000D03*
X75800000Y-49200000D03*
X109800000Y-59200000D03*
X80600000Y-57200000D03*
X84600000Y-53800000D03*
X105400000Y-49200000D03*
X102800000Y-64500000D03*
X95800000Y-62900000D03*
X88700000Y-60250000D03*
X91500000Y-47100000D03*
X105450000Y-45000000D03*
X103450000Y-55300000D03*
X83800000Y-64600000D03*
X77600000Y-58000000D03*
X90200000Y-50800000D03*
%TO.N,+3.3V*%
X92150000Y-66900000D03*
X94300000Y-64700000D03*
X88200000Y-45400000D03*
X101450000Y-59800000D03*
X106500000Y-65500000D03*
X106500000Y-60700000D03*
%TO.N,+BATT*%
X99150000Y-50600000D03*
%TO.N,Net-(J1-CC1)*%
X78750000Y-50900000D03*
X76950000Y-53100000D03*
%TO.N,nrst*%
X82100000Y-49600000D03*
X93550000Y-61100000D03*
%TO.N,/SWDIO*%
X95400000Y-60400000D03*
%TO.N,/SWCLK*%
X96000000Y-59800000D03*
X85150000Y-47840000D03*
%TO.N,Net-(74HC595-SER)*%
X99350000Y-66300000D03*
X101450000Y-64200000D03*
%TO.N,/usb_d+*%
X72040000Y-53850000D03*
X72050000Y-55260000D03*
%TD*%
D43*
%TO.N,reg*%
X105387500Y-53250000D02*
X105537500Y-53400000D01*
X103400000Y-53250000D02*
X105387500Y-53250000D01*
%TO.N,+3.3V*%
X105000000Y-55350000D02*
X105450000Y-54900000D01*
X105000000Y-56950000D02*
X105000000Y-55350000D01*
%TO.N,reg*%
X99100000Y-48950000D02*
X103400000Y-53250000D01*
X99100000Y-45150000D02*
X99250000Y-45000000D01*
X99100000Y-47700000D02*
X99100000Y-48950000D01*
X99100000Y-47700000D02*
X99100000Y-45150000D01*
D44*
%TO.N,GND*%
X91600000Y-48100000D02*
X91600000Y-47200000D01*
D43*
X85200000Y-65180000D02*
X85320000Y-65300000D01*
X73890000Y-57475000D02*
X75850000Y-57475000D01*
X120112500Y-70400000D02*
X120112500Y-67920000D01*
X120152500Y-62900000D02*
X120152500Y-61650000D01*
X120152500Y-61650000D02*
X118950000Y-61650000D01*
X105150000Y-51350000D02*
X105400000Y-51100000D01*
D44*
X92450000Y-48100000D02*
X91600000Y-48100000D01*
D43*
X104750000Y-64500000D02*
X102800000Y-64500000D01*
X89950000Y-61040000D02*
X89950000Y-60150000D01*
X108600000Y-59040000D02*
X109280000Y-59720000D01*
X120132500Y-60380000D02*
X120152500Y-60400000D01*
D45*
X97275000Y-62900000D02*
X98270000Y-62900000D01*
D43*
X85200000Y-64080000D02*
X85200000Y-64600000D01*
X73890000Y-51075000D02*
X75175000Y-51075000D01*
X109280000Y-59720000D02*
X110250000Y-60690000D01*
X120112500Y-67920000D02*
X120132500Y-67900000D01*
D45*
X85200000Y-64600000D02*
X83800000Y-64600000D01*
D43*
X120132500Y-57900000D02*
X120132500Y-60380000D01*
X120132500Y-75400000D02*
X120132500Y-72900000D01*
X75850000Y-57475000D02*
X76300000Y-57925000D01*
X120112500Y-71650000D02*
X118950000Y-71650000D01*
D44*
X86400000Y-54550000D02*
X85350000Y-54550000D01*
X104170000Y-45700000D02*
X104170000Y-45000000D01*
X85250000Y-65450000D02*
X85180000Y-65450000D01*
X85350000Y-54550000D02*
X84600000Y-53800000D01*
D43*
X85200000Y-64600000D02*
X85200000Y-65180000D01*
D44*
X77525000Y-57925000D02*
X77600000Y-58000000D01*
D43*
X75175000Y-51075000D02*
X75750000Y-50500000D01*
X103400000Y-51700000D02*
X104812500Y-51700000D01*
X120112500Y-70400000D02*
X120112500Y-71650000D01*
D44*
X91600000Y-48100000D02*
X90750000Y-48100000D01*
X90650000Y-48200000D02*
X90750000Y-48100000D01*
D43*
X89950000Y-60150000D02*
X88800000Y-60150000D01*
D44*
X104170000Y-45000000D02*
X105450000Y-45000000D01*
D43*
X120112500Y-72880000D02*
X120132500Y-72900000D01*
D44*
X75750000Y-49250000D02*
X75800000Y-49200000D01*
X91600000Y-47200000D02*
X91500000Y-47100000D01*
D43*
X103450000Y-56950000D02*
X103450000Y-55300000D01*
D44*
X104170000Y-44310000D02*
X104180000Y-44300000D01*
D43*
X104812500Y-51700000D02*
X105150000Y-52037500D01*
D44*
X75750000Y-50500000D02*
X75750000Y-49250000D01*
X76300000Y-57925000D02*
X77525000Y-57925000D01*
D43*
X120132500Y-65420000D02*
X120152500Y-65400000D01*
D44*
X79525000Y-54850000D02*
X79948762Y-54850000D01*
D45*
X97275000Y-62900000D02*
X95800000Y-62900000D01*
D43*
X89950000Y-60150000D02*
X89950000Y-59500000D01*
X120112500Y-71650000D02*
X120112500Y-72880000D01*
X120152500Y-65400000D02*
X120152500Y-62900000D01*
X90575000Y-48275000D02*
X90750000Y-48100000D01*
D44*
X89950000Y-50550000D02*
X90200000Y-50800000D01*
D43*
X105150000Y-52037500D02*
X105150000Y-51350000D01*
X88800000Y-60150000D02*
X88700000Y-60250000D01*
D45*
X98270000Y-62900000D02*
X98850000Y-63480000D01*
D44*
X89200000Y-50550000D02*
X89950000Y-50550000D01*
D43*
X89950000Y-59500000D02*
X89250000Y-58800000D01*
D44*
X79948762Y-54850000D02*
X80600000Y-55501238D01*
D43*
X120152500Y-61650000D02*
X120152500Y-60400000D01*
X105400000Y-51100000D02*
X105400000Y-49200000D01*
X107750000Y-59040000D02*
X108600000Y-59040000D01*
X120132500Y-67900000D02*
X120132500Y-65420000D01*
D44*
X80600000Y-55501238D02*
X80600000Y-57200000D01*
D43*
X89200000Y-48275000D02*
X90575000Y-48275000D01*
X109280000Y-59720000D02*
X109800000Y-59200000D01*
D44*
X104170000Y-45000000D02*
X104170000Y-44310000D01*
D43*
%TO.N,+3.3V*%
X102150000Y-60500000D02*
X101450000Y-59800000D01*
D44*
X89950000Y-62000000D02*
X87950000Y-62000000D01*
D43*
X97275000Y-62250000D02*
X96210661Y-62250000D01*
D44*
X104750000Y-60690000D02*
X104750000Y-60490000D01*
D43*
X87350000Y-58800000D02*
X87350000Y-60200000D01*
D44*
X104750000Y-60690000D02*
X106490000Y-60690000D01*
D43*
X87350000Y-60200000D02*
X86750000Y-60800000D01*
D45*
X97275000Y-62250000D02*
X98580000Y-62250000D01*
D43*
X104750000Y-60690000D02*
X104560000Y-60500000D01*
X105150000Y-56800000D02*
X105000000Y-56950000D01*
D44*
X105434500Y-68310000D02*
X104750000Y-68310000D01*
D43*
X96110661Y-62150000D02*
X94300000Y-62150000D01*
X92518088Y-62150000D02*
X92418088Y-62250000D01*
X94300000Y-62150000D02*
X94300000Y-64700000D01*
D45*
X91550000Y-62250000D02*
X90200000Y-62250000D01*
D43*
X88200000Y-45400000D02*
X85400000Y-45400000D01*
D44*
X87950000Y-62000000D02*
X86750000Y-60800000D01*
D43*
X92150000Y-66900000D02*
X89237500Y-66900000D01*
D45*
X98580000Y-62250000D02*
X98850000Y-62520000D01*
X90200000Y-62250000D02*
X89950000Y-62000000D01*
D43*
X92418088Y-62250000D02*
X91550000Y-62250000D01*
X106200000Y-59240000D02*
X104750000Y-60690000D01*
X101480000Y-62520000D02*
X98850000Y-62520000D01*
X104560000Y-60500000D02*
X102150000Y-60500000D01*
X94300000Y-62150000D02*
X92518088Y-62150000D01*
X96210661Y-62250000D02*
X96110661Y-62150000D01*
X105000000Y-56950000D02*
X105000000Y-57840000D01*
X85400000Y-45400000D02*
X84500000Y-46300000D01*
D45*
X97335000Y-62190000D02*
X97275000Y-62250000D01*
D44*
X106490000Y-60690000D02*
X106500000Y-60700000D01*
D43*
X102150000Y-60500000D02*
X102150000Y-61850000D01*
X106200000Y-59040000D02*
X106200000Y-59240000D01*
X105000000Y-57840000D02*
X106200000Y-59040000D01*
D44*
X106500000Y-67244500D02*
X105434500Y-68310000D01*
X106500000Y-65500000D02*
X106500000Y-67244500D01*
D43*
%TO.N,reg*%
X105237500Y-53537500D02*
X106737500Y-53537500D01*
%TO.N,+3.3V*%
X102150000Y-61850000D02*
X101480000Y-62520000D01*
X89237500Y-66900000D02*
X88450000Y-66112500D01*
D44*
%TO.N,+5V*%
X73115305Y-56440000D02*
X73350305Y-56675000D01*
D43*
X87050000Y-48800000D02*
X88000000Y-48800000D01*
X85250000Y-49950000D02*
X86300000Y-49950000D01*
X88100000Y-48700000D02*
X88100000Y-47825000D01*
X88100000Y-47825000D02*
X89200000Y-46725000D01*
X86300000Y-49550000D02*
X86300000Y-49950000D01*
X89200000Y-46725000D02*
X89725000Y-46200000D01*
D44*
X73350305Y-51875000D02*
X72725305Y-52500000D01*
X70770000Y-54899239D02*
X72310761Y-56440000D01*
D43*
X94400000Y-48125000D02*
X94300000Y-48225000D01*
D44*
X80600000Y-54312499D02*
X81137501Y-54850000D01*
D43*
X80400000Y-51875000D02*
X83325000Y-51875000D01*
D44*
X72725305Y-52500000D02*
X71500000Y-52500000D01*
X70770000Y-53230000D02*
X70770000Y-54899239D01*
D43*
X83325000Y-51875000D02*
X85250000Y-49950000D01*
D44*
X73350305Y-56675000D02*
X73890000Y-56675000D01*
D43*
X73890000Y-51875000D02*
X80400000Y-51875000D01*
X89725000Y-46200000D02*
X93600000Y-46200000D01*
D44*
X80600000Y-52075000D02*
X80600000Y-54312499D01*
X73890000Y-51875000D02*
X73350305Y-51875000D01*
X80400000Y-51875000D02*
X80600000Y-52075000D01*
D43*
X93600000Y-46200000D02*
X94400000Y-47000000D01*
X94400000Y-47000000D02*
X94400000Y-48125000D01*
D44*
X81137501Y-54850000D02*
X81800000Y-54850000D01*
X71500000Y-52500000D02*
X70770000Y-53230000D01*
D43*
X86300000Y-49550000D02*
X87050000Y-48800000D01*
D44*
X72310761Y-56440000D02*
X73115305Y-56440000D01*
D43*
X88000000Y-48800000D02*
X88100000Y-48700000D01*
%TO.N,+BATT*%
X97100000Y-50600000D02*
X99150000Y-50600000D01*
X97100000Y-50600000D02*
X97100000Y-47700000D01*
X86400000Y-52650000D02*
X86400000Y-51150000D01*
X86400000Y-51150000D02*
X86300000Y-51050000D01*
X95050000Y-52650000D02*
X97100000Y-50600000D01*
X86300000Y-51050000D02*
X86300000Y-50650000D01*
X86400000Y-52650000D02*
X95050000Y-52650000D01*
%TO.N,Net-(D1-K)*%
X115050000Y-75400000D02*
X119112500Y-75400000D01*
%TO.N,Net-(D2-K)*%
X115050000Y-72900000D02*
X119112500Y-72900000D01*
%TO.N,Net-(D3-K)*%
X115050000Y-70400000D02*
X119092500Y-70400000D01*
%TO.N,Net-(D4-K)*%
X115050000Y-67900000D02*
X119112500Y-67900000D01*
D45*
%TO.N,Net-(D9-K)*%
X94370000Y-50170000D02*
X94300000Y-50100000D01*
X94370000Y-51400000D02*
X94370000Y-50170000D01*
D44*
%TO.N,Net-(D10-K)*%
X102460000Y-45000000D02*
X103160000Y-44300000D01*
X102460000Y-45010000D02*
X102460000Y-45000000D01*
X101125000Y-45000000D02*
X102460000Y-45000000D01*
X103150000Y-45700000D02*
X102460000Y-45010000D01*
D43*
%TO.N,Net-(D5-K)*%
X115050000Y-65400000D02*
X119132500Y-65400000D01*
%TO.N,Net-(D6-K)*%
X115050000Y-62900000D02*
X119132500Y-62900000D01*
%TO.N,Net-(D7-K)*%
X115050000Y-60400000D02*
X119132500Y-60400000D01*
%TO.N,Net-(D8-K)*%
X115050000Y-57900000D02*
X119112500Y-57900000D01*
D44*
%TO.N,Net-(J1-CC1)*%
X77400000Y-50500000D02*
X78350000Y-50500000D01*
X78350000Y-50500000D02*
X78750000Y-50900000D01*
X76950000Y-53100000D02*
X76875000Y-53025000D01*
X76875000Y-53025000D02*
X73890000Y-53025000D01*
D45*
%TO.N,Net-(J1-CC2)*%
X74950000Y-56000000D02*
X74925000Y-56025000D01*
X74925000Y-56025000D02*
X73890000Y-56025000D01*
D43*
X76300000Y-56275000D02*
X75625000Y-56275000D01*
X75625000Y-56275000D02*
X75350000Y-56000000D01*
X75350000Y-56000000D02*
X74950000Y-56000000D01*
D44*
%TO.N,Net-(U2-PROG)*%
X90550000Y-49550000D02*
X90750000Y-49750000D01*
X89200000Y-49550000D02*
X90550000Y-49550000D01*
D43*
X90750000Y-49750000D02*
X92450000Y-49750000D01*
D45*
%TO.N,nrst*%
X78100000Y-47900000D02*
X76500000Y-46300000D01*
X82100000Y-49600000D02*
X80400000Y-47900000D01*
D44*
X91550000Y-61600000D02*
X91600000Y-61550000D01*
D45*
X80400000Y-47900000D02*
X78100000Y-47900000D01*
X93050000Y-61600000D02*
X93550000Y-61100000D01*
X91550000Y-61600000D02*
X93050000Y-61600000D01*
%TO.N,D+*%
X84177512Y-55025000D02*
X83568751Y-55025000D01*
X99825000Y-60527512D02*
X99825000Y-59272488D01*
X98531251Y-61100000D02*
X99252512Y-61100000D01*
X99252512Y-61100000D02*
X99825000Y-60527512D01*
X97927512Y-57375000D02*
X86527512Y-57375000D01*
X99825000Y-59272488D02*
X97927512Y-57375000D01*
X98381251Y-60950000D02*
X98531251Y-61100000D01*
X86527512Y-57375000D02*
X84177512Y-55025000D01*
X82793751Y-55800000D02*
X81800000Y-55800000D01*
X83568751Y-55025000D02*
X82793751Y-55800000D01*
X97275000Y-60950000D02*
X98381251Y-60950000D01*
%TO.N,D-*%
X82793751Y-53900000D02*
X81800000Y-53900000D01*
X98381251Y-61600000D02*
X98531251Y-61450000D01*
X84322488Y-54675000D02*
X83568751Y-54675000D01*
X100175000Y-60672488D02*
X100175000Y-59127512D01*
X98531251Y-61450000D02*
X99397488Y-61450000D01*
X83568751Y-54675000D02*
X82793751Y-53900000D01*
X97275000Y-61600000D02*
X98381251Y-61600000D01*
X100175000Y-59127512D02*
X98072488Y-57025000D01*
X98072488Y-57025000D02*
X86672488Y-57025000D01*
X99397488Y-61450000D02*
X100175000Y-60672488D01*
X86672488Y-57025000D02*
X84322488Y-54675000D01*
%TO.N,Net-(R17-Pad2)*%
X93350000Y-51400000D02*
X91970000Y-51400000D01*
%TO.N,Net-(U2-STAT)*%
X90950000Y-51400000D02*
X89550000Y-51400000D01*
X89550000Y-51400000D02*
X89200000Y-51050000D01*
%TO.N,/SWDIO*%
X97275000Y-60300000D02*
X97930956Y-60300000D01*
X97275000Y-60300000D02*
X97175000Y-60400000D01*
X97175000Y-60400000D02*
X95400000Y-60400000D01*
%TO.N,/SWCLK*%
X96150000Y-59650000D02*
X96000000Y-59800000D01*
X84810000Y-47500000D02*
X79700000Y-47500000D01*
X85150000Y-47840000D02*
X84810000Y-47500000D01*
X97275000Y-59650000D02*
X96150000Y-59650000D01*
X79700000Y-47500000D02*
X78500000Y-46300000D01*
%TO.N,Net-(74HC595-RCLK)*%
X97275000Y-64200000D02*
X99250000Y-64200000D01*
X100820000Y-65770000D02*
X104750000Y-65770000D01*
X99250000Y-64200000D02*
X100820000Y-65770000D01*
%TO.N,Net-(74HC595-SER)*%
X98550000Y-65500000D02*
X99350000Y-66300000D01*
X102420000Y-63230000D02*
X104750000Y-63230000D01*
X101450000Y-64200000D02*
X102420000Y-63230000D01*
X97275000Y-65500000D02*
X98550000Y-65500000D01*
%TO.N,Net-(74HC595-QC)*%
X110250000Y-68310000D02*
X111085000Y-68310000D01*
X111085000Y-68310000D02*
X113175000Y-70400000D01*
D44*
%TO.N,Net-(74HC595-QA)*%
X105329239Y-61960000D02*
X104750000Y-61960000D01*
X109650000Y-75400000D02*
X107500000Y-73250000D01*
X107500000Y-64130761D02*
X105329239Y-61960000D01*
X113175000Y-75400000D02*
X109650000Y-75400000D01*
X107500000Y-64130761D02*
X107500000Y-73250000D01*
D45*
%TO.N,Net-(74HC595-SRCLK)*%
X101090000Y-67040000D02*
X104750000Y-67040000D01*
X97275000Y-64850000D02*
X98900000Y-64850000D01*
X98900000Y-64850000D02*
X101090000Y-67040000D01*
%TO.N,Net-(74HC595-QF)*%
X110250000Y-64500000D02*
X111575000Y-64500000D01*
X111575000Y-64500000D02*
X113175000Y-62900000D01*
%TO.N,Net-(74HC595-QG)*%
X113175000Y-60989500D02*
X113175000Y-60400000D01*
X110250000Y-63230000D02*
X110934500Y-63230000D01*
X110934500Y-63230000D02*
X113175000Y-60989500D01*
%TO.N,Net-(74HC595-QH)*%
X110934500Y-61960000D02*
X111850000Y-61044500D01*
X111850000Y-61044500D02*
X111850000Y-59225000D01*
D44*
X113175000Y-57900000D02*
X111850000Y-59225000D01*
D45*
X110250000Y-61960000D02*
X110934500Y-61960000D01*
%TO.N,Net-(74HC595-QD)*%
X113175000Y-67900000D02*
X112315000Y-67040000D01*
X112315000Y-67040000D02*
X110250000Y-67040000D01*
%TO.N,Net-(74HC595-QE)*%
X110250000Y-65770000D02*
X112805000Y-65770000D01*
X112805000Y-65770000D02*
X113175000Y-65400000D01*
%TO.N,Net-(74HC595-QB)*%
X110250000Y-69580000D02*
X110250000Y-69975000D01*
X110250000Y-69975000D02*
X113175000Y-72900000D01*
D44*
%TO.N,Net-(Buzzer1-+)*%
X92450000Y-64200000D02*
X95750000Y-67500000D01*
X91550000Y-64200000D02*
X92450000Y-64200000D01*
X95750000Y-67500000D02*
X95750000Y-71800000D01*
D45*
%TO.N,Net-(STM32F042F6P6-PA0)*%
X80100000Y-63100000D02*
X80120000Y-63120000D01*
X73150000Y-70050000D02*
X80100000Y-63100000D01*
D43*
X86255000Y-63120000D02*
X86750000Y-62625000D01*
D44*
X86325000Y-63050000D02*
X86750000Y-62625000D01*
D43*
X85200000Y-63120000D02*
X86255000Y-63120000D01*
D44*
X88750000Y-62900000D02*
X88475000Y-62625000D01*
D45*
X80120000Y-63120000D02*
X85200000Y-63120000D01*
X73150000Y-76100000D02*
X73150000Y-70050000D01*
D44*
X88475000Y-62625000D02*
X86750000Y-62625000D01*
X91550000Y-62900000D02*
X88750000Y-62900000D01*
%TO.N,Net-(STM32F042F6P6-PA1)*%
X89187500Y-63550000D02*
X88450000Y-64287500D01*
D45*
X86280000Y-65300000D02*
X86280000Y-67970000D01*
D44*
X91550000Y-63550000D02*
X89187500Y-63550000D01*
D43*
X87437500Y-65300000D02*
X88450000Y-64287500D01*
X86280000Y-65300000D02*
X87437500Y-65300000D01*
D45*
X86280000Y-67970000D02*
X78150000Y-76100000D01*
%TO.N,/usb_d-*%
X71220000Y-53821471D02*
X71791471Y-53250000D01*
X73007590Y-53250000D02*
X73282590Y-53525000D01*
X73282590Y-53525000D02*
X73890000Y-53525000D01*
X71791471Y-53250000D02*
X73007590Y-53250000D01*
X77756249Y-54675000D02*
X78531249Y-53900000D01*
X73890000Y-54525000D02*
X74040000Y-54675000D01*
X71685000Y-54525000D02*
X71220000Y-54060000D01*
X78531249Y-53900000D02*
X79525000Y-53900000D01*
X74040000Y-54675000D02*
X77756249Y-54675000D01*
X73890000Y-54525000D02*
X71685000Y-54525000D01*
X71220000Y-54060000D02*
X71220000Y-53821471D01*
%TO.N,/usb_d+*%
X72285000Y-55025000D02*
X72050000Y-55260000D01*
X77756249Y-55025000D02*
X78531249Y-55800000D01*
X72215000Y-54025000D02*
X73890000Y-54025000D01*
X73890000Y-55025000D02*
X72285000Y-55025000D01*
X72040000Y-53850000D02*
X72215000Y-54025000D01*
X78531249Y-55800000D02*
X79525000Y-55800000D01*
X73890000Y-55025000D02*
X77756249Y-55025000D01*
%TD*%
M02*
