%TF.GenerationSoftware,KiCad,Pcbnew,9.0.8*%
%TF.CreationDate,2026-06-18T14:37:21+02:00*%
%TF.ProjectId,eggtimer,65676774-696d-4657-922e-6b696361645f,rev?*%
%TF.SameCoordinates,Original*%
%TF.FileFunction,Copper,L2,Bot*%
%TF.FilePolarity,Positive*%
%FSLAX46Y46*%
G04 Gerber Fmt 4.6, Leading zero omitted, Abs format (unit mm)*
G04 Created by KiCad (PCBNEW 9.0.8) date 2026-06-18 14:37:21*
%MOMM*%
%LPD*%
G01*
G04 APERTURE LIST*
%TA.AperFunction,ComponentPad*%
%ADD10O,3.000000X4.000000*%
%TD*%
%TA.AperFunction,ComponentPad*%
%ADD11C,1.800000*%
%TD*%
%TA.AperFunction,ComponentPad*%
%ADD12C,2.000000*%
%TD*%
%TA.AperFunction,ComponentPad*%
%ADD13R,1.350000X1.350000*%
%TD*%
%TA.AperFunction,ComponentPad*%
%ADD14C,1.350000*%
%TD*%
%TA.AperFunction,ComponentPad*%
%ADD15C,1.700000*%
%TD*%
%TA.AperFunction,HeatsinkPad*%
%ADD16O,2.100000X1.000000*%
%TD*%
%TA.AperFunction,HeatsinkPad*%
%ADD17O,1.800000X1.000000*%
%TD*%
%TA.AperFunction,ViaPad*%
%ADD18C,0.600000*%
%TD*%
%TA.AperFunction,Conductor*%
%ADD19C,0.500000*%
%TD*%
%TA.AperFunction,Conductor*%
%ADD20C,0.300000*%
%TD*%
%TA.AperFunction,Conductor*%
%ADD21C,0.200000*%
%TD*%
G04 APERTURE END LIST*
D10*
%TO.P,Rotary_Encoder1,4*%
%TO.N,N/C*%
X69950000Y-68600000D03*
%TO.P,Rotary_Encoder1,5*%
X81400000Y-68600000D03*
D11*
%TO.P,Rotary_Encoder1,A,A*%
%TO.N,Net-(STM32F042F6P6-PA0)*%
X73150000Y-76100000D03*
%TO.P,Rotary_Encoder1,B,B*%
%TO.N,Net-(STM32F042F6P6-PA1)*%
X78150000Y-76100000D03*
%TO.P,Rotary_Encoder1,C,C*%
%TO.N,GND*%
X75650000Y-76100000D03*
%TD*%
D12*
%TO.P,Battery_Cell1,1,+*%
%TO.N,+BATT*%
X117500000Y-52000000D03*
%TO.P,Battery_Cell1,2,-*%
%TO.N,GND*%
X112500000Y-52000000D03*
%TD*%
D13*
%TO.P,nrst-swclk-gnd-swdio-3v3,1,Pin_1*%
%TO.N,+3.3V*%
X84500000Y-46300000D03*
D14*
%TO.P,nrst-swclk-gnd-swdio-3v3,2,Pin_2*%
%TO.N,/SWDIO*%
X82500000Y-46300000D03*
%TO.P,nrst-swclk-gnd-swdio-3v3,3,Pin_3*%
%TO.N,GND*%
X80500000Y-46300000D03*
%TO.P,nrst-swclk-gnd-swdio-3v3,4,Pin_4*%
%TO.N,/SWCLK*%
X78500000Y-46300000D03*
%TO.P,nrst-swclk-gnd-swdio-3v3,5,Pin_5*%
%TO.N,nrst*%
X76500000Y-46300000D03*
%TD*%
D15*
%TO.P,Buzzer1,1,+*%
%TO.N,Net-(Buzzer1-+)*%
X95750000Y-71800000D03*
%TO.P,Buzzer1,2,-*%
%TO.N,GND*%
X95750000Y-86800000D03*
%TD*%
D16*
%TO.P,J1,S1,SHIELD*%
%TO.N,GND*%
X73315000Y-49955000D03*
D17*
X69135000Y-49955000D03*
D16*
X73315000Y-58595000D03*
D17*
X69135000Y-58595000D03*
%TD*%
D18*
%TO.N,GND*%
X118950000Y-71650000D03*
X118950000Y-61650000D03*
X75800000Y-49200000D03*
X109800000Y-59200000D03*
X80600000Y-57200000D03*
X84600000Y-53800000D03*
X105400000Y-49200000D03*
X102800000Y-64500000D03*
X95800000Y-62900000D03*
X88700000Y-60250000D03*
X91500000Y-47100000D03*
X105450000Y-45000000D03*
X103450000Y-55300000D03*
X83800000Y-64600000D03*
X77600000Y-58000000D03*
X90200000Y-50800000D03*
%TO.N,+3.3V*%
X92150000Y-66900000D03*
X94300000Y-64700000D03*
X88200000Y-45400000D03*
X101450000Y-59800000D03*
X106500000Y-65500000D03*
X106500000Y-60700000D03*
%TO.N,+BATT*%
X99150000Y-50600000D03*
%TO.N,Net-(J1-CC1)*%
X78750000Y-50900000D03*
X76950000Y-53100000D03*
%TO.N,nrst*%
X82100000Y-49600000D03*
X93550000Y-61100000D03*
%TO.N,/SWDIO*%
X95400000Y-60400000D03*
%TO.N,/SWCLK*%
X96000000Y-59800000D03*
X85150000Y-47840000D03*
%TO.N,Net-(74HC595-SER)*%
X99350000Y-66300000D03*
X101450000Y-64200000D03*
%TO.N,/usb_d+*%
X72040000Y-53850000D03*
X72050000Y-55260000D03*
%TD*%
D19*
%TO.N,+3.3V*%
X101450000Y-59800000D02*
X101450000Y-58650000D01*
D20*
X106500000Y-60700000D02*
X106500000Y-65500000D01*
D19*
X101450000Y-58650000D02*
X88200000Y-45400000D01*
X94300000Y-64750000D02*
X92150000Y-66900000D01*
X94300000Y-64700000D02*
X94300000Y-64750000D01*
%TO.N,+BATT*%
X99150000Y-50600000D02*
X101750000Y-48000000D01*
X113500000Y-48000000D02*
X117500000Y-52000000D01*
X101750000Y-48000000D02*
X113500000Y-48000000D01*
D20*
%TO.N,Net-(J1-CC1)*%
X78750000Y-50900000D02*
X78750000Y-51300000D01*
X78750000Y-51300000D02*
X76950000Y-53100000D01*
D21*
%TO.N,nrst*%
X93550000Y-61050000D02*
X82100000Y-49600000D01*
X93550000Y-61100000D02*
X93550000Y-61050000D01*
%TO.N,/SWDIO*%
X95400000Y-59200000D02*
X82500000Y-46300000D01*
X95400000Y-60400000D02*
X95400000Y-59200000D01*
%TO.N,/SWCLK*%
X93650000Y-56400000D02*
X85150000Y-47900000D01*
X85150000Y-47900000D02*
X85150000Y-47840000D01*
X96000000Y-59800000D02*
X96000000Y-58750000D01*
X96000000Y-58750000D02*
X93650000Y-56400000D01*
%TO.N,Net-(74HC595-SER)*%
X99350000Y-66300000D02*
X101450000Y-64200000D01*
%TO.N,/usb_d+*%
X72050000Y-55260000D02*
X72050000Y-53860000D01*
X72050000Y-53860000D02*
X72040000Y-53850000D01*
%TD*%
%TA.AperFunction,Conductor*%
%TO.N,GND*%
G36*
X119003736Y-42500726D02*
G01*
X119293796Y-42518271D01*
X119308659Y-42520076D01*
X119590797Y-42571780D01*
X119605334Y-42575363D01*
X119879182Y-42660698D01*
X119893163Y-42666000D01*
X120154734Y-42783724D01*
X120167987Y-42790680D01*
X120413458Y-42939071D01*
X120425776Y-42947573D01*
X120651573Y-43124474D01*
X120662781Y-43134404D01*
X120865595Y-43337218D01*
X120875525Y-43348426D01*
X121052422Y-43574217D01*
X121060928Y-43586541D01*
X121209319Y-43832012D01*
X121216277Y-43845269D01*
X121333994Y-44106823D01*
X121339304Y-44120825D01*
X121424635Y-44394664D01*
X121428219Y-44409202D01*
X121479923Y-44691340D01*
X121481728Y-44706205D01*
X121499274Y-44996263D01*
X121499500Y-45003750D01*
X121499500Y-88996249D01*
X121499274Y-89003736D01*
X121481728Y-89293794D01*
X121479923Y-89308659D01*
X121428219Y-89590797D01*
X121424635Y-89605335D01*
X121339304Y-89879174D01*
X121333994Y-89893176D01*
X121216277Y-90154730D01*
X121209319Y-90167987D01*
X121060928Y-90413458D01*
X121052422Y-90425782D01*
X120875525Y-90651573D01*
X120865595Y-90662781D01*
X120662781Y-90865595D01*
X120651573Y-90875525D01*
X120425782Y-91052422D01*
X120413458Y-91060928D01*
X120167987Y-91209319D01*
X120154730Y-91216277D01*
X119893176Y-91333994D01*
X119879174Y-91339304D01*
X119605335Y-91424635D01*
X119590797Y-91428219D01*
X119308659Y-91479923D01*
X119293794Y-91481728D01*
X119003736Y-91499274D01*
X118996249Y-91499500D01*
X70003751Y-91499500D01*
X69996264Y-91499274D01*
X69706205Y-91481728D01*
X69691340Y-91479923D01*
X69409202Y-91428219D01*
X69394664Y-91424635D01*
X69120825Y-91339304D01*
X69106827Y-91333995D01*
X68954096Y-91265256D01*
X68845269Y-91216277D01*
X68832012Y-91209319D01*
X68586541Y-91060928D01*
X68574217Y-91052422D01*
X68348426Y-90875525D01*
X68337218Y-90865595D01*
X68134404Y-90662781D01*
X68124474Y-90651573D01*
X67947573Y-90425776D01*
X67939071Y-90413458D01*
X67790680Y-90167987D01*
X67783722Y-90154730D01*
X67666000Y-89893163D01*
X67660698Y-89879182D01*
X67575363Y-89605334D01*
X67571780Y-89590797D01*
X67520076Y-89308659D01*
X67518271Y-89293794D01*
X67500726Y-89003736D01*
X67500500Y-88996249D01*
X67500500Y-88893713D01*
X68649500Y-88893713D01*
X68649500Y-89106286D01*
X68682753Y-89316239D01*
X68748444Y-89518414D01*
X68844951Y-89707820D01*
X68969890Y-89879786D01*
X69120213Y-90030109D01*
X69292179Y-90155048D01*
X69292181Y-90155049D01*
X69292184Y-90155051D01*
X69481588Y-90251557D01*
X69683757Y-90317246D01*
X69893713Y-90350500D01*
X69893714Y-90350500D01*
X70106286Y-90350500D01*
X70106287Y-90350500D01*
X70316243Y-90317246D01*
X70518412Y-90251557D01*
X70707816Y-90155051D01*
X70729789Y-90139086D01*
X70879786Y-90030109D01*
X70879788Y-90030106D01*
X70879792Y-90030104D01*
X71030104Y-89879792D01*
X71030106Y-89879788D01*
X71030109Y-89879786D01*
X71155048Y-89707820D01*
X71155047Y-89707820D01*
X71155051Y-89707816D01*
X71251557Y-89518412D01*
X71317246Y-89316243D01*
X71350500Y-89106287D01*
X71350500Y-88893713D01*
X117649500Y-88893713D01*
X117649500Y-89106286D01*
X117682753Y-89316239D01*
X117748444Y-89518414D01*
X117844951Y-89707820D01*
X117969890Y-89879786D01*
X118120213Y-90030109D01*
X118292179Y-90155048D01*
X118292181Y-90155049D01*
X118292184Y-90155051D01*
X118481588Y-90251557D01*
X118683757Y-90317246D01*
X118893713Y-90350500D01*
X118893714Y-90350500D01*
X119106286Y-90350500D01*
X119106287Y-90350500D01*
X119316243Y-90317246D01*
X119518412Y-90251557D01*
X119707816Y-90155051D01*
X119729789Y-90139086D01*
X119879786Y-90030109D01*
X119879788Y-90030106D01*
X119879792Y-90030104D01*
X120030104Y-89879792D01*
X120030106Y-89879788D01*
X120030109Y-89879786D01*
X120155048Y-89707820D01*
X120155047Y-89707820D01*
X120155051Y-89707816D01*
X120251557Y-89518412D01*
X120317246Y-89316243D01*
X120350500Y-89106287D01*
X120350500Y-88893713D01*
X120317246Y-88683757D01*
X120251557Y-88481588D01*
X120155051Y-88292184D01*
X120155049Y-88292181D01*
X120155048Y-88292179D01*
X120030109Y-88120213D01*
X119879786Y-87969890D01*
X119707820Y-87844951D01*
X119518414Y-87748444D01*
X119518413Y-87748443D01*
X119518412Y-87748443D01*
X119316243Y-87682754D01*
X119316241Y-87682753D01*
X119316240Y-87682753D01*
X119154957Y-87657208D01*
X119106287Y-87649500D01*
X118893713Y-87649500D01*
X118845042Y-87657208D01*
X118683760Y-87682753D01*
X118481585Y-87748444D01*
X118292179Y-87844951D01*
X118120213Y-87969890D01*
X117969890Y-88120213D01*
X117844951Y-88292179D01*
X117748444Y-88481585D01*
X117682753Y-88683760D01*
X117649500Y-88893713D01*
X71350500Y-88893713D01*
X71317246Y-88683757D01*
X71251557Y-88481588D01*
X71155051Y-88292184D01*
X71155049Y-88292181D01*
X71155048Y-88292179D01*
X71030109Y-88120213D01*
X70879790Y-87969894D01*
X70879785Y-87969890D01*
X70877656Y-87968343D01*
X70877637Y-87968330D01*
X70707815Y-87844948D01*
X70518414Y-87748444D01*
X70518413Y-87748443D01*
X70518412Y-87748443D01*
X70316243Y-87682754D01*
X70316241Y-87682753D01*
X70316240Y-87682753D01*
X70154957Y-87657208D01*
X70106287Y-87649500D01*
X69893713Y-87649500D01*
X69845042Y-87657208D01*
X69683760Y-87682753D01*
X69481585Y-87748444D01*
X69292179Y-87844951D01*
X69120213Y-87969890D01*
X68969890Y-88120213D01*
X68844951Y-88292179D01*
X68748444Y-88481585D01*
X68682753Y-88683760D01*
X68649500Y-88893713D01*
X67500500Y-88893713D01*
X67500500Y-86693753D01*
X94400000Y-86693753D01*
X94400000Y-86906246D01*
X94433242Y-87116127D01*
X94433242Y-87116130D01*
X94498904Y-87318217D01*
X94595375Y-87507550D01*
X94634728Y-87561716D01*
X95226212Y-86970233D01*
X95237482Y-87012292D01*
X95309890Y-87137708D01*
X95412292Y-87240110D01*
X95537708Y-87312518D01*
X95579765Y-87323787D01*
X94988282Y-87915269D01*
X94988282Y-87915270D01*
X95042449Y-87954624D01*
X95231782Y-88051095D01*
X95433870Y-88116757D01*
X95643754Y-88150000D01*
X95856246Y-88150000D01*
X96066127Y-88116757D01*
X96066130Y-88116757D01*
X96268217Y-88051095D01*
X96457554Y-87954622D01*
X96511716Y-87915270D01*
X96511717Y-87915270D01*
X95920233Y-87323787D01*
X95962292Y-87312518D01*
X96087708Y-87240110D01*
X96190110Y-87137708D01*
X96262518Y-87012292D01*
X96273787Y-86970233D01*
X96865270Y-87561717D01*
X96865270Y-87561716D01*
X96904622Y-87507554D01*
X97001095Y-87318217D01*
X97066757Y-87116130D01*
X97066757Y-87116127D01*
X97100000Y-86906246D01*
X97100000Y-86693753D01*
X97066757Y-86483872D01*
X97066757Y-86483869D01*
X97001095Y-86281782D01*
X96904624Y-86092449D01*
X96865270Y-86038282D01*
X96865269Y-86038282D01*
X96273787Y-86629765D01*
X96262518Y-86587708D01*
X96190110Y-86462292D01*
X96087708Y-86359890D01*
X95962292Y-86287482D01*
X95920233Y-86276212D01*
X96511716Y-85684728D01*
X96457550Y-85645375D01*
X96268217Y-85548904D01*
X96066129Y-85483242D01*
X95856246Y-85450000D01*
X95643754Y-85450000D01*
X95433872Y-85483242D01*
X95433869Y-85483242D01*
X95231782Y-85548904D01*
X95042439Y-85645380D01*
X94988282Y-85684727D01*
X94988282Y-85684728D01*
X95579766Y-86276212D01*
X95537708Y-86287482D01*
X95412292Y-86359890D01*
X95309890Y-86462292D01*
X95237482Y-86587708D01*
X95226212Y-86629766D01*
X94634728Y-86038282D01*
X94634727Y-86038282D01*
X94595380Y-86092439D01*
X94498904Y-86281782D01*
X94433242Y-86483869D01*
X94433242Y-86483872D01*
X94400000Y-86693753D01*
X67500500Y-86693753D01*
X67500500Y-75989778D01*
X71749500Y-75989778D01*
X71749500Y-76210221D01*
X71783985Y-76427952D01*
X71852103Y-76637603D01*
X71852104Y-76637606D01*
X71952187Y-76834025D01*
X72081752Y-77012358D01*
X72081756Y-77012363D01*
X72237636Y-77168243D01*
X72237641Y-77168247D01*
X72351632Y-77251065D01*
X72415978Y-77297815D01*
X72544375Y-77363237D01*
X72612393Y-77397895D01*
X72612396Y-77397896D01*
X72717221Y-77431955D01*
X72822049Y-77466015D01*
X73039778Y-77500500D01*
X73039779Y-77500500D01*
X73260221Y-77500500D01*
X73260222Y-77500500D01*
X73477951Y-77466015D01*
X73687606Y-77397895D01*
X73884022Y-77297815D01*
X74062365Y-77168242D01*
X74218242Y-77012365D01*
X74299991Y-76899845D01*
X74355320Y-76857180D01*
X74424933Y-76851201D01*
X74486728Y-76883806D01*
X74498582Y-76897485D01*
X74498932Y-76897513D01*
X75085387Y-76311058D01*
X75090889Y-76331591D01*
X75169881Y-76468408D01*
X75281592Y-76580119D01*
X75418409Y-76659111D01*
X75438939Y-76664612D01*
X74852485Y-77251065D01*
X74852485Y-77251066D01*
X74916243Y-77297388D01*
X75112589Y-77397432D01*
X75322164Y-77465526D01*
X75539819Y-77500000D01*
X75760181Y-77500000D01*
X75977835Y-77465526D01*
X76187410Y-77397432D01*
X76383760Y-77297386D01*
X76447513Y-77251066D01*
X76447514Y-77251066D01*
X75861059Y-76664612D01*
X75881591Y-76659111D01*
X76018408Y-76580119D01*
X76130119Y-76468408D01*
X76209111Y-76331591D01*
X76214612Y-76311060D01*
X76801066Y-76897514D01*
X76802547Y-76897397D01*
X76854700Y-76857180D01*
X76924314Y-76851200D01*
X76986109Y-76883806D01*
X77000008Y-76899846D01*
X77081752Y-77012359D01*
X77237636Y-77168243D01*
X77237641Y-77168247D01*
X77351632Y-77251065D01*
X77415978Y-77297815D01*
X77544375Y-77363237D01*
X77612393Y-77397895D01*
X77612396Y-77397896D01*
X77717221Y-77431955D01*
X77822049Y-77466015D01*
X78039778Y-77500500D01*
X78039779Y-77500500D01*
X78260221Y-77500500D01*
X78260222Y-77500500D01*
X78477951Y-77466015D01*
X78687606Y-77397895D01*
X78884022Y-77297815D01*
X79062365Y-77168242D01*
X79218242Y-77012365D01*
X79347815Y-76834022D01*
X79447895Y-76637606D01*
X79516015Y-76427951D01*
X79550500Y-76210222D01*
X79550500Y-75989778D01*
X79516015Y-75772049D01*
X79481955Y-75667221D01*
X79447896Y-75562396D01*
X79447895Y-75562393D01*
X79413237Y-75494375D01*
X79347815Y-75365978D01*
X79299989Y-75300151D01*
X79218247Y-75187641D01*
X79218243Y-75187636D01*
X79062363Y-75031756D01*
X79062358Y-75031752D01*
X78884025Y-74902187D01*
X78884024Y-74902186D01*
X78884022Y-74902185D01*
X78821096Y-74870122D01*
X78687606Y-74802104D01*
X78687603Y-74802103D01*
X78477952Y-74733985D01*
X78369086Y-74716742D01*
X78260222Y-74699500D01*
X78039778Y-74699500D01*
X77967201Y-74710995D01*
X77822047Y-74733985D01*
X77612396Y-74802103D01*
X77612393Y-74802104D01*
X77415974Y-74902187D01*
X77237641Y-75031752D01*
X77237636Y-75031756D01*
X77081756Y-75187636D01*
X77000008Y-75300153D01*
X76944678Y-75342818D01*
X76875064Y-75348797D01*
X76813269Y-75316191D01*
X76801416Y-75302513D01*
X76801065Y-75302485D01*
X76214612Y-75888939D01*
X76209111Y-75868409D01*
X76130119Y-75731592D01*
X76018408Y-75619881D01*
X75881591Y-75540889D01*
X75861057Y-75535387D01*
X76447513Y-74948932D01*
X76383756Y-74902611D01*
X76187410Y-74802567D01*
X75977835Y-74734473D01*
X75760181Y-74700000D01*
X75539819Y-74700000D01*
X75322164Y-74734473D01*
X75112589Y-74802567D01*
X74916233Y-74902616D01*
X74852485Y-74948931D01*
X74852485Y-74948932D01*
X75438940Y-75535387D01*
X75418409Y-75540889D01*
X75281592Y-75619881D01*
X75169881Y-75731592D01*
X75090889Y-75868409D01*
X75085387Y-75888940D01*
X74498932Y-75302485D01*
X74497448Y-75302602D01*
X74445296Y-75342817D01*
X74375682Y-75348796D01*
X74313887Y-75316190D01*
X74299990Y-75300151D01*
X74218247Y-75187641D01*
X74218243Y-75187636D01*
X74062363Y-75031756D01*
X74062358Y-75031752D01*
X73884025Y-74902187D01*
X73884024Y-74902186D01*
X73884022Y-74902185D01*
X73821096Y-74870122D01*
X73687606Y-74802104D01*
X73687603Y-74802103D01*
X73477952Y-74733985D01*
X73369086Y-74716742D01*
X73260222Y-74699500D01*
X73039778Y-74699500D01*
X72967201Y-74710995D01*
X72822047Y-74733985D01*
X72612396Y-74802103D01*
X72612393Y-74802104D01*
X72415974Y-74902187D01*
X72237641Y-75031752D01*
X72237636Y-75031756D01*
X72081756Y-75187636D01*
X72081752Y-75187641D01*
X71952187Y-75365974D01*
X71852104Y-75562393D01*
X71852103Y-75562396D01*
X71783985Y-75772047D01*
X71749500Y-75989778D01*
X67500500Y-75989778D01*
X67500500Y-71693713D01*
X94399500Y-71693713D01*
X94399500Y-71906286D01*
X94432753Y-72116239D01*
X94498444Y-72318414D01*
X94594951Y-72507820D01*
X94719890Y-72679786D01*
X94870213Y-72830109D01*
X95042179Y-72955048D01*
X95042181Y-72955049D01*
X95042184Y-72955051D01*
X95231588Y-73051557D01*
X95433757Y-73117246D01*
X95643713Y-73150500D01*
X95643714Y-73150500D01*
X95856286Y-73150500D01*
X95856287Y-73150500D01*
X96066243Y-73117246D01*
X96268412Y-73051557D01*
X96457816Y-72955051D01*
X96479789Y-72939086D01*
X96629786Y-72830109D01*
X96629788Y-72830106D01*
X96629792Y-72830104D01*
X96780104Y-72679792D01*
X96780106Y-72679788D01*
X96780109Y-72679786D01*
X96905048Y-72507820D01*
X96905047Y-72507820D01*
X96905051Y-72507816D01*
X97001557Y-72318412D01*
X97067246Y-72116243D01*
X97100500Y-71906287D01*
X97100500Y-71693713D01*
X97067246Y-71483757D01*
X97001557Y-71281588D01*
X96905051Y-71092184D01*
X96905049Y-71092181D01*
X96905048Y-71092179D01*
X96780109Y-70920213D01*
X96629786Y-70769890D01*
X96457820Y-70644951D01*
X96268414Y-70548444D01*
X96268413Y-70548443D01*
X96268412Y-70548443D01*
X96066243Y-70482754D01*
X96066241Y-70482753D01*
X96066240Y-70482753D01*
X95904957Y-70457208D01*
X95856287Y-70449500D01*
X95643713Y-70449500D01*
X95595042Y-70457208D01*
X95433760Y-70482753D01*
X95231585Y-70548444D01*
X95042179Y-70644951D01*
X94870213Y-70769890D01*
X94719890Y-70920213D01*
X94594951Y-71092179D01*
X94498444Y-71281585D01*
X94432753Y-71483760D01*
X94399500Y-71693713D01*
X67500500Y-71693713D01*
X67500500Y-67968872D01*
X67949500Y-67968872D01*
X67949500Y-69231127D01*
X67976123Y-69433339D01*
X67983730Y-69491116D01*
X68051602Y-69744418D01*
X68051605Y-69744428D01*
X68151953Y-69986690D01*
X68151958Y-69986700D01*
X68283075Y-70213803D01*
X68442718Y-70421851D01*
X68442726Y-70421860D01*
X68628140Y-70607274D01*
X68628148Y-70607281D01*
X68836196Y-70766924D01*
X69063299Y-70898041D01*
X69063309Y-70898046D01*
X69305571Y-70998394D01*
X69305581Y-70998398D01*
X69558884Y-71066270D01*
X69818880Y-71100500D01*
X69818887Y-71100500D01*
X70081113Y-71100500D01*
X70081120Y-71100500D01*
X70341116Y-71066270D01*
X70594419Y-70998398D01*
X70836697Y-70898043D01*
X71063803Y-70766924D01*
X71271851Y-70607282D01*
X71271855Y-70607277D01*
X71271860Y-70607274D01*
X71457274Y-70421860D01*
X71457277Y-70421855D01*
X71457282Y-70421851D01*
X71616924Y-70213803D01*
X71748043Y-69986697D01*
X71848398Y-69744419D01*
X71916270Y-69491116D01*
X71950500Y-69231120D01*
X71950500Y-67968880D01*
X71950499Y-67968872D01*
X79399500Y-67968872D01*
X79399500Y-69231127D01*
X79426123Y-69433339D01*
X79433730Y-69491116D01*
X79501602Y-69744418D01*
X79501605Y-69744428D01*
X79601953Y-69986690D01*
X79601958Y-69986700D01*
X79733075Y-70213803D01*
X79892718Y-70421851D01*
X79892726Y-70421860D01*
X80078140Y-70607274D01*
X80078148Y-70607281D01*
X80286196Y-70766924D01*
X80513299Y-70898041D01*
X80513309Y-70898046D01*
X80755571Y-70998394D01*
X80755581Y-70998398D01*
X81008884Y-71066270D01*
X81268880Y-71100500D01*
X81268887Y-71100500D01*
X81531113Y-71100500D01*
X81531120Y-71100500D01*
X81791116Y-71066270D01*
X82044419Y-70998398D01*
X82286697Y-70898043D01*
X82513803Y-70766924D01*
X82721851Y-70607282D01*
X82721855Y-70607277D01*
X82721860Y-70607274D01*
X82907274Y-70421860D01*
X82907277Y-70421855D01*
X82907282Y-70421851D01*
X83066924Y-70213803D01*
X83198043Y-69986697D01*
X83298398Y-69744419D01*
X83366270Y-69491116D01*
X83400500Y-69231120D01*
X83400500Y-67968880D01*
X83366270Y-67708884D01*
X83298398Y-67455581D01*
X83279639Y-67410292D01*
X83198046Y-67213309D01*
X83198041Y-67213299D01*
X83066924Y-66986196D01*
X83017499Y-66921786D01*
X82940280Y-66821153D01*
X91349500Y-66821153D01*
X91349500Y-66978846D01*
X91380261Y-67133489D01*
X91380264Y-67133501D01*
X91440602Y-67279172D01*
X91440609Y-67279185D01*
X91528210Y-67410288D01*
X91528213Y-67410292D01*
X91639707Y-67521786D01*
X91639711Y-67521789D01*
X91770814Y-67609390D01*
X91770827Y-67609397D01*
X91916498Y-67669735D01*
X91916503Y-67669737D01*
X92071153Y-67700499D01*
X92071156Y-67700500D01*
X92071158Y-67700500D01*
X92228844Y-67700500D01*
X92228845Y-67700499D01*
X92383497Y-67669737D01*
X92529179Y-67609394D01*
X92660289Y-67521789D01*
X92771789Y-67410289D01*
X92859394Y-67279179D01*
X92869191Y-67255524D01*
X92896070Y-67215296D01*
X93890212Y-66221153D01*
X98549500Y-66221153D01*
X98549500Y-66378846D01*
X98580261Y-66533489D01*
X98580264Y-66533501D01*
X98640602Y-66679172D01*
X98640609Y-66679185D01*
X98728210Y-66810288D01*
X98728213Y-66810292D01*
X98839707Y-66921786D01*
X98839711Y-66921789D01*
X98970814Y-67009390D01*
X98970827Y-67009397D01*
X99116498Y-67069735D01*
X99116503Y-67069737D01*
X99271153Y-67100499D01*
X99271156Y-67100500D01*
X99271158Y-67100500D01*
X99428844Y-67100500D01*
X99428845Y-67100499D01*
X99583497Y-67069737D01*
X99729179Y-67009394D01*
X99860289Y-66921789D01*
X99971789Y-66810289D01*
X100059394Y-66679179D01*
X100119737Y-66533497D01*
X100148339Y-66389707D01*
X100150638Y-66378150D01*
X100183023Y-66316239D01*
X100184518Y-66314716D01*
X101464662Y-65034572D01*
X101525983Y-65001089D01*
X101528150Y-65000638D01*
X101586085Y-64989113D01*
X101683497Y-64969737D01*
X101829179Y-64909394D01*
X101960289Y-64821789D01*
X102071789Y-64710289D01*
X102159394Y-64579179D01*
X102219737Y-64433497D01*
X102250500Y-64278842D01*
X102250500Y-64121158D01*
X102250500Y-64121155D01*
X102250499Y-64121153D01*
X102224531Y-63990606D01*
X102219737Y-63966503D01*
X102219735Y-63966498D01*
X102159397Y-63820827D01*
X102159390Y-63820814D01*
X102071789Y-63689711D01*
X102071786Y-63689707D01*
X101960292Y-63578213D01*
X101960288Y-63578210D01*
X101829185Y-63490609D01*
X101829172Y-63490602D01*
X101683501Y-63430264D01*
X101683489Y-63430261D01*
X101528845Y-63399500D01*
X101528842Y-63399500D01*
X101371158Y-63399500D01*
X101371155Y-63399500D01*
X101216510Y-63430261D01*
X101216498Y-63430264D01*
X101070827Y-63490602D01*
X101070814Y-63490609D01*
X100939711Y-63578210D01*
X100939707Y-63578213D01*
X100828213Y-63689707D01*
X100828210Y-63689711D01*
X100740609Y-63820814D01*
X100740602Y-63820827D01*
X100680264Y-63966498D01*
X100680261Y-63966508D01*
X100649361Y-64121850D01*
X100616976Y-64183761D01*
X100615425Y-64185339D01*
X99335339Y-65465425D01*
X99274016Y-65498910D01*
X99271850Y-65499361D01*
X99116508Y-65530261D01*
X99116498Y-65530264D01*
X98970827Y-65590602D01*
X98970814Y-65590609D01*
X98839711Y-65678210D01*
X98839707Y-65678213D01*
X98728213Y-65789707D01*
X98728210Y-65789711D01*
X98640609Y-65920814D01*
X98640602Y-65920827D01*
X98580264Y-66066498D01*
X98580261Y-66066510D01*
X98549500Y-66221153D01*
X93890212Y-66221153D01*
X94739239Y-65372126D01*
X94758023Y-65356711D01*
X94810289Y-65321789D01*
X94921789Y-65210289D01*
X95009394Y-65079179D01*
X95069737Y-64933497D01*
X95100500Y-64778842D01*
X95100500Y-64621158D01*
X95100500Y-64621155D01*
X95100499Y-64621153D01*
X95069738Y-64466510D01*
X95069737Y-64466503D01*
X95056062Y-64433489D01*
X95009397Y-64320827D01*
X95009390Y-64320814D01*
X94921789Y-64189711D01*
X94921786Y-64189707D01*
X94810292Y-64078213D01*
X94810288Y-64078210D01*
X94679185Y-63990609D01*
X94679172Y-63990602D01*
X94533501Y-63930264D01*
X94533489Y-63930261D01*
X94378845Y-63899500D01*
X94378842Y-63899500D01*
X94221158Y-63899500D01*
X94221155Y-63899500D01*
X94066510Y-63930261D01*
X94066498Y-63930264D01*
X93920827Y-63990602D01*
X93920814Y-63990609D01*
X93789711Y-64078210D01*
X93789707Y-64078213D01*
X93678213Y-64189707D01*
X93678207Y-64189715D01*
X93590607Y-64320818D01*
X93590606Y-64320819D01*
X93545451Y-64429832D01*
X93518571Y-64470059D01*
X91834703Y-66153927D01*
X91794480Y-66180805D01*
X91770819Y-66190606D01*
X91770818Y-66190607D01*
X91639715Y-66278207D01*
X91639707Y-66278213D01*
X91528213Y-66389707D01*
X91528210Y-66389711D01*
X91440609Y-66520814D01*
X91440602Y-66520827D01*
X91380264Y-66666498D01*
X91380261Y-66666510D01*
X91349500Y-66821153D01*
X82940280Y-66821153D01*
X82907282Y-66778149D01*
X82907276Y-66778143D01*
X82907273Y-66778139D01*
X82721860Y-66592726D01*
X82721851Y-66592718D01*
X82513803Y-66433075D01*
X82286700Y-66301958D01*
X82286690Y-66301953D01*
X82044428Y-66201605D01*
X82044421Y-66201603D01*
X82044419Y-66201602D01*
X81791116Y-66133730D01*
X81733339Y-66126123D01*
X81531127Y-66099500D01*
X81531120Y-66099500D01*
X81268880Y-66099500D01*
X81268872Y-66099500D01*
X81037772Y-66129926D01*
X81008884Y-66133730D01*
X80868413Y-66171369D01*
X80755581Y-66201602D01*
X80755571Y-66201605D01*
X80513309Y-66301953D01*
X80513299Y-66301958D01*
X80286196Y-66433075D01*
X80078148Y-66592718D01*
X79892718Y-66778148D01*
X79733075Y-66986196D01*
X79601958Y-67213299D01*
X79601953Y-67213309D01*
X79501605Y-67455571D01*
X79501602Y-67455581D01*
X79435977Y-67700500D01*
X79433730Y-67708885D01*
X79399500Y-67968872D01*
X71950499Y-67968872D01*
X71916270Y-67708884D01*
X71848398Y-67455581D01*
X71829639Y-67410292D01*
X71748046Y-67213309D01*
X71748041Y-67213299D01*
X71616924Y-66986196D01*
X71457281Y-66778148D01*
X71457274Y-66778140D01*
X71271860Y-66592726D01*
X71271851Y-66592718D01*
X71063803Y-66433075D01*
X70836700Y-66301958D01*
X70836690Y-66301953D01*
X70594428Y-66201605D01*
X70594421Y-66201603D01*
X70594419Y-66201602D01*
X70341116Y-66133730D01*
X70283339Y-66126123D01*
X70081127Y-66099500D01*
X70081120Y-66099500D01*
X69818880Y-66099500D01*
X69818872Y-66099500D01*
X69587772Y-66129926D01*
X69558884Y-66133730D01*
X69418413Y-66171369D01*
X69305581Y-66201602D01*
X69305571Y-66201605D01*
X69063309Y-66301953D01*
X69063299Y-66301958D01*
X68836196Y-66433075D01*
X68628148Y-66592718D01*
X68442718Y-66778148D01*
X68283075Y-66986196D01*
X68151958Y-67213299D01*
X68151953Y-67213309D01*
X68051605Y-67455571D01*
X68051602Y-67455581D01*
X67985977Y-67700500D01*
X67983730Y-67708885D01*
X67949500Y-67968872D01*
X67500500Y-67968872D01*
X67500500Y-58773574D01*
X67520185Y-58706535D01*
X67572989Y-58660780D01*
X67642147Y-58650836D01*
X67705703Y-58679861D01*
X67743477Y-58738639D01*
X67746117Y-58749383D01*
X67773427Y-58886681D01*
X67773430Y-58886693D01*
X67848807Y-59068671D01*
X67848814Y-59068684D01*
X67958248Y-59232462D01*
X67958251Y-59232466D01*
X68097533Y-59371748D01*
X68097537Y-59371751D01*
X68261315Y-59481185D01*
X68261328Y-59481192D01*
X68443306Y-59556569D01*
X68443318Y-59556572D01*
X68636504Y-59594999D01*
X68636508Y-59595000D01*
X68885000Y-59595000D01*
X68885000Y-58895000D01*
X69385000Y-58895000D01*
X69385000Y-59595000D01*
X69633492Y-59595000D01*
X69633495Y-59594999D01*
X69826681Y-59556572D01*
X69826693Y-59556569D01*
X70008671Y-59481192D01*
X70008684Y-59481185D01*
X70172462Y-59371751D01*
X70172466Y-59371748D01*
X70311748Y-59232466D01*
X70311751Y-59232462D01*
X70421185Y-59068684D01*
X70421192Y-59068671D01*
X70496569Y-58886692D01*
X70496569Y-58886690D01*
X70504862Y-58845000D01*
X69701988Y-58845000D01*
X69719205Y-58835060D01*
X69775060Y-58779205D01*
X69814556Y-58710796D01*
X69835000Y-58634496D01*
X69835000Y-58555504D01*
X69814556Y-58479204D01*
X69775060Y-58410795D01*
X69719205Y-58354940D01*
X69701988Y-58345000D01*
X70504862Y-58345000D01*
X71795138Y-58345000D01*
X72598012Y-58345000D01*
X72580795Y-58354940D01*
X72524940Y-58410795D01*
X72485444Y-58479204D01*
X72465000Y-58555504D01*
X72465000Y-58634496D01*
X72485444Y-58710796D01*
X72524940Y-58779205D01*
X72580795Y-58835060D01*
X72598012Y-58845000D01*
X71795138Y-58845000D01*
X71803430Y-58886690D01*
X71803430Y-58886692D01*
X71878807Y-59068671D01*
X71878814Y-59068684D01*
X71988248Y-59232462D01*
X71988251Y-59232466D01*
X72127533Y-59371748D01*
X72127537Y-59371751D01*
X72291315Y-59481185D01*
X72291328Y-59481192D01*
X72473306Y-59556569D01*
X72473318Y-59556572D01*
X72666504Y-59594999D01*
X72666508Y-59595000D01*
X73065000Y-59595000D01*
X73065000Y-58895000D01*
X73565000Y-58895000D01*
X73565000Y-59595000D01*
X73963492Y-59595000D01*
X73963495Y-59594999D01*
X74156681Y-59556572D01*
X74156693Y-59556569D01*
X74338671Y-59481192D01*
X74338684Y-59481185D01*
X74502462Y-59371751D01*
X74502466Y-59371748D01*
X74641748Y-59232466D01*
X74641751Y-59232462D01*
X74751185Y-59068684D01*
X74751192Y-59068671D01*
X74826569Y-58886692D01*
X74826569Y-58886690D01*
X74834862Y-58845000D01*
X74031988Y-58845000D01*
X74049205Y-58835060D01*
X74105060Y-58779205D01*
X74144556Y-58710796D01*
X74165000Y-58634496D01*
X74165000Y-58555504D01*
X74144556Y-58479204D01*
X74105060Y-58410795D01*
X74049205Y-58354940D01*
X74031988Y-58345000D01*
X74834862Y-58345000D01*
X74826569Y-58303309D01*
X74826569Y-58303307D01*
X74751192Y-58121328D01*
X74751185Y-58121315D01*
X74641751Y-57957537D01*
X74641748Y-57957533D01*
X74502466Y-57818251D01*
X74502462Y-57818248D01*
X74338684Y-57708814D01*
X74338671Y-57708807D01*
X74156693Y-57633430D01*
X74156681Y-57633427D01*
X73963495Y-57595000D01*
X73565000Y-57595000D01*
X73565000Y-58295000D01*
X73065000Y-58295000D01*
X73065000Y-57756784D01*
X73084685Y-57689745D01*
X73127000Y-57649397D01*
X73168365Y-57625515D01*
X73275515Y-57518365D01*
X73276372Y-57516879D01*
X73296721Y-57481637D01*
X73351279Y-57387138D01*
X73351281Y-57387135D01*
X73390500Y-57240766D01*
X73390500Y-57089234D01*
X73351281Y-56942865D01*
X73275515Y-56811635D01*
X73168365Y-56704485D01*
X73102750Y-56666602D01*
X73037136Y-56628719D01*
X72963950Y-56609109D01*
X72890766Y-56589500D01*
X72739234Y-56589500D01*
X72592863Y-56628719D01*
X72461635Y-56704485D01*
X72461632Y-56704487D01*
X72354487Y-56811632D01*
X72354485Y-56811635D01*
X72278719Y-56942863D01*
X72239500Y-57089234D01*
X72239500Y-57240765D01*
X72278719Y-57387136D01*
X72318153Y-57455437D01*
X72354485Y-57518365D01*
X72354486Y-57518366D01*
X72358549Y-57525403D01*
X72356346Y-57526674D01*
X72376959Y-57579983D01*
X72362923Y-57648428D01*
X72314112Y-57698420D01*
X72300845Y-57704866D01*
X72291324Y-57708809D01*
X72291315Y-57708814D01*
X72127537Y-57818248D01*
X72127533Y-57818251D01*
X71988251Y-57957533D01*
X71988248Y-57957537D01*
X71878814Y-58121315D01*
X71878807Y-58121328D01*
X71803430Y-58303307D01*
X71803430Y-58303309D01*
X71795138Y-58345000D01*
X70504862Y-58345000D01*
X70496569Y-58303309D01*
X70496569Y-58303307D01*
X70421192Y-58121328D01*
X70421185Y-58121315D01*
X70311751Y-57957537D01*
X70311748Y-57957533D01*
X70172466Y-57818251D01*
X70172462Y-57818248D01*
X70008684Y-57708814D01*
X70008671Y-57708807D01*
X69826693Y-57633430D01*
X69826681Y-57633427D01*
X69633495Y-57595000D01*
X69385000Y-57595000D01*
X69385000Y-58295000D01*
X68885000Y-58295000D01*
X68885000Y-57595000D01*
X68636504Y-57595000D01*
X68443318Y-57633427D01*
X68443306Y-57633430D01*
X68261328Y-57708807D01*
X68261315Y-57708814D01*
X68097537Y-57818248D01*
X68097533Y-57818251D01*
X67958251Y-57957533D01*
X67958248Y-57957537D01*
X67848814Y-58121315D01*
X67848807Y-58121328D01*
X67773430Y-58303306D01*
X67773427Y-58303318D01*
X67746117Y-58440616D01*
X67713732Y-58502527D01*
X67653017Y-58537101D01*
X67583247Y-58533362D01*
X67526575Y-58492496D01*
X67500994Y-58427477D01*
X67500500Y-58416425D01*
X67500500Y-53771153D01*
X71239500Y-53771153D01*
X71239500Y-53928846D01*
X71270261Y-54083489D01*
X71270264Y-54083501D01*
X71330602Y-54229172D01*
X71330609Y-54229185D01*
X71418210Y-54360289D01*
X71421353Y-54364118D01*
X71431056Y-54386964D01*
X71444477Y-54407848D01*
X71446806Y-54424049D01*
X71448666Y-54428428D01*
X71449500Y-54442783D01*
X71449500Y-54680234D01*
X71429815Y-54747273D01*
X71428602Y-54749125D01*
X71340609Y-54880814D01*
X71340602Y-54880827D01*
X71280264Y-55026498D01*
X71280261Y-55026510D01*
X71249500Y-55181153D01*
X71249500Y-55338846D01*
X71280261Y-55493489D01*
X71280264Y-55493501D01*
X71340602Y-55639172D01*
X71340609Y-55639185D01*
X71428210Y-55770288D01*
X71428213Y-55770292D01*
X71539707Y-55881786D01*
X71539711Y-55881789D01*
X71670814Y-55969390D01*
X71670827Y-55969397D01*
X71816498Y-56029735D01*
X71816503Y-56029737D01*
X71971153Y-56060499D01*
X71971156Y-56060500D01*
X71971158Y-56060500D01*
X72128844Y-56060500D01*
X72128845Y-56060499D01*
X72283497Y-56029737D01*
X72429179Y-55969394D01*
X72560289Y-55881789D01*
X72671789Y-55770289D01*
X72759394Y-55639179D01*
X72819737Y-55493497D01*
X72850500Y-55338842D01*
X72850500Y-55181158D01*
X72850500Y-55181155D01*
X72850499Y-55181153D01*
X72819738Y-55026510D01*
X72819737Y-55026503D01*
X72819735Y-55026498D01*
X72759397Y-54880827D01*
X72759390Y-54880814D01*
X72671398Y-54749125D01*
X72650520Y-54682447D01*
X72650500Y-54680234D01*
X72650500Y-54414799D01*
X72670185Y-54347760D01*
X72671398Y-54345908D01*
X72749390Y-54229185D01*
X72749390Y-54229184D01*
X72749394Y-54229179D01*
X72809737Y-54083497D01*
X72840500Y-53928842D01*
X72840500Y-53771158D01*
X72840500Y-53771155D01*
X72840499Y-53771153D01*
X72809738Y-53616510D01*
X72809737Y-53616503D01*
X72807163Y-53610288D01*
X72749397Y-53470827D01*
X72749390Y-53470814D01*
X72661789Y-53339711D01*
X72661786Y-53339707D01*
X72550292Y-53228213D01*
X72550288Y-53228210D01*
X72419185Y-53140609D01*
X72419173Y-53140602D01*
X72392674Y-53129627D01*
X72273501Y-53080264D01*
X72273489Y-53080261D01*
X72118845Y-53049500D01*
X72118842Y-53049500D01*
X71961158Y-53049500D01*
X71961155Y-53049500D01*
X71806510Y-53080261D01*
X71806498Y-53080264D01*
X71660827Y-53140602D01*
X71660814Y-53140609D01*
X71529711Y-53228210D01*
X71529707Y-53228213D01*
X71418213Y-53339707D01*
X71418210Y-53339711D01*
X71330609Y-53470814D01*
X71330602Y-53470827D01*
X71270264Y-53616498D01*
X71270261Y-53616510D01*
X71239500Y-53771153D01*
X67500500Y-53771153D01*
X67500500Y-53021153D01*
X76149500Y-53021153D01*
X76149500Y-53178846D01*
X76180261Y-53333489D01*
X76180264Y-53333501D01*
X76240602Y-53479172D01*
X76240609Y-53479185D01*
X76328210Y-53610288D01*
X76328213Y-53610292D01*
X76439707Y-53721786D01*
X76439711Y-53721789D01*
X76570814Y-53809390D01*
X76570827Y-53809397D01*
X76716498Y-53869735D01*
X76716503Y-53869737D01*
X76871153Y-53900499D01*
X76871156Y-53900500D01*
X76871158Y-53900500D01*
X77028844Y-53900500D01*
X77028845Y-53900499D01*
X77183497Y-53869737D01*
X77329179Y-53809394D01*
X77460289Y-53721789D01*
X77571789Y-53610289D01*
X77659394Y-53479179D01*
X77662854Y-53470827D01*
X77666467Y-53462102D01*
X77719737Y-53333497D01*
X77733079Y-53266416D01*
X77765463Y-53204509D01*
X77766958Y-53202986D01*
X79255276Y-51714670D01*
X79300861Y-51646446D01*
X79326464Y-51608129D01*
X79346364Y-51560086D01*
X79375501Y-51489744D01*
X79388735Y-51423212D01*
X79394767Y-51392885D01*
X79413279Y-51348193D01*
X79459394Y-51279179D01*
X79519737Y-51133497D01*
X79550500Y-50978842D01*
X79550500Y-50821158D01*
X79550500Y-50821155D01*
X79550499Y-50821153D01*
X79541784Y-50777340D01*
X79519737Y-50666503D01*
X79489070Y-50592466D01*
X79459397Y-50520827D01*
X79459390Y-50520814D01*
X79371789Y-50389711D01*
X79371786Y-50389707D01*
X79260292Y-50278213D01*
X79260288Y-50278210D01*
X79129185Y-50190609D01*
X79129172Y-50190602D01*
X78983501Y-50130264D01*
X78983489Y-50130261D01*
X78828845Y-50099500D01*
X78828842Y-50099500D01*
X78671158Y-50099500D01*
X78671155Y-50099500D01*
X78516510Y-50130261D01*
X78516498Y-50130264D01*
X78370827Y-50190602D01*
X78370814Y-50190609D01*
X78239711Y-50278210D01*
X78239707Y-50278213D01*
X78128213Y-50389707D01*
X78128210Y-50389711D01*
X78040609Y-50520814D01*
X78040602Y-50520827D01*
X77980264Y-50666498D01*
X77980261Y-50666510D01*
X77949500Y-50821153D01*
X77949500Y-50978846D01*
X77970035Y-51082081D01*
X77963808Y-51151672D01*
X77936099Y-51193953D01*
X76847068Y-52282984D01*
X76785745Y-52316469D01*
X76783579Y-52316920D01*
X76716508Y-52330261D01*
X76716498Y-52330264D01*
X76570827Y-52390602D01*
X76570814Y-52390609D01*
X76439711Y-52478210D01*
X76439707Y-52478213D01*
X76328213Y-52589707D01*
X76328210Y-52589711D01*
X76240609Y-52720814D01*
X76240602Y-52720827D01*
X76180264Y-52866498D01*
X76180261Y-52866510D01*
X76149500Y-53021153D01*
X67500500Y-53021153D01*
X67500500Y-50133574D01*
X67520185Y-50066535D01*
X67572989Y-50020780D01*
X67642147Y-50010836D01*
X67705703Y-50039861D01*
X67743477Y-50098639D01*
X67746117Y-50109383D01*
X67773427Y-50246681D01*
X67773430Y-50246693D01*
X67848807Y-50428671D01*
X67848814Y-50428684D01*
X67958248Y-50592462D01*
X67958251Y-50592466D01*
X68097533Y-50731748D01*
X68097537Y-50731751D01*
X68261315Y-50841185D01*
X68261328Y-50841192D01*
X68443306Y-50916569D01*
X68443318Y-50916572D01*
X68636504Y-50954999D01*
X68636508Y-50955000D01*
X68885000Y-50955000D01*
X68885000Y-50255000D01*
X69385000Y-50255000D01*
X69385000Y-50955000D01*
X69633492Y-50955000D01*
X69633495Y-50954999D01*
X69826681Y-50916572D01*
X69826693Y-50916569D01*
X70008671Y-50841192D01*
X70008684Y-50841185D01*
X70172462Y-50731751D01*
X70172466Y-50731748D01*
X70311748Y-50592466D01*
X70311751Y-50592462D01*
X70421185Y-50428684D01*
X70421192Y-50428671D01*
X70496569Y-50246692D01*
X70496569Y-50246690D01*
X70504862Y-50205000D01*
X69701988Y-50205000D01*
X69719205Y-50195060D01*
X69775060Y-50139205D01*
X69814556Y-50070796D01*
X69835000Y-49994496D01*
X69835000Y-49915504D01*
X69814556Y-49839204D01*
X69775060Y-49770795D01*
X69719205Y-49714940D01*
X69701988Y-49705000D01*
X70504862Y-49705000D01*
X71795138Y-49705000D01*
X72598012Y-49705000D01*
X72580795Y-49714940D01*
X72524940Y-49770795D01*
X72485444Y-49839204D01*
X72465000Y-49915504D01*
X72465000Y-49994496D01*
X72485444Y-50070796D01*
X72524940Y-50139205D01*
X72580795Y-50195060D01*
X72598012Y-50205000D01*
X71795138Y-50205000D01*
X71803430Y-50246690D01*
X71803430Y-50246692D01*
X71878807Y-50428671D01*
X71878814Y-50428684D01*
X71988248Y-50592462D01*
X71988251Y-50592466D01*
X72127533Y-50731748D01*
X72127537Y-50731751D01*
X72291315Y-50841185D01*
X72291328Y-50841192D01*
X72300838Y-50845131D01*
X72355243Y-50888970D01*
X72377310Y-50955264D01*
X72360033Y-51022963D01*
X72356350Y-51028405D01*
X72278719Y-51162863D01*
X72239500Y-51309234D01*
X72239500Y-51460766D01*
X72247265Y-51489744D01*
X72278719Y-51607136D01*
X72313377Y-51667165D01*
X72354485Y-51738365D01*
X72461635Y-51845515D01*
X72592865Y-51921281D01*
X72739234Y-51960500D01*
X72739236Y-51960500D01*
X72890764Y-51960500D01*
X72890766Y-51960500D01*
X73037135Y-51921281D01*
X73168365Y-51845515D01*
X73275515Y-51738365D01*
X73351281Y-51607135D01*
X73390500Y-51460766D01*
X73390500Y-51309234D01*
X73351281Y-51162865D01*
X73275515Y-51031635D01*
X73168365Y-50924485D01*
X73152446Y-50915294D01*
X73126998Y-50900601D01*
X73078784Y-50850033D01*
X73065000Y-50793215D01*
X73065000Y-50255000D01*
X73565000Y-50255000D01*
X73565000Y-50955000D01*
X73963492Y-50955000D01*
X73963495Y-50954999D01*
X74156681Y-50916572D01*
X74156693Y-50916569D01*
X74338671Y-50841192D01*
X74338684Y-50841185D01*
X74502462Y-50731751D01*
X74502466Y-50731748D01*
X74641748Y-50592466D01*
X74641751Y-50592462D01*
X74751185Y-50428684D01*
X74751192Y-50428671D01*
X74826569Y-50246692D01*
X74826569Y-50246690D01*
X74834862Y-50205000D01*
X74031988Y-50205000D01*
X74049205Y-50195060D01*
X74105060Y-50139205D01*
X74144556Y-50070796D01*
X74165000Y-49994496D01*
X74165000Y-49915504D01*
X74144556Y-49839204D01*
X74105060Y-49770795D01*
X74049205Y-49714940D01*
X74031988Y-49705000D01*
X74834862Y-49705000D01*
X74826569Y-49663309D01*
X74826569Y-49663307D01*
X74784822Y-49562518D01*
X74767688Y-49521153D01*
X81299500Y-49521153D01*
X81299500Y-49678846D01*
X81330261Y-49833489D01*
X81330264Y-49833501D01*
X81390602Y-49979172D01*
X81390609Y-49979185D01*
X81478210Y-50110288D01*
X81478213Y-50110292D01*
X81589707Y-50221786D01*
X81589711Y-50221789D01*
X81720814Y-50309390D01*
X81720827Y-50309397D01*
X81858683Y-50366498D01*
X81866503Y-50369737D01*
X81931147Y-50382595D01*
X82021849Y-50400638D01*
X82083760Y-50433023D01*
X82085339Y-50434574D01*
X92713181Y-61062416D01*
X92746666Y-61123739D01*
X92749500Y-61150097D01*
X92749500Y-61178846D01*
X92780261Y-61333489D01*
X92780264Y-61333501D01*
X92840602Y-61479172D01*
X92840609Y-61479185D01*
X92928210Y-61610288D01*
X92928213Y-61610292D01*
X93039707Y-61721786D01*
X93039711Y-61721789D01*
X93170814Y-61809390D01*
X93170827Y-61809397D01*
X93316498Y-61869735D01*
X93316503Y-61869737D01*
X93471153Y-61900499D01*
X93471156Y-61900500D01*
X93471158Y-61900500D01*
X93628844Y-61900500D01*
X93628845Y-61900499D01*
X93783497Y-61869737D01*
X93929179Y-61809394D01*
X94060289Y-61721789D01*
X94171789Y-61610289D01*
X94259394Y-61479179D01*
X94319737Y-61333497D01*
X94350500Y-61178842D01*
X94350500Y-61021158D01*
X94350500Y-61021155D01*
X94350499Y-61021153D01*
X94328447Y-60910292D01*
X94319737Y-60866503D01*
X94283569Y-60779185D01*
X94259397Y-60720827D01*
X94259390Y-60720814D01*
X94171789Y-60589711D01*
X94171786Y-60589707D01*
X94060292Y-60478213D01*
X94060288Y-60478210D01*
X93929185Y-60390609D01*
X93929172Y-60390602D01*
X93783501Y-60330264D01*
X93783491Y-60330261D01*
X93690565Y-60311777D01*
X93628654Y-60279392D01*
X93627076Y-60277841D01*
X82934574Y-49585339D01*
X82901089Y-49524016D01*
X82900638Y-49521849D01*
X82869738Y-49366510D01*
X82869737Y-49366503D01*
X82849453Y-49317533D01*
X82809397Y-49220827D01*
X82809390Y-49220814D01*
X82721789Y-49089711D01*
X82721786Y-49089707D01*
X82610292Y-48978213D01*
X82610288Y-48978210D01*
X82479185Y-48890609D01*
X82479172Y-48890602D01*
X82333501Y-48830264D01*
X82333489Y-48830261D01*
X82178845Y-48799500D01*
X82178842Y-48799500D01*
X82021158Y-48799500D01*
X82021155Y-48799500D01*
X81866510Y-48830261D01*
X81866498Y-48830264D01*
X81720827Y-48890602D01*
X81720814Y-48890609D01*
X81589711Y-48978210D01*
X81589707Y-48978213D01*
X81478213Y-49089707D01*
X81478210Y-49089711D01*
X81390609Y-49220814D01*
X81390602Y-49220827D01*
X81330264Y-49366498D01*
X81330261Y-49366510D01*
X81299500Y-49521153D01*
X74767688Y-49521153D01*
X74751190Y-49481324D01*
X74751185Y-49481315D01*
X74641751Y-49317537D01*
X74641748Y-49317533D01*
X74502466Y-49178251D01*
X74502462Y-49178248D01*
X74338684Y-49068814D01*
X74338671Y-49068807D01*
X74156693Y-48993430D01*
X74156681Y-48993427D01*
X73963495Y-48955000D01*
X73565000Y-48955000D01*
X73565000Y-49655000D01*
X73065000Y-49655000D01*
X73065000Y-48955000D01*
X72666504Y-48955000D01*
X72473318Y-48993427D01*
X72473306Y-48993430D01*
X72291328Y-49068807D01*
X72291315Y-49068814D01*
X72127537Y-49178248D01*
X72127533Y-49178251D01*
X71988251Y-49317533D01*
X71988248Y-49317537D01*
X71878814Y-49481315D01*
X71878807Y-49481328D01*
X71803430Y-49663307D01*
X71803430Y-49663309D01*
X71795138Y-49705000D01*
X70504862Y-49705000D01*
X70496569Y-49663309D01*
X70496569Y-49663307D01*
X70421192Y-49481328D01*
X70421185Y-49481315D01*
X70311751Y-49317537D01*
X70311748Y-49317533D01*
X70172466Y-49178251D01*
X70172462Y-49178248D01*
X70008684Y-49068814D01*
X70008671Y-49068807D01*
X69826693Y-48993430D01*
X69826681Y-48993427D01*
X69633495Y-48955000D01*
X69385000Y-48955000D01*
X69385000Y-49655000D01*
X68885000Y-49655000D01*
X68885000Y-48955000D01*
X68636504Y-48955000D01*
X68443318Y-48993427D01*
X68443306Y-48993430D01*
X68261328Y-49068807D01*
X68261315Y-49068814D01*
X68097537Y-49178248D01*
X68097533Y-49178251D01*
X67958251Y-49317533D01*
X67958248Y-49317537D01*
X67848814Y-49481315D01*
X67848807Y-49481328D01*
X67773430Y-49663306D01*
X67773427Y-49663318D01*
X67746117Y-49800616D01*
X67713732Y-49862527D01*
X67653017Y-49897101D01*
X67583247Y-49893362D01*
X67526575Y-49852496D01*
X67500994Y-49787477D01*
X67500500Y-49776425D01*
X67500500Y-45003750D01*
X67500726Y-44996263D01*
X67506929Y-44893713D01*
X68649500Y-44893713D01*
X68649500Y-45106286D01*
X68681767Y-45310016D01*
X68682754Y-45316243D01*
X68748152Y-45517517D01*
X68748444Y-45518414D01*
X68844951Y-45707820D01*
X68969890Y-45879786D01*
X69120213Y-46030109D01*
X69292179Y-46155048D01*
X69292181Y-46155049D01*
X69292184Y-46155051D01*
X69481588Y-46251557D01*
X69683757Y-46317246D01*
X69893713Y-46350500D01*
X69893714Y-46350500D01*
X70106286Y-46350500D01*
X70106287Y-46350500D01*
X70316243Y-46317246D01*
X70518412Y-46251557D01*
X70604906Y-46207486D01*
X75324500Y-46207486D01*
X75324500Y-46392513D01*
X75353445Y-46575265D01*
X75410619Y-46751232D01*
X75410620Y-46751235D01*
X75494622Y-46916096D01*
X75603379Y-47065787D01*
X75734213Y-47196621D01*
X75883904Y-47305378D01*
X75964763Y-47346577D01*
X76048764Y-47389379D01*
X76048767Y-47389380D01*
X76133916Y-47417046D01*
X76224736Y-47446555D01*
X76407486Y-47475500D01*
X76407487Y-47475500D01*
X76592513Y-47475500D01*
X76592514Y-47475500D01*
X76775264Y-47446555D01*
X76951235Y-47389379D01*
X77116096Y-47305378D01*
X77265787Y-47196621D01*
X77396621Y-47065787D01*
X77399680Y-47061576D01*
X77455006Y-47018909D01*
X77524619Y-47012926D01*
X77586415Y-47045529D01*
X77600315Y-47061570D01*
X77603379Y-47065787D01*
X77734213Y-47196621D01*
X77883904Y-47305378D01*
X77964763Y-47346577D01*
X78048764Y-47389379D01*
X78048767Y-47389380D01*
X78133916Y-47417046D01*
X78224736Y-47446555D01*
X78407486Y-47475500D01*
X78407487Y-47475500D01*
X78592513Y-47475500D01*
X78592514Y-47475500D01*
X78775264Y-47446555D01*
X78951235Y-47389379D01*
X79116096Y-47305378D01*
X79265787Y-47196621D01*
X79396621Y-47065787D01*
X79454112Y-46986656D01*
X79457774Y-46982466D01*
X79474867Y-46971579D01*
X80100000Y-46346446D01*
X80100000Y-46352661D01*
X80127259Y-46454394D01*
X80179920Y-46545606D01*
X80254394Y-46620080D01*
X80345606Y-46672741D01*
X80447339Y-46700000D01*
X80453553Y-46700000D01*
X79863568Y-47289983D01*
X79863568Y-47289984D01*
X79884165Y-47304949D01*
X80048956Y-47388915D01*
X80048959Y-47388916D01*
X80224852Y-47446066D01*
X80407527Y-47475000D01*
X80592473Y-47475000D01*
X80775147Y-47446066D01*
X80951040Y-47388916D01*
X80951043Y-47388915D01*
X81115836Y-47304947D01*
X81115845Y-47304942D01*
X81136430Y-47289984D01*
X81136431Y-47289983D01*
X80546448Y-46700000D01*
X80552661Y-46700000D01*
X80654394Y-46672741D01*
X80745606Y-46620080D01*
X80820080Y-46545606D01*
X80872741Y-46454394D01*
X80900000Y-46352661D01*
X80900000Y-46346447D01*
X81514238Y-46960686D01*
X81549162Y-46991165D01*
X81600321Y-47061578D01*
X81603379Y-47065787D01*
X81734213Y-47196621D01*
X81883904Y-47305378D01*
X81964763Y-47346577D01*
X82048764Y-47389379D01*
X82048767Y-47389380D01*
X82133916Y-47417046D01*
X82224736Y-47446555D01*
X82407486Y-47475500D01*
X82407487Y-47475500D01*
X82592513Y-47475500D01*
X82592514Y-47475500D01*
X82731901Y-47453423D01*
X82801194Y-47462378D01*
X82838980Y-47488215D01*
X94763181Y-59412416D01*
X94796666Y-59473739D01*
X94799500Y-59500097D01*
X94799500Y-59820234D01*
X94779815Y-59887273D01*
X94778602Y-59889125D01*
X94690609Y-60020814D01*
X94690602Y-60020827D01*
X94630264Y-60166498D01*
X94630261Y-60166510D01*
X94599500Y-60321153D01*
X94599500Y-60478846D01*
X94630261Y-60633489D01*
X94630264Y-60633501D01*
X94690602Y-60779172D01*
X94690609Y-60779185D01*
X94778210Y-60910288D01*
X94778213Y-60910292D01*
X94889707Y-61021786D01*
X94889711Y-61021789D01*
X95020814Y-61109390D01*
X95020827Y-61109397D01*
X95089631Y-61137896D01*
X95166503Y-61169737D01*
X95321153Y-61200499D01*
X95321156Y-61200500D01*
X95321158Y-61200500D01*
X95478844Y-61200500D01*
X95478845Y-61200499D01*
X95633497Y-61169737D01*
X95779179Y-61109394D01*
X95910289Y-61021789D01*
X96021789Y-60910289D01*
X96109394Y-60779179D01*
X96168756Y-60635864D01*
X96180611Y-60621153D01*
X105699500Y-60621153D01*
X105699500Y-60778846D01*
X105730261Y-60933489D01*
X105730264Y-60933501D01*
X105790602Y-61079172D01*
X105790606Y-61079179D01*
X105828602Y-61136044D01*
X105849480Y-61202721D01*
X105849500Y-61204935D01*
X105849500Y-64995064D01*
X105829815Y-65062103D01*
X105828603Y-65063954D01*
X105790608Y-65120817D01*
X105790602Y-65120828D01*
X105730264Y-65266498D01*
X105730261Y-65266510D01*
X105699500Y-65421153D01*
X105699500Y-65578846D01*
X105730261Y-65733489D01*
X105730264Y-65733501D01*
X105790602Y-65879172D01*
X105790609Y-65879185D01*
X105878210Y-66010288D01*
X105878213Y-66010292D01*
X105989707Y-66121786D01*
X105989711Y-66121789D01*
X106120814Y-66209390D01*
X106120827Y-66209397D01*
X106266498Y-66269735D01*
X106266503Y-66269737D01*
X106421153Y-66300499D01*
X106421156Y-66300500D01*
X106421158Y-66300500D01*
X106578844Y-66300500D01*
X106578845Y-66300499D01*
X106733497Y-66269737D01*
X106879179Y-66209394D01*
X107010289Y-66121789D01*
X107121789Y-66010289D01*
X107209394Y-65879179D01*
X107269737Y-65733497D01*
X107300500Y-65578842D01*
X107300500Y-65421158D01*
X107300500Y-65421155D01*
X107300499Y-65421153D01*
X107269738Y-65266510D01*
X107269737Y-65266503D01*
X107209394Y-65120821D01*
X107171396Y-65063953D01*
X107150520Y-64997276D01*
X107150500Y-64995064D01*
X107150500Y-61204935D01*
X107170185Y-61137896D01*
X107171366Y-61136090D01*
X107209394Y-61079179D01*
X107269737Y-60933497D01*
X107300500Y-60778842D01*
X107300500Y-60621158D01*
X107300500Y-60621155D01*
X107300499Y-60621153D01*
X107290271Y-60569735D01*
X107269737Y-60466503D01*
X107238298Y-60390602D01*
X107209397Y-60320827D01*
X107209390Y-60320814D01*
X107121789Y-60189711D01*
X107121786Y-60189707D01*
X107010292Y-60078213D01*
X107010288Y-60078210D01*
X106879185Y-59990609D01*
X106879172Y-59990602D01*
X106733501Y-59930264D01*
X106733489Y-59930261D01*
X106578845Y-59899500D01*
X106578842Y-59899500D01*
X106421158Y-59899500D01*
X106421155Y-59899500D01*
X106266510Y-59930261D01*
X106266498Y-59930264D01*
X106120827Y-59990602D01*
X106120814Y-59990609D01*
X105989711Y-60078210D01*
X105989707Y-60078213D01*
X105878213Y-60189707D01*
X105878210Y-60189711D01*
X105790609Y-60320814D01*
X105790602Y-60320827D01*
X105730264Y-60466498D01*
X105730261Y-60466510D01*
X105699500Y-60621153D01*
X96180611Y-60621153D01*
X96212596Y-60581461D01*
X96235865Y-60568756D01*
X96379172Y-60509397D01*
X96379172Y-60509396D01*
X96379179Y-60509394D01*
X96510289Y-60421789D01*
X96621789Y-60310289D01*
X96709394Y-60179179D01*
X96769737Y-60033497D01*
X96800500Y-59878842D01*
X96800500Y-59721158D01*
X96800500Y-59721155D01*
X96800499Y-59721153D01*
X96775405Y-59594999D01*
X96769737Y-59566503D01*
X96769735Y-59566498D01*
X96709397Y-59420827D01*
X96709390Y-59420814D01*
X96621398Y-59289125D01*
X96600520Y-59222447D01*
X96600500Y-59220234D01*
X96600500Y-58839059D01*
X96600501Y-58839046D01*
X96600501Y-58670945D01*
X96600501Y-58670943D01*
X96559577Y-58518215D01*
X96509274Y-58431088D01*
X96480520Y-58381284D01*
X96368716Y-58269480D01*
X96368715Y-58269479D01*
X96364385Y-58265149D01*
X96364374Y-58265139D01*
X85986819Y-47887584D01*
X85953334Y-47826261D01*
X85950500Y-47799903D01*
X85950500Y-47761155D01*
X85950499Y-47761153D01*
X85919738Y-47606510D01*
X85919737Y-47606503D01*
X85870741Y-47488215D01*
X85859397Y-47460827D01*
X85859390Y-47460814D01*
X85771789Y-47329711D01*
X85771786Y-47329707D01*
X85686177Y-47244098D01*
X85652692Y-47182775D01*
X85657675Y-47113088D01*
X85669091Y-47082483D01*
X85675500Y-47022873D01*
X85675499Y-45577128D01*
X85670299Y-45528757D01*
X85669091Y-45517516D01*
X85618797Y-45382671D01*
X85618794Y-45382665D01*
X85572745Y-45321153D01*
X87399500Y-45321153D01*
X87399500Y-45478846D01*
X87430261Y-45633489D01*
X87430264Y-45633501D01*
X87490602Y-45779172D01*
X87490609Y-45779185D01*
X87578210Y-45910288D01*
X87578213Y-45910292D01*
X87689710Y-46021789D01*
X87810195Y-46102294D01*
X87820821Y-46109394D01*
X87844475Y-46119191D01*
X87884703Y-46146071D01*
X100663181Y-58924549D01*
X100696666Y-58985872D01*
X100699500Y-59012230D01*
X100699500Y-59495396D01*
X100690062Y-59542844D01*
X100680265Y-59566498D01*
X100680262Y-59566506D01*
X100680260Y-59566511D01*
X100649500Y-59721153D01*
X100649500Y-59878846D01*
X100680261Y-60033489D01*
X100680264Y-60033501D01*
X100740602Y-60179172D01*
X100740609Y-60179185D01*
X100828210Y-60310288D01*
X100828213Y-60310292D01*
X100939707Y-60421786D01*
X100939711Y-60421789D01*
X101070814Y-60509390D01*
X101070827Y-60509397D01*
X101216498Y-60569735D01*
X101216503Y-60569737D01*
X101371153Y-60600499D01*
X101371156Y-60600500D01*
X101371158Y-60600500D01*
X101528844Y-60600500D01*
X101528845Y-60600499D01*
X101683497Y-60569737D01*
X101829179Y-60509394D01*
X101960289Y-60421789D01*
X102071789Y-60310289D01*
X102159394Y-60179179D01*
X102219737Y-60033497D01*
X102250500Y-59878842D01*
X102250500Y-59721158D01*
X102250500Y-59721155D01*
X102250499Y-59721153D01*
X102219739Y-59566511D01*
X102219738Y-59566508D01*
X102219737Y-59566503D01*
X102209937Y-59542844D01*
X102200500Y-59495396D01*
X102200500Y-58576081D01*
X102194763Y-58547242D01*
X102194763Y-58547240D01*
X102171660Y-58431095D01*
X102171659Y-58431089D01*
X102171659Y-58431088D01*
X102115084Y-58294506D01*
X102115084Y-58294505D01*
X102082186Y-58245270D01*
X102080802Y-58243198D01*
X102032956Y-58171589D01*
X102032952Y-58171584D01*
X95743315Y-51881947D01*
X111000000Y-51881947D01*
X111000000Y-52118052D01*
X111036934Y-52351247D01*
X111109897Y-52575802D01*
X111217087Y-52786174D01*
X111277338Y-52869104D01*
X111277340Y-52869105D01*
X111935387Y-52211058D01*
X111940889Y-52231591D01*
X112019881Y-52368408D01*
X112131592Y-52480119D01*
X112268409Y-52559111D01*
X112288940Y-52564612D01*
X111630893Y-53222658D01*
X111713828Y-53282914D01*
X111924197Y-53390102D01*
X112148752Y-53463065D01*
X112148751Y-53463065D01*
X112381948Y-53500000D01*
X112618052Y-53500000D01*
X112851247Y-53463065D01*
X113075802Y-53390102D01*
X113286163Y-53282918D01*
X113286169Y-53282914D01*
X113369104Y-53222658D01*
X113369105Y-53222658D01*
X112711058Y-52564612D01*
X112731591Y-52559111D01*
X112868408Y-52480119D01*
X112980119Y-52368408D01*
X113059111Y-52231591D01*
X113064612Y-52211059D01*
X113722658Y-52869105D01*
X113722658Y-52869104D01*
X113782914Y-52786169D01*
X113782918Y-52786163D01*
X113890102Y-52575802D01*
X113963065Y-52351247D01*
X114000000Y-52118052D01*
X114000000Y-51881947D01*
X113963065Y-51648752D01*
X113890102Y-51424197D01*
X113782914Y-51213828D01*
X113722658Y-51130894D01*
X113722658Y-51130893D01*
X113064612Y-51788940D01*
X113059111Y-51768409D01*
X112980119Y-51631592D01*
X112868408Y-51519881D01*
X112731591Y-51440889D01*
X112711059Y-51435387D01*
X113369105Y-50777340D01*
X113369104Y-50777338D01*
X113286174Y-50717087D01*
X113075802Y-50609897D01*
X112851247Y-50536934D01*
X112851248Y-50536934D01*
X112618052Y-50500000D01*
X112381948Y-50500000D01*
X112148752Y-50536934D01*
X111924197Y-50609897D01*
X111713830Y-50717084D01*
X111630894Y-50777340D01*
X112288941Y-51435387D01*
X112268409Y-51440889D01*
X112131592Y-51519881D01*
X112019881Y-51631592D01*
X111940889Y-51768409D01*
X111935387Y-51788941D01*
X111277340Y-51130894D01*
X111217084Y-51213830D01*
X111109897Y-51424197D01*
X111036934Y-51648752D01*
X111000000Y-51881947D01*
X95743315Y-51881947D01*
X94382521Y-50521153D01*
X98349500Y-50521153D01*
X98349500Y-50678846D01*
X98380261Y-50833489D01*
X98380264Y-50833501D01*
X98440602Y-50979172D01*
X98440609Y-50979185D01*
X98528210Y-51110288D01*
X98528213Y-51110292D01*
X98639707Y-51221786D01*
X98639711Y-51221789D01*
X98770814Y-51309390D01*
X98770827Y-51309397D01*
X98916498Y-51369735D01*
X98916503Y-51369737D01*
X99068644Y-51400000D01*
X99071153Y-51400499D01*
X99071156Y-51400500D01*
X99071158Y-51400500D01*
X99228844Y-51400500D01*
X99228845Y-51400499D01*
X99383497Y-51369737D01*
X99529179Y-51309394D01*
X99660289Y-51221789D01*
X99771789Y-51110289D01*
X99859394Y-50979179D01*
X99869191Y-50955524D01*
X99896069Y-50915297D01*
X102024548Y-48786819D01*
X102085871Y-48753334D01*
X102112229Y-48750500D01*
X113137770Y-48750500D01*
X113204809Y-48770185D01*
X113225451Y-48786819D01*
X115998719Y-51560086D01*
X116032204Y-51621409D01*
X116033511Y-51667165D01*
X115999500Y-51881902D01*
X115999500Y-52118097D01*
X116036446Y-52351368D01*
X116109433Y-52575996D01*
X116183222Y-52720814D01*
X116216657Y-52786433D01*
X116355483Y-52977510D01*
X116522490Y-53144517D01*
X116713567Y-53283343D01*
X116811984Y-53333489D01*
X116924003Y-53390566D01*
X116924005Y-53390566D01*
X116924008Y-53390568D01*
X117044412Y-53429689D01*
X117148631Y-53463553D01*
X117381903Y-53500500D01*
X117381908Y-53500500D01*
X117618097Y-53500500D01*
X117851368Y-53463553D01*
X117852870Y-53463065D01*
X118075992Y-53390568D01*
X118286433Y-53283343D01*
X118477510Y-53144517D01*
X118644517Y-52977510D01*
X118783343Y-52786433D01*
X118890568Y-52575992D01*
X118963553Y-52351368D01*
X118969009Y-52316920D01*
X119000500Y-52118097D01*
X119000500Y-51881902D01*
X118963553Y-51648631D01*
X118890566Y-51424003D01*
X118787532Y-51221789D01*
X118783343Y-51213567D01*
X118644517Y-51022490D01*
X118477510Y-50855483D01*
X118286433Y-50716657D01*
X118212225Y-50678846D01*
X118075996Y-50609433D01*
X117851368Y-50536446D01*
X117618097Y-50499500D01*
X117618092Y-50499500D01*
X117381908Y-50499500D01*
X117381903Y-50499500D01*
X117167165Y-50533511D01*
X117097871Y-50524556D01*
X117060086Y-50498719D01*
X113978421Y-47417052D01*
X113978414Y-47417046D01*
X113904729Y-47367812D01*
X113904729Y-47367813D01*
X113855491Y-47334913D01*
X113718917Y-47278343D01*
X113718907Y-47278340D01*
X113573920Y-47249500D01*
X113573918Y-47249500D01*
X101823917Y-47249500D01*
X101676082Y-47249500D01*
X101676080Y-47249500D01*
X101531092Y-47278340D01*
X101531082Y-47278343D01*
X101394511Y-47334912D01*
X101394498Y-47334919D01*
X101271584Y-47417048D01*
X101271580Y-47417051D01*
X98834703Y-49853927D01*
X98794480Y-49880805D01*
X98770819Y-49890606D01*
X98770818Y-49890607D01*
X98639715Y-49978207D01*
X98639707Y-49978213D01*
X98528213Y-50089707D01*
X98528210Y-50089711D01*
X98440609Y-50220814D01*
X98440602Y-50220827D01*
X98380264Y-50366498D01*
X98380261Y-50366510D01*
X98349500Y-50521153D01*
X94382521Y-50521153D01*
X88946071Y-45084703D01*
X88926775Y-45059727D01*
X88922459Y-45052364D01*
X88909394Y-45020821D01*
X88824463Y-44893713D01*
X117649500Y-44893713D01*
X117649500Y-45106286D01*
X117681767Y-45310016D01*
X117682754Y-45316243D01*
X117748152Y-45517517D01*
X117748444Y-45518414D01*
X117844951Y-45707820D01*
X117969890Y-45879786D01*
X118120213Y-46030109D01*
X118292179Y-46155048D01*
X118292181Y-46155049D01*
X118292184Y-46155051D01*
X118481588Y-46251557D01*
X118683757Y-46317246D01*
X118893713Y-46350500D01*
X118893714Y-46350500D01*
X119106286Y-46350500D01*
X119106287Y-46350500D01*
X119316243Y-46317246D01*
X119518412Y-46251557D01*
X119707816Y-46155051D01*
X119770658Y-46109394D01*
X119879786Y-46030109D01*
X119879788Y-46030106D01*
X119879792Y-46030104D01*
X120030104Y-45879792D01*
X120030106Y-45879788D01*
X120030109Y-45879786D01*
X120155048Y-45707820D01*
X120155047Y-45707820D01*
X120155051Y-45707816D01*
X120251557Y-45518412D01*
X120317246Y-45316243D01*
X120350500Y-45106287D01*
X120350500Y-44893713D01*
X120317246Y-44683757D01*
X120251557Y-44481588D01*
X120155051Y-44292184D01*
X120155049Y-44292181D01*
X120155048Y-44292179D01*
X120030109Y-44120213D01*
X119879786Y-43969890D01*
X119707820Y-43844951D01*
X119518414Y-43748444D01*
X119518413Y-43748443D01*
X119518412Y-43748443D01*
X119316243Y-43682754D01*
X119316241Y-43682753D01*
X119316240Y-43682753D01*
X119154957Y-43657208D01*
X119106287Y-43649500D01*
X118893713Y-43649500D01*
X118845042Y-43657208D01*
X118683760Y-43682753D01*
X118481585Y-43748444D01*
X118292179Y-43844951D01*
X118120213Y-43969890D01*
X117969890Y-44120213D01*
X117844951Y-44292179D01*
X117748444Y-44481585D01*
X117682753Y-44683760D01*
X117649500Y-44893713D01*
X88824463Y-44893713D01*
X88821789Y-44889711D01*
X88821787Y-44889708D01*
X88710292Y-44778213D01*
X88710288Y-44778210D01*
X88579185Y-44690609D01*
X88579172Y-44690602D01*
X88433501Y-44630264D01*
X88433489Y-44630261D01*
X88278845Y-44599500D01*
X88278842Y-44599500D01*
X88121158Y-44599500D01*
X88121155Y-44599500D01*
X87966510Y-44630261D01*
X87966498Y-44630264D01*
X87820827Y-44690602D01*
X87820814Y-44690609D01*
X87689711Y-44778210D01*
X87689707Y-44778213D01*
X87578213Y-44889707D01*
X87578210Y-44889711D01*
X87490609Y-45020814D01*
X87490602Y-45020827D01*
X87430264Y-45166498D01*
X87430261Y-45166510D01*
X87399500Y-45321153D01*
X85572745Y-45321153D01*
X85553204Y-45295050D01*
X85532546Y-45267454D01*
X85532544Y-45267453D01*
X85532544Y-45267452D01*
X85417335Y-45181206D01*
X85417328Y-45181202D01*
X85282482Y-45130908D01*
X85282483Y-45130908D01*
X85222883Y-45124501D01*
X85222881Y-45124500D01*
X85222873Y-45124500D01*
X85222864Y-45124500D01*
X83777129Y-45124500D01*
X83777123Y-45124501D01*
X83717516Y-45130908D01*
X83582671Y-45181202D01*
X83582664Y-45181206D01*
X83467455Y-45267452D01*
X83403758Y-45352539D01*
X83347823Y-45394410D01*
X83278132Y-45399393D01*
X83231607Y-45378545D01*
X83116099Y-45294624D01*
X83116098Y-45294623D01*
X83116096Y-45294622D01*
X83062772Y-45267452D01*
X82951235Y-45210620D01*
X82951232Y-45210619D01*
X82775265Y-45153445D01*
X82632972Y-45130908D01*
X82592514Y-45124500D01*
X82407486Y-45124500D01*
X82367028Y-45130908D01*
X82224734Y-45153445D01*
X82048767Y-45210619D01*
X82048764Y-45210620D01*
X81883903Y-45294622D01*
X81854145Y-45316243D01*
X81734213Y-45403379D01*
X81734211Y-45403381D01*
X81734210Y-45403381D01*
X81603378Y-45534213D01*
X81549163Y-45608833D01*
X81529745Y-45623805D01*
X80900000Y-46253551D01*
X80900000Y-46247339D01*
X80872741Y-46145606D01*
X80820080Y-46054394D01*
X80745606Y-45979920D01*
X80654394Y-45927259D01*
X80552661Y-45900000D01*
X80546447Y-45900000D01*
X81136431Y-45310016D01*
X81136430Y-45310015D01*
X81115834Y-45295050D01*
X80951043Y-45211084D01*
X80951040Y-45211083D01*
X80775147Y-45153933D01*
X80592473Y-45125000D01*
X80407527Y-45125000D01*
X80224852Y-45153933D01*
X80048959Y-45211083D01*
X80048956Y-45211084D01*
X79884167Y-45295049D01*
X79863568Y-45310015D01*
X80453554Y-45900000D01*
X80447339Y-45900000D01*
X80345606Y-45927259D01*
X80254394Y-45979920D01*
X80179920Y-46054394D01*
X80127259Y-46145606D01*
X80100000Y-46247339D01*
X80100000Y-46253552D01*
X79488310Y-45641862D01*
X79487844Y-45641491D01*
X79484541Y-45640536D01*
X79472885Y-45629573D01*
X79457773Y-45617532D01*
X79454109Y-45613338D01*
X79396621Y-45534213D01*
X79265787Y-45403379D01*
X79116096Y-45294622D01*
X78951235Y-45210620D01*
X78951232Y-45210619D01*
X78775265Y-45153445D01*
X78632972Y-45130908D01*
X78592514Y-45124500D01*
X78407486Y-45124500D01*
X78367028Y-45130908D01*
X78224734Y-45153445D01*
X78048767Y-45210619D01*
X78048764Y-45210620D01*
X77883903Y-45294622D01*
X77854145Y-45316243D01*
X77734213Y-45403379D01*
X77734211Y-45403381D01*
X77734210Y-45403381D01*
X77603381Y-45534210D01*
X77600314Y-45538432D01*
X77544981Y-45581094D01*
X77475367Y-45587069D01*
X77413574Y-45554459D01*
X77399686Y-45538432D01*
X77396621Y-45534213D01*
X77265787Y-45403379D01*
X77116096Y-45294622D01*
X76951235Y-45210620D01*
X76951232Y-45210619D01*
X76775265Y-45153445D01*
X76632972Y-45130908D01*
X76592514Y-45124500D01*
X76407486Y-45124500D01*
X76367028Y-45130908D01*
X76224734Y-45153445D01*
X76048767Y-45210619D01*
X76048764Y-45210620D01*
X75883903Y-45294622D01*
X75854145Y-45316243D01*
X75734213Y-45403379D01*
X75734211Y-45403381D01*
X75734210Y-45403381D01*
X75603381Y-45534210D01*
X75603381Y-45534211D01*
X75603379Y-45534213D01*
X75572199Y-45577129D01*
X75494622Y-45683903D01*
X75410620Y-45848764D01*
X75410619Y-45848767D01*
X75353445Y-46024734D01*
X75324500Y-46207486D01*
X70604906Y-46207486D01*
X70707816Y-46155051D01*
X70780429Y-46102295D01*
X70780431Y-46102294D01*
X70879785Y-46030109D01*
X70879783Y-46030109D01*
X70879792Y-46030104D01*
X71030104Y-45879792D01*
X71030106Y-45879788D01*
X71030109Y-45879786D01*
X71155048Y-45707820D01*
X71155047Y-45707820D01*
X71155051Y-45707816D01*
X71251557Y-45518412D01*
X71317246Y-45316243D01*
X71350500Y-45106287D01*
X71350500Y-44893713D01*
X71317246Y-44683757D01*
X71251557Y-44481588D01*
X71155051Y-44292184D01*
X71155049Y-44292181D01*
X71155048Y-44292179D01*
X71030109Y-44120213D01*
X70879786Y-43969890D01*
X70707820Y-43844951D01*
X70518414Y-43748444D01*
X70518413Y-43748443D01*
X70518412Y-43748443D01*
X70316243Y-43682754D01*
X70316241Y-43682753D01*
X70316240Y-43682753D01*
X70154957Y-43657208D01*
X70106287Y-43649500D01*
X69893713Y-43649500D01*
X69845042Y-43657208D01*
X69683760Y-43682753D01*
X69481585Y-43748444D01*
X69292179Y-43844951D01*
X69120213Y-43969890D01*
X68969890Y-44120213D01*
X68844951Y-44292179D01*
X68748444Y-44481585D01*
X68682753Y-44683760D01*
X68649500Y-44893713D01*
X67506929Y-44893713D01*
X67507677Y-44881354D01*
X67518271Y-44706205D01*
X67520076Y-44691340D01*
X67520212Y-44690602D01*
X67571780Y-44409198D01*
X67575364Y-44394664D01*
X67607298Y-44292184D01*
X67660699Y-44120812D01*
X67665997Y-44106842D01*
X67783727Y-43845258D01*
X67790680Y-43832012D01*
X67880909Y-43682754D01*
X67939075Y-43586534D01*
X67947567Y-43574230D01*
X68124481Y-43348417D01*
X68134396Y-43337226D01*
X68337226Y-43134396D01*
X68348417Y-43124481D01*
X68574230Y-42947567D01*
X68586534Y-42939075D01*
X68832012Y-42790680D01*
X68845258Y-42783727D01*
X69106842Y-42665997D01*
X69120812Y-42660699D01*
X69394668Y-42575362D01*
X69409198Y-42571780D01*
X69691344Y-42520075D01*
X69706201Y-42518271D01*
X69996264Y-42500726D01*
X70003751Y-42500500D01*
X70065892Y-42500500D01*
X118934108Y-42500500D01*
X118996249Y-42500500D01*
X119003736Y-42500726D01*
G37*
%TD.AperFunction*%
%TD*%
M02*
