%TF.GenerationSoftware,KiCad,Pcbnew,9.0.8*%
%TF.CreationDate,2026-06-18T14:37:21+02:00*%
%TF.ProjectId,eggtimer,65676774-696d-4657-922e-6b696361645f,rev?*%
%TF.SameCoordinates,Original*%
%TF.FileFunction,Paste,Top*%
%TF.FilePolarity,Positive*%
%FSLAX46Y46*%
G04 Gerber Fmt 4.6, Leading zero omitted, Abs format (unit mm)*
G04 Created by KiCad (PCBNEW 9.0.8) date 2026-06-18 14:37:21*
%MOMM*%
%LPD*%
G01*
G04 APERTURE LIST*
G04 Aperture macros list*
%AMRoundRect*
0 Rectangle with rounded corners*
0 $1 Rounding radius*
0 $2 $3 $4 $5 $6 $7 $8 $9 X,Y pos of 4 corners*
0 Add a 4 corners polygon primitive as box body*
4,1,4,$2,$3,$4,$5,$6,$7,$8,$9,$2,$3,0*
0 Add four circle primitives for the rounded corners*
1,1,$1+$1,$2,$3*
1,1,$1+$1,$4,$5*
1,1,$1+$1,$6,$7*
1,1,$1+$1,$8,$9*
0 Add four rect primitives between the rounded corners*
20,1,$1+$1,$2,$3,$4,$5,0*
20,1,$1+$1,$4,$5,$6,$7,0*
20,1,$1+$1,$6,$7,$8,$9,0*
20,1,$1+$1,$8,$9,$2,$3,0*%
%AMFreePoly0*
4,1,9,3.862500,-0.866500,0.737500,-0.866500,0.737500,-0.450000,-0.737500,-0.450000,-0.737500,0.450000,0.737500,0.450000,0.737500,0.866500,3.862500,0.866500,3.862500,-0.866500,3.862500,-0.866500,$1*%
G04 Aperture macros list end*
%ADD10RoundRect,0.225000X-0.425000X-0.225000X0.425000X-0.225000X0.425000X0.225000X-0.425000X0.225000X0*%
%ADD11FreePoly0,0.000000*%
%ADD12RoundRect,0.243750X0.456250X-0.243750X0.456250X0.243750X-0.456250X0.243750X-0.456250X-0.243750X0*%
%ADD13RoundRect,0.135000X0.135000X0.185000X-0.135000X0.185000X-0.135000X-0.185000X0.135000X-0.185000X0*%
%ADD14RoundRect,0.200000X-0.275000X0.200000X-0.275000X-0.200000X0.275000X-0.200000X0.275000X0.200000X0*%
%ADD15RoundRect,0.140000X0.170000X-0.140000X0.170000X0.140000X-0.170000X0.140000X-0.170000X-0.140000X0*%
%ADD16RoundRect,0.225000X0.250000X-0.225000X0.250000X0.225000X-0.250000X0.225000X-0.250000X-0.225000X0*%
%ADD17RoundRect,0.243750X0.243750X0.456250X-0.243750X0.456250X-0.243750X-0.456250X0.243750X-0.456250X0*%
%ADD18RoundRect,0.140000X-0.170000X0.140000X-0.170000X-0.140000X0.170000X-0.140000X0.170000X0.140000X0*%
%ADD19RoundRect,0.250000X0.475000X-0.250000X0.475000X0.250000X-0.475000X0.250000X-0.475000X-0.250000X0*%
%ADD20RoundRect,0.250000X0.450000X-0.262500X0.450000X0.262500X-0.450000X0.262500X-0.450000X-0.262500X0*%
%ADD21RoundRect,0.100000X-0.637500X-0.100000X0.637500X-0.100000X0.637500X0.100000X-0.637500X0.100000X0*%
%ADD22RoundRect,0.140000X-0.205000X-0.140000X0.205000X-0.140000X0.205000X0.140000X-0.205000X0.140000X0*%
%ADD23RoundRect,0.062500X-0.337500X-0.062500X0.337500X-0.062500X0.337500X0.062500X-0.337500X0.062500X0*%
%ADD24RoundRect,0.150000X0.350000X-0.850000X0.350000X0.850000X-0.350000X0.850000X-0.350000X-0.850000X0*%
%ADD25RoundRect,0.225000X0.225000X0.250000X-0.225000X0.250000X-0.225000X-0.250000X0.225000X-0.250000X0*%
%ADD26RoundRect,0.140000X-0.140000X-0.170000X0.140000X-0.170000X0.140000X0.170000X-0.140000X0.170000X0*%
%ADD27RoundRect,0.250000X-0.450000X0.262500X-0.450000X-0.262500X0.450000X-0.262500X0.450000X0.262500X0*%
%ADD28RoundRect,0.150000X-0.512500X-0.150000X0.512500X-0.150000X0.512500X0.150000X-0.512500X0.150000X0*%
%ADD29O,1.971000X0.602000*%
%ADD30RoundRect,0.150000X-0.425000X0.150000X-0.425000X-0.150000X0.425000X-0.150000X0.425000X0.150000X0*%
%ADD31RoundRect,0.075000X-0.500000X0.075000X-0.500000X-0.075000X0.500000X-0.075000X0.500000X0.075000X0*%
%ADD32O,2.100000X1.000000*%
%ADD33O,1.800000X1.000000*%
%ADD34RoundRect,0.250000X-0.250000X-0.475000X0.250000X-0.475000X0.250000X0.475000X-0.250000X0.475000X0*%
%ADD35RoundRect,0.200000X0.200000X0.275000X-0.200000X0.275000X-0.200000X-0.275000X0.200000X-0.275000X0*%
G04 APERTURE END LIST*
D10*
%TO.C,HT7533-1*%
X105450000Y-51900000D03*
D11*
X105537500Y-53400000D03*
D10*
X105450000Y-54900000D03*
%TD*%
D12*
%TO.C,D9*%
X94300000Y-50100000D03*
X94300000Y-48225000D03*
%TD*%
D13*
%TO.C,R14*%
X120112500Y-70400000D03*
X119092500Y-70400000D03*
%TD*%
D14*
%TO.C,R3*%
X90750000Y-48100000D03*
X90750000Y-49750000D03*
%TD*%
%TO.C,R2*%
X76300000Y-56275000D03*
X76300000Y-57925000D03*
%TD*%
D15*
%TO.C,C5*%
X89950000Y-62000000D03*
X89950000Y-61040000D03*
%TD*%
D16*
%TO.C,C6*%
X89200000Y-48275000D03*
X89200000Y-46725000D03*
%TD*%
D13*
%TO.C,R4*%
X91970000Y-51400000D03*
X90950000Y-51400000D03*
%TD*%
D16*
%TO.C,C1*%
X103400000Y-53250000D03*
X103400000Y-51700000D03*
%TD*%
D13*
%TO.C,R13*%
X120132500Y-72900000D03*
X119112500Y-72900000D03*
%TD*%
D17*
%TO.C,D3*%
X115050000Y-70400000D03*
X113175000Y-70400000D03*
%TD*%
D18*
%TO.C,C4*%
X98850000Y-62520000D03*
X98850000Y-63480000D03*
%TD*%
D15*
%TO.C,C8*%
X85200000Y-64080000D03*
X85200000Y-63120000D03*
%TD*%
D13*
%TO.C,R11*%
X104180000Y-44300000D03*
X103160000Y-44300000D03*
%TD*%
%TO.C,R7*%
X120132500Y-57900000D03*
X119112500Y-57900000D03*
%TD*%
D19*
%TO.C,C10*%
X86400000Y-54550000D03*
X86400000Y-52650000D03*
%TD*%
D17*
%TO.C,D6*%
X115050000Y-62900000D03*
X113175000Y-62900000D03*
%TD*%
D20*
%TO.C,R9*%
X88450000Y-66112500D03*
X88450000Y-64287500D03*
%TD*%
D21*
%TO.C,STM32F042F6P6*%
X91550000Y-59650000D03*
X91550000Y-60300000D03*
X91550000Y-60950000D03*
X91550000Y-61600000D03*
X91550000Y-62250000D03*
X91550000Y-62900000D03*
X91550000Y-63550000D03*
X91550000Y-64200000D03*
X91550000Y-64850000D03*
X91550000Y-65500000D03*
X97275000Y-65500000D03*
X97275000Y-64850000D03*
X97275000Y-64200000D03*
X97275000Y-63550000D03*
X97275000Y-62900000D03*
X97275000Y-62250000D03*
X97275000Y-61600000D03*
X97275000Y-60950000D03*
X97275000Y-60300000D03*
X97275000Y-59650000D03*
%TD*%
D13*
%TO.C,R17*%
X94370000Y-51400000D03*
X93350000Y-51400000D03*
%TD*%
%TO.C,R18*%
X104170000Y-45700000D03*
X103150000Y-45700000D03*
%TD*%
D22*
%TO.C,U2*%
X87325000Y-49950000D03*
X87325000Y-50650000D03*
X88175000Y-49950000D03*
X88175000Y-50650000D03*
D23*
X86300000Y-49550000D03*
X86300000Y-50050000D03*
X86300000Y-50550000D03*
X86300000Y-51050000D03*
X89200000Y-51050000D03*
X89200000Y-50550000D03*
X89200000Y-50050000D03*
X89200000Y-49550000D03*
%TD*%
D24*
%TO.C,Button*%
X97100000Y-47700000D03*
X99100000Y-47700000D03*
X101100000Y-47700000D03*
X97100000Y-55700000D03*
X99100000Y-55700000D03*
X101100000Y-55700000D03*
%TD*%
D13*
%TO.C,R15*%
X120132500Y-67900000D03*
X119112500Y-67900000D03*
%TD*%
D25*
%TO.C,C2*%
X105000000Y-56950000D03*
X103450000Y-56950000D03*
%TD*%
D17*
%TO.C,D5*%
X115050000Y-65400000D03*
X113175000Y-65400000D03*
%TD*%
D14*
%TO.C,R10*%
X92450000Y-48100000D03*
X92450000Y-49750000D03*
%TD*%
D13*
%TO.C,R12*%
X120132500Y-75400000D03*
X119112500Y-75400000D03*
%TD*%
%TO.C,R5*%
X120152500Y-60400000D03*
X119132500Y-60400000D03*
%TD*%
D17*
%TO.C,D1*%
X115050000Y-75400000D03*
X113175000Y-75400000D03*
%TD*%
D25*
%TO.C,C7*%
X107750000Y-59040000D03*
X106200000Y-59040000D03*
%TD*%
D17*
%TO.C,D10*%
X101125000Y-45000000D03*
X99250000Y-45000000D03*
%TD*%
D26*
%TO.C,C9*%
X85320000Y-65300000D03*
X86280000Y-65300000D03*
%TD*%
D13*
%TO.C,R6*%
X120152500Y-62900000D03*
X119132500Y-62900000D03*
%TD*%
D27*
%TO.C,R8*%
X86750000Y-60800000D03*
X86750000Y-62625000D03*
%TD*%
D17*
%TO.C,D7*%
X115050000Y-60400000D03*
X113175000Y-60400000D03*
%TD*%
D13*
%TO.C,R16*%
X120152500Y-65400000D03*
X119132500Y-65400000D03*
%TD*%
D28*
%TO.C,U1*%
X79525000Y-53900000D03*
X79525000Y-54850000D03*
X79525000Y-55800000D03*
X81800000Y-55800000D03*
X81800000Y-54850000D03*
X81800000Y-53900000D03*
%TD*%
D17*
%TO.C,D8*%
X115050000Y-57900000D03*
X113175000Y-57900000D03*
%TD*%
D29*
%TO.C,74HC595*%
X110250000Y-69580000D03*
X110250000Y-68310000D03*
X110250000Y-67040000D03*
X110250000Y-65770000D03*
X110250000Y-64500000D03*
X110250000Y-63230000D03*
X110250000Y-61960000D03*
X110250000Y-60690000D03*
X104750000Y-69580000D03*
X104750000Y-68310000D03*
X104750000Y-67040000D03*
X104750000Y-65770000D03*
X104750000Y-64500000D03*
X104750000Y-63230000D03*
X104750000Y-61960000D03*
X104750000Y-60690000D03*
%TD*%
D30*
%TO.C,J1*%
X73890000Y-51075000D03*
X73890000Y-51875000D03*
D31*
X73890000Y-53025000D03*
X73890000Y-54025000D03*
X73890000Y-54525000D03*
X73890000Y-55525000D03*
D30*
X73890000Y-56675000D03*
X73890000Y-57475000D03*
X73890000Y-57475000D03*
X73890000Y-56675000D03*
D31*
X73890000Y-56025000D03*
X73890000Y-55025000D03*
X73890000Y-53525000D03*
X73890000Y-52525000D03*
D30*
X73890000Y-51875000D03*
X73890000Y-51075000D03*
D32*
X73315000Y-49955000D03*
D33*
X69135000Y-49955000D03*
D32*
X73315000Y-58595000D03*
D33*
X69135000Y-58595000D03*
%TD*%
D17*
%TO.C,D4*%
X115050000Y-67900000D03*
X113175000Y-67900000D03*
%TD*%
%TO.C,D2*%
X115050000Y-72900000D03*
X113175000Y-72900000D03*
%TD*%
D34*
%TO.C,C3*%
X87350000Y-58800000D03*
X89250000Y-58800000D03*
%TD*%
D35*
%TO.C,R1*%
X77400000Y-50500000D03*
X75750000Y-50500000D03*
%TD*%
M02*
