%TF.GenerationSoftware,KiCad,Pcbnew,9.0.8*%
%TF.CreationDate,2026-06-18T14:37:21+02:00*%
%TF.ProjectId,eggtimer,65676774-696d-4657-922e-6b696361645f,rev?*%
%TF.SameCoordinates,Original*%
%TF.FileFunction,Legend,Top*%
%TF.FilePolarity,Positive*%
%FSLAX46Y46*%
G04 Gerber Fmt 4.6, Leading zero omitted, Abs format (unit mm)*
G04 Created by KiCad (PCBNEW 9.0.8) date 2026-06-18 14:37:21*
%MOMM*%
%LPD*%
G01*
G04 APERTURE LIST*
%ADD10C,0.200000*%
%ADD11C,0.150000*%
%ADD12C,0.125000*%
%ADD13C,0.120000*%
%ADD14C,0.300000*%
%ADD15C,0.100000*%
%ADD16C,0.000000*%
G04 APERTURE END LIST*
D10*
X69322054Y-81472647D02*
X69588720Y-81472647D01*
X69703006Y-81891695D02*
X69322054Y-81891695D01*
X69322054Y-81891695D02*
X69322054Y-81091695D01*
X69322054Y-81091695D02*
X69703006Y-81091695D01*
X70388721Y-81358361D02*
X70388721Y-82005980D01*
X70388721Y-82005980D02*
X70350626Y-82082171D01*
X70350626Y-82082171D02*
X70312530Y-82120266D01*
X70312530Y-82120266D02*
X70236340Y-82158361D01*
X70236340Y-82158361D02*
X70122054Y-82158361D01*
X70122054Y-82158361D02*
X70045864Y-82120266D01*
X70388721Y-81853600D02*
X70312530Y-81891695D01*
X70312530Y-81891695D02*
X70160149Y-81891695D01*
X70160149Y-81891695D02*
X70083959Y-81853600D01*
X70083959Y-81853600D02*
X70045864Y-81815504D01*
X70045864Y-81815504D02*
X70007768Y-81739314D01*
X70007768Y-81739314D02*
X70007768Y-81510742D01*
X70007768Y-81510742D02*
X70045864Y-81434552D01*
X70045864Y-81434552D02*
X70083959Y-81396457D01*
X70083959Y-81396457D02*
X70160149Y-81358361D01*
X70160149Y-81358361D02*
X70312530Y-81358361D01*
X70312530Y-81358361D02*
X70388721Y-81396457D01*
X71112531Y-81358361D02*
X71112531Y-82005980D01*
X71112531Y-82005980D02*
X71074436Y-82082171D01*
X71074436Y-82082171D02*
X71036340Y-82120266D01*
X71036340Y-82120266D02*
X70960150Y-82158361D01*
X70960150Y-82158361D02*
X70845864Y-82158361D01*
X70845864Y-82158361D02*
X70769674Y-82120266D01*
X71112531Y-81853600D02*
X71036340Y-81891695D01*
X71036340Y-81891695D02*
X70883959Y-81891695D01*
X70883959Y-81891695D02*
X70807769Y-81853600D01*
X70807769Y-81853600D02*
X70769674Y-81815504D01*
X70769674Y-81815504D02*
X70731578Y-81739314D01*
X70731578Y-81739314D02*
X70731578Y-81510742D01*
X70731578Y-81510742D02*
X70769674Y-81434552D01*
X70769674Y-81434552D02*
X70807769Y-81396457D01*
X70807769Y-81396457D02*
X70883959Y-81358361D01*
X70883959Y-81358361D02*
X71036340Y-81358361D01*
X71036340Y-81358361D02*
X71112531Y-81396457D01*
X71379198Y-81358361D02*
X71683960Y-81358361D01*
X71493484Y-81091695D02*
X71493484Y-81777409D01*
X71493484Y-81777409D02*
X71531579Y-81853600D01*
X71531579Y-81853600D02*
X71607769Y-81891695D01*
X71607769Y-81891695D02*
X71683960Y-81891695D01*
X71950627Y-81891695D02*
X71950627Y-81358361D01*
X71950627Y-81091695D02*
X71912531Y-81129790D01*
X71912531Y-81129790D02*
X71950627Y-81167885D01*
X71950627Y-81167885D02*
X71988722Y-81129790D01*
X71988722Y-81129790D02*
X71950627Y-81091695D01*
X71950627Y-81091695D02*
X71950627Y-81167885D01*
X72331579Y-81891695D02*
X72331579Y-81358361D01*
X72331579Y-81434552D02*
X72369674Y-81396457D01*
X72369674Y-81396457D02*
X72445864Y-81358361D01*
X72445864Y-81358361D02*
X72560150Y-81358361D01*
X72560150Y-81358361D02*
X72636341Y-81396457D01*
X72636341Y-81396457D02*
X72674436Y-81472647D01*
X72674436Y-81472647D02*
X72674436Y-81891695D01*
X72674436Y-81472647D02*
X72712531Y-81396457D01*
X72712531Y-81396457D02*
X72788722Y-81358361D01*
X72788722Y-81358361D02*
X72903007Y-81358361D01*
X72903007Y-81358361D02*
X72979198Y-81396457D01*
X72979198Y-81396457D02*
X73017293Y-81472647D01*
X73017293Y-81472647D02*
X73017293Y-81891695D01*
X73703008Y-81853600D02*
X73626817Y-81891695D01*
X73626817Y-81891695D02*
X73474436Y-81891695D01*
X73474436Y-81891695D02*
X73398246Y-81853600D01*
X73398246Y-81853600D02*
X73360150Y-81777409D01*
X73360150Y-81777409D02*
X73360150Y-81472647D01*
X73360150Y-81472647D02*
X73398246Y-81396457D01*
X73398246Y-81396457D02*
X73474436Y-81358361D01*
X73474436Y-81358361D02*
X73626817Y-81358361D01*
X73626817Y-81358361D02*
X73703008Y-81396457D01*
X73703008Y-81396457D02*
X73741103Y-81472647D01*
X73741103Y-81472647D02*
X73741103Y-81548838D01*
X73741103Y-81548838D02*
X73360150Y-81625028D01*
X74083960Y-81891695D02*
X74083960Y-81358361D01*
X74083960Y-81510742D02*
X74122055Y-81434552D01*
X74122055Y-81434552D02*
X74160150Y-81396457D01*
X74160150Y-81396457D02*
X74236341Y-81358361D01*
X74236341Y-81358361D02*
X74312531Y-81358361D01*
X75150626Y-81167885D02*
X75188722Y-81129790D01*
X75188722Y-81129790D02*
X75264912Y-81091695D01*
X75264912Y-81091695D02*
X75455388Y-81091695D01*
X75455388Y-81091695D02*
X75531579Y-81129790D01*
X75531579Y-81129790D02*
X75569674Y-81167885D01*
X75569674Y-81167885D02*
X75607769Y-81244076D01*
X75607769Y-81244076D02*
X75607769Y-81320266D01*
X75607769Y-81320266D02*
X75569674Y-81434552D01*
X75569674Y-81434552D02*
X75112531Y-81891695D01*
X75112531Y-81891695D02*
X75607769Y-81891695D01*
X76103008Y-81091695D02*
X76179198Y-81091695D01*
X76179198Y-81091695D02*
X76255389Y-81129790D01*
X76255389Y-81129790D02*
X76293484Y-81167885D01*
X76293484Y-81167885D02*
X76331579Y-81244076D01*
X76331579Y-81244076D02*
X76369674Y-81396457D01*
X76369674Y-81396457D02*
X76369674Y-81586933D01*
X76369674Y-81586933D02*
X76331579Y-81739314D01*
X76331579Y-81739314D02*
X76293484Y-81815504D01*
X76293484Y-81815504D02*
X76255389Y-81853600D01*
X76255389Y-81853600D02*
X76179198Y-81891695D01*
X76179198Y-81891695D02*
X76103008Y-81891695D01*
X76103008Y-81891695D02*
X76026817Y-81853600D01*
X76026817Y-81853600D02*
X75988722Y-81815504D01*
X75988722Y-81815504D02*
X75950627Y-81739314D01*
X75950627Y-81739314D02*
X75912531Y-81586933D01*
X75912531Y-81586933D02*
X75912531Y-81396457D01*
X75912531Y-81396457D02*
X75950627Y-81244076D01*
X75950627Y-81244076D02*
X75988722Y-81167885D01*
X75988722Y-81167885D02*
X76026817Y-81129790D01*
X76026817Y-81129790D02*
X76103008Y-81091695D01*
X76674436Y-81167885D02*
X76712532Y-81129790D01*
X76712532Y-81129790D02*
X76788722Y-81091695D01*
X76788722Y-81091695D02*
X76979198Y-81091695D01*
X76979198Y-81091695D02*
X77055389Y-81129790D01*
X77055389Y-81129790D02*
X77093484Y-81167885D01*
X77093484Y-81167885D02*
X77131579Y-81244076D01*
X77131579Y-81244076D02*
X77131579Y-81320266D01*
X77131579Y-81320266D02*
X77093484Y-81434552D01*
X77093484Y-81434552D02*
X76636341Y-81891695D01*
X76636341Y-81891695D02*
X77131579Y-81891695D01*
X77817294Y-81091695D02*
X77664913Y-81091695D01*
X77664913Y-81091695D02*
X77588722Y-81129790D01*
X77588722Y-81129790D02*
X77550627Y-81167885D01*
X77550627Y-81167885D02*
X77474437Y-81282171D01*
X77474437Y-81282171D02*
X77436341Y-81434552D01*
X77436341Y-81434552D02*
X77436341Y-81739314D01*
X77436341Y-81739314D02*
X77474437Y-81815504D01*
X77474437Y-81815504D02*
X77512532Y-81853600D01*
X77512532Y-81853600D02*
X77588722Y-81891695D01*
X77588722Y-81891695D02*
X77741103Y-81891695D01*
X77741103Y-81891695D02*
X77817294Y-81853600D01*
X77817294Y-81853600D02*
X77855389Y-81815504D01*
X77855389Y-81815504D02*
X77893484Y-81739314D01*
X77893484Y-81739314D02*
X77893484Y-81548838D01*
X77893484Y-81548838D02*
X77855389Y-81472647D01*
X77855389Y-81472647D02*
X77817294Y-81434552D01*
X77817294Y-81434552D02*
X77741103Y-81396457D01*
X77741103Y-81396457D02*
X77588722Y-81396457D01*
X77588722Y-81396457D02*
X77512532Y-81434552D01*
X77512532Y-81434552D02*
X77474437Y-81472647D01*
X77474437Y-81472647D02*
X77436341Y-81548838D01*
X78236342Y-81586933D02*
X78845866Y-81586933D01*
X79379199Y-81091695D02*
X79455389Y-81091695D01*
X79455389Y-81091695D02*
X79531580Y-81129790D01*
X79531580Y-81129790D02*
X79569675Y-81167885D01*
X79569675Y-81167885D02*
X79607770Y-81244076D01*
X79607770Y-81244076D02*
X79645865Y-81396457D01*
X79645865Y-81396457D02*
X79645865Y-81586933D01*
X79645865Y-81586933D02*
X79607770Y-81739314D01*
X79607770Y-81739314D02*
X79569675Y-81815504D01*
X79569675Y-81815504D02*
X79531580Y-81853600D01*
X79531580Y-81853600D02*
X79455389Y-81891695D01*
X79455389Y-81891695D02*
X79379199Y-81891695D01*
X79379199Y-81891695D02*
X79303008Y-81853600D01*
X79303008Y-81853600D02*
X79264913Y-81815504D01*
X79264913Y-81815504D02*
X79226818Y-81739314D01*
X79226818Y-81739314D02*
X79188722Y-81586933D01*
X79188722Y-81586933D02*
X79188722Y-81396457D01*
X79188722Y-81396457D02*
X79226818Y-81244076D01*
X79226818Y-81244076D02*
X79264913Y-81167885D01*
X79264913Y-81167885D02*
X79303008Y-81129790D01*
X79303008Y-81129790D02*
X79379199Y-81091695D01*
X80331580Y-81091695D02*
X80179199Y-81091695D01*
X80179199Y-81091695D02*
X80103008Y-81129790D01*
X80103008Y-81129790D02*
X80064913Y-81167885D01*
X80064913Y-81167885D02*
X79988723Y-81282171D01*
X79988723Y-81282171D02*
X79950627Y-81434552D01*
X79950627Y-81434552D02*
X79950627Y-81739314D01*
X79950627Y-81739314D02*
X79988723Y-81815504D01*
X79988723Y-81815504D02*
X80026818Y-81853600D01*
X80026818Y-81853600D02*
X80103008Y-81891695D01*
X80103008Y-81891695D02*
X80255389Y-81891695D01*
X80255389Y-81891695D02*
X80331580Y-81853600D01*
X80331580Y-81853600D02*
X80369675Y-81815504D01*
X80369675Y-81815504D02*
X80407770Y-81739314D01*
X80407770Y-81739314D02*
X80407770Y-81548838D01*
X80407770Y-81548838D02*
X80369675Y-81472647D01*
X80369675Y-81472647D02*
X80331580Y-81434552D01*
X80331580Y-81434552D02*
X80255389Y-81396457D01*
X80255389Y-81396457D02*
X80103008Y-81396457D01*
X80103008Y-81396457D02*
X80026818Y-81434552D01*
X80026818Y-81434552D02*
X79988723Y-81472647D01*
X79988723Y-81472647D02*
X79950627Y-81548838D01*
X80750628Y-81586933D02*
X81360152Y-81586933D01*
X82160151Y-81891695D02*
X81703008Y-81891695D01*
X81931580Y-81891695D02*
X81931580Y-81091695D01*
X81931580Y-81091695D02*
X81855389Y-81205980D01*
X81855389Y-81205980D02*
X81779199Y-81282171D01*
X81779199Y-81282171D02*
X81703008Y-81320266D01*
X82426818Y-81091695D02*
X82960152Y-81091695D01*
X82960152Y-81091695D02*
X82617294Y-81891695D01*
D11*
X103866666Y-50562295D02*
X103866666Y-49762295D01*
X103866666Y-50143247D02*
X104323809Y-50143247D01*
X104323809Y-50562295D02*
X104323809Y-49762295D01*
X104590475Y-49762295D02*
X105047618Y-49762295D01*
X104819046Y-50562295D02*
X104819046Y-49762295D01*
X105238094Y-49762295D02*
X105771428Y-49762295D01*
X105771428Y-49762295D02*
X105428570Y-50562295D01*
X106457142Y-49762295D02*
X106076190Y-49762295D01*
X106076190Y-49762295D02*
X106038094Y-50143247D01*
X106038094Y-50143247D02*
X106076190Y-50105152D01*
X106076190Y-50105152D02*
X106152380Y-50067057D01*
X106152380Y-50067057D02*
X106342856Y-50067057D01*
X106342856Y-50067057D02*
X106419047Y-50105152D01*
X106419047Y-50105152D02*
X106457142Y-50143247D01*
X106457142Y-50143247D02*
X106495237Y-50219438D01*
X106495237Y-50219438D02*
X106495237Y-50409914D01*
X106495237Y-50409914D02*
X106457142Y-50486104D01*
X106457142Y-50486104D02*
X106419047Y-50524200D01*
X106419047Y-50524200D02*
X106342856Y-50562295D01*
X106342856Y-50562295D02*
X106152380Y-50562295D01*
X106152380Y-50562295D02*
X106076190Y-50524200D01*
X106076190Y-50524200D02*
X106038094Y-50486104D01*
X106761904Y-49762295D02*
X107257142Y-49762295D01*
X107257142Y-49762295D02*
X106990476Y-50067057D01*
X106990476Y-50067057D02*
X107104761Y-50067057D01*
X107104761Y-50067057D02*
X107180952Y-50105152D01*
X107180952Y-50105152D02*
X107219047Y-50143247D01*
X107219047Y-50143247D02*
X107257142Y-50219438D01*
X107257142Y-50219438D02*
X107257142Y-50409914D01*
X107257142Y-50409914D02*
X107219047Y-50486104D01*
X107219047Y-50486104D02*
X107180952Y-50524200D01*
X107180952Y-50524200D02*
X107104761Y-50562295D01*
X107104761Y-50562295D02*
X106876190Y-50562295D01*
X106876190Y-50562295D02*
X106799999Y-50524200D01*
X106799999Y-50524200D02*
X106761904Y-50486104D01*
X107523809Y-49762295D02*
X108019047Y-49762295D01*
X108019047Y-49762295D02*
X107752381Y-50067057D01*
X107752381Y-50067057D02*
X107866666Y-50067057D01*
X107866666Y-50067057D02*
X107942857Y-50105152D01*
X107942857Y-50105152D02*
X107980952Y-50143247D01*
X107980952Y-50143247D02*
X108019047Y-50219438D01*
X108019047Y-50219438D02*
X108019047Y-50409914D01*
X108019047Y-50409914D02*
X107980952Y-50486104D01*
X107980952Y-50486104D02*
X107942857Y-50524200D01*
X107942857Y-50524200D02*
X107866666Y-50562295D01*
X107866666Y-50562295D02*
X107638095Y-50562295D01*
X107638095Y-50562295D02*
X107561904Y-50524200D01*
X107561904Y-50524200D02*
X107523809Y-50486104D01*
X108361905Y-50257533D02*
X108971429Y-50257533D01*
X109771428Y-50562295D02*
X109314285Y-50562295D01*
X109542857Y-50562295D02*
X109542857Y-49762295D01*
X109542857Y-49762295D02*
X109466666Y-49876580D01*
X109466666Y-49876580D02*
X109390476Y-49952771D01*
X109390476Y-49952771D02*
X109314285Y-49990866D01*
X94209524Y-47362295D02*
X94209524Y-46562295D01*
X94209524Y-46562295D02*
X94400000Y-46562295D01*
X94400000Y-46562295D02*
X94514286Y-46600390D01*
X94514286Y-46600390D02*
X94590476Y-46676580D01*
X94590476Y-46676580D02*
X94628571Y-46752771D01*
X94628571Y-46752771D02*
X94666667Y-46905152D01*
X94666667Y-46905152D02*
X94666667Y-47019438D01*
X94666667Y-47019438D02*
X94628571Y-47171819D01*
X94628571Y-47171819D02*
X94590476Y-47248009D01*
X94590476Y-47248009D02*
X94514286Y-47324200D01*
X94514286Y-47324200D02*
X94400000Y-47362295D01*
X94400000Y-47362295D02*
X94209524Y-47362295D01*
X95047619Y-47362295D02*
X95200000Y-47362295D01*
X95200000Y-47362295D02*
X95276190Y-47324200D01*
X95276190Y-47324200D02*
X95314286Y-47286104D01*
X95314286Y-47286104D02*
X95390476Y-47171819D01*
X95390476Y-47171819D02*
X95428571Y-47019438D01*
X95428571Y-47019438D02*
X95428571Y-46714676D01*
X95428571Y-46714676D02*
X95390476Y-46638485D01*
X95390476Y-46638485D02*
X95352381Y-46600390D01*
X95352381Y-46600390D02*
X95276190Y-46562295D01*
X95276190Y-46562295D02*
X95123809Y-46562295D01*
X95123809Y-46562295D02*
X95047619Y-46600390D01*
X95047619Y-46600390D02*
X95009524Y-46638485D01*
X95009524Y-46638485D02*
X94971428Y-46714676D01*
X94971428Y-46714676D02*
X94971428Y-46905152D01*
X94971428Y-46905152D02*
X95009524Y-46981342D01*
X95009524Y-46981342D02*
X95047619Y-47019438D01*
X95047619Y-47019438D02*
X95123809Y-47057533D01*
X95123809Y-47057533D02*
X95276190Y-47057533D01*
X95276190Y-47057533D02*
X95352381Y-47019438D01*
X95352381Y-47019438D02*
X95390476Y-46981342D01*
X95390476Y-46981342D02*
X95428571Y-46905152D01*
X116485714Y-71362295D02*
X116219047Y-70981342D01*
X116028571Y-71362295D02*
X116028571Y-70562295D01*
X116028571Y-70562295D02*
X116333333Y-70562295D01*
X116333333Y-70562295D02*
X116409523Y-70600390D01*
X116409523Y-70600390D02*
X116447618Y-70638485D01*
X116447618Y-70638485D02*
X116485714Y-70714676D01*
X116485714Y-70714676D02*
X116485714Y-70828961D01*
X116485714Y-70828961D02*
X116447618Y-70905152D01*
X116447618Y-70905152D02*
X116409523Y-70943247D01*
X116409523Y-70943247D02*
X116333333Y-70981342D01*
X116333333Y-70981342D02*
X116028571Y-70981342D01*
X117247618Y-71362295D02*
X116790475Y-71362295D01*
X117019047Y-71362295D02*
X117019047Y-70562295D01*
X117019047Y-70562295D02*
X116942856Y-70676580D01*
X116942856Y-70676580D02*
X116866666Y-70752771D01*
X116866666Y-70752771D02*
X116790475Y-70790866D01*
X117933333Y-70828961D02*
X117933333Y-71362295D01*
X117742857Y-70524200D02*
X117552380Y-71095628D01*
X117552380Y-71095628D02*
X118047619Y-71095628D01*
X90466667Y-46762295D02*
X90200000Y-46381342D01*
X90009524Y-46762295D02*
X90009524Y-45962295D01*
X90009524Y-45962295D02*
X90314286Y-45962295D01*
X90314286Y-45962295D02*
X90390476Y-46000390D01*
X90390476Y-46000390D02*
X90428571Y-46038485D01*
X90428571Y-46038485D02*
X90466667Y-46114676D01*
X90466667Y-46114676D02*
X90466667Y-46228961D01*
X90466667Y-46228961D02*
X90428571Y-46305152D01*
X90428571Y-46305152D02*
X90390476Y-46343247D01*
X90390476Y-46343247D02*
X90314286Y-46381342D01*
X90314286Y-46381342D02*
X90009524Y-46381342D01*
X90733333Y-45962295D02*
X91228571Y-45962295D01*
X91228571Y-45962295D02*
X90961905Y-46267057D01*
X90961905Y-46267057D02*
X91076190Y-46267057D01*
X91076190Y-46267057D02*
X91152381Y-46305152D01*
X91152381Y-46305152D02*
X91190476Y-46343247D01*
X91190476Y-46343247D02*
X91228571Y-46419438D01*
X91228571Y-46419438D02*
X91228571Y-46609914D01*
X91228571Y-46609914D02*
X91190476Y-46686104D01*
X91190476Y-46686104D02*
X91152381Y-46724200D01*
X91152381Y-46724200D02*
X91076190Y-46762295D01*
X91076190Y-46762295D02*
X90847619Y-46762295D01*
X90847619Y-46762295D02*
X90771428Y-46724200D01*
X90771428Y-46724200D02*
X90733333Y-46686104D01*
X76133333Y-59754819D02*
X75800000Y-59278628D01*
X75561905Y-59754819D02*
X75561905Y-58754819D01*
X75561905Y-58754819D02*
X75942857Y-58754819D01*
X75942857Y-58754819D02*
X76038095Y-58802438D01*
X76038095Y-58802438D02*
X76085714Y-58850057D01*
X76085714Y-58850057D02*
X76133333Y-58945295D01*
X76133333Y-58945295D02*
X76133333Y-59088152D01*
X76133333Y-59088152D02*
X76085714Y-59183390D01*
X76085714Y-59183390D02*
X76038095Y-59231009D01*
X76038095Y-59231009D02*
X75942857Y-59278628D01*
X75942857Y-59278628D02*
X75561905Y-59278628D01*
X76514286Y-58850057D02*
X76561905Y-58802438D01*
X76561905Y-58802438D02*
X76657143Y-58754819D01*
X76657143Y-58754819D02*
X76895238Y-58754819D01*
X76895238Y-58754819D02*
X76990476Y-58802438D01*
X76990476Y-58802438D02*
X77038095Y-58850057D01*
X77038095Y-58850057D02*
X77085714Y-58945295D01*
X77085714Y-58945295D02*
X77085714Y-59040533D01*
X77085714Y-59040533D02*
X77038095Y-59183390D01*
X77038095Y-59183390D02*
X76466667Y-59754819D01*
X76466667Y-59754819D02*
X77085714Y-59754819D01*
X88466667Y-61886104D02*
X88428571Y-61924200D01*
X88428571Y-61924200D02*
X88314286Y-61962295D01*
X88314286Y-61962295D02*
X88238095Y-61962295D01*
X88238095Y-61962295D02*
X88123809Y-61924200D01*
X88123809Y-61924200D02*
X88047619Y-61848009D01*
X88047619Y-61848009D02*
X88009524Y-61771819D01*
X88009524Y-61771819D02*
X87971428Y-61619438D01*
X87971428Y-61619438D02*
X87971428Y-61505152D01*
X87971428Y-61505152D02*
X88009524Y-61352771D01*
X88009524Y-61352771D02*
X88047619Y-61276580D01*
X88047619Y-61276580D02*
X88123809Y-61200390D01*
X88123809Y-61200390D02*
X88238095Y-61162295D01*
X88238095Y-61162295D02*
X88314286Y-61162295D01*
X88314286Y-61162295D02*
X88428571Y-61200390D01*
X88428571Y-61200390D02*
X88466667Y-61238485D01*
X89190476Y-61162295D02*
X88809524Y-61162295D01*
X88809524Y-61162295D02*
X88771428Y-61543247D01*
X88771428Y-61543247D02*
X88809524Y-61505152D01*
X88809524Y-61505152D02*
X88885714Y-61467057D01*
X88885714Y-61467057D02*
X89076190Y-61467057D01*
X89076190Y-61467057D02*
X89152381Y-61505152D01*
X89152381Y-61505152D02*
X89190476Y-61543247D01*
X89190476Y-61543247D02*
X89228571Y-61619438D01*
X89228571Y-61619438D02*
X89228571Y-61809914D01*
X89228571Y-61809914D02*
X89190476Y-61886104D01*
X89190476Y-61886104D02*
X89152381Y-61924200D01*
X89152381Y-61924200D02*
X89076190Y-61962295D01*
X89076190Y-61962295D02*
X88885714Y-61962295D01*
X88885714Y-61962295D02*
X88809524Y-61924200D01*
X88809524Y-61924200D02*
X88771428Y-61886104D01*
X89433333Y-45559580D02*
X89385714Y-45607200D01*
X89385714Y-45607200D02*
X89242857Y-45654819D01*
X89242857Y-45654819D02*
X89147619Y-45654819D01*
X89147619Y-45654819D02*
X89004762Y-45607200D01*
X89004762Y-45607200D02*
X88909524Y-45511961D01*
X88909524Y-45511961D02*
X88861905Y-45416723D01*
X88861905Y-45416723D02*
X88814286Y-45226247D01*
X88814286Y-45226247D02*
X88814286Y-45083390D01*
X88814286Y-45083390D02*
X88861905Y-44892914D01*
X88861905Y-44892914D02*
X88909524Y-44797676D01*
X88909524Y-44797676D02*
X89004762Y-44702438D01*
X89004762Y-44702438D02*
X89147619Y-44654819D01*
X89147619Y-44654819D02*
X89242857Y-44654819D01*
X89242857Y-44654819D02*
X89385714Y-44702438D01*
X89385714Y-44702438D02*
X89433333Y-44750057D01*
X90290476Y-44654819D02*
X90100000Y-44654819D01*
X90100000Y-44654819D02*
X90004762Y-44702438D01*
X90004762Y-44702438D02*
X89957143Y-44750057D01*
X89957143Y-44750057D02*
X89861905Y-44892914D01*
X89861905Y-44892914D02*
X89814286Y-45083390D01*
X89814286Y-45083390D02*
X89814286Y-45464342D01*
X89814286Y-45464342D02*
X89861905Y-45559580D01*
X89861905Y-45559580D02*
X89909524Y-45607200D01*
X89909524Y-45607200D02*
X90004762Y-45654819D01*
X90004762Y-45654819D02*
X90195238Y-45654819D01*
X90195238Y-45654819D02*
X90290476Y-45607200D01*
X90290476Y-45607200D02*
X90338095Y-45559580D01*
X90338095Y-45559580D02*
X90385714Y-45464342D01*
X90385714Y-45464342D02*
X90385714Y-45226247D01*
X90385714Y-45226247D02*
X90338095Y-45131009D01*
X90338095Y-45131009D02*
X90290476Y-45083390D01*
X90290476Y-45083390D02*
X90195238Y-45035771D01*
X90195238Y-45035771D02*
X90004762Y-45035771D01*
X90004762Y-45035771D02*
X89909524Y-45083390D01*
X89909524Y-45083390D02*
X89861905Y-45131009D01*
X89861905Y-45131009D02*
X89814286Y-45226247D01*
X70595236Y-78454819D02*
X70261903Y-77978628D01*
X70023808Y-78454819D02*
X70023808Y-77454819D01*
X70023808Y-77454819D02*
X70404760Y-77454819D01*
X70404760Y-77454819D02*
X70499998Y-77502438D01*
X70499998Y-77502438D02*
X70547617Y-77550057D01*
X70547617Y-77550057D02*
X70595236Y-77645295D01*
X70595236Y-77645295D02*
X70595236Y-77788152D01*
X70595236Y-77788152D02*
X70547617Y-77883390D01*
X70547617Y-77883390D02*
X70499998Y-77931009D01*
X70499998Y-77931009D02*
X70404760Y-77978628D01*
X70404760Y-77978628D02*
X70023808Y-77978628D01*
X71166665Y-78454819D02*
X71071427Y-78407200D01*
X71071427Y-78407200D02*
X71023808Y-78359580D01*
X71023808Y-78359580D02*
X70976189Y-78264342D01*
X70976189Y-78264342D02*
X70976189Y-77978628D01*
X70976189Y-77978628D02*
X71023808Y-77883390D01*
X71023808Y-77883390D02*
X71071427Y-77835771D01*
X71071427Y-77835771D02*
X71166665Y-77788152D01*
X71166665Y-77788152D02*
X71309522Y-77788152D01*
X71309522Y-77788152D02*
X71404760Y-77835771D01*
X71404760Y-77835771D02*
X71452379Y-77883390D01*
X71452379Y-77883390D02*
X71499998Y-77978628D01*
X71499998Y-77978628D02*
X71499998Y-78264342D01*
X71499998Y-78264342D02*
X71452379Y-78359580D01*
X71452379Y-78359580D02*
X71404760Y-78407200D01*
X71404760Y-78407200D02*
X71309522Y-78454819D01*
X71309522Y-78454819D02*
X71166665Y-78454819D01*
X71785713Y-77788152D02*
X72166665Y-77788152D01*
X71928570Y-77454819D02*
X71928570Y-78311961D01*
X71928570Y-78311961D02*
X71976189Y-78407200D01*
X71976189Y-78407200D02*
X72071427Y-78454819D01*
X72071427Y-78454819D02*
X72166665Y-78454819D01*
X72928570Y-78454819D02*
X72928570Y-77931009D01*
X72928570Y-77931009D02*
X72880951Y-77835771D01*
X72880951Y-77835771D02*
X72785713Y-77788152D01*
X72785713Y-77788152D02*
X72595237Y-77788152D01*
X72595237Y-77788152D02*
X72499999Y-77835771D01*
X72928570Y-78407200D02*
X72833332Y-78454819D01*
X72833332Y-78454819D02*
X72595237Y-78454819D01*
X72595237Y-78454819D02*
X72499999Y-78407200D01*
X72499999Y-78407200D02*
X72452380Y-78311961D01*
X72452380Y-78311961D02*
X72452380Y-78216723D01*
X72452380Y-78216723D02*
X72499999Y-78121485D01*
X72499999Y-78121485D02*
X72595237Y-78073866D01*
X72595237Y-78073866D02*
X72833332Y-78073866D01*
X72833332Y-78073866D02*
X72928570Y-78026247D01*
X73404761Y-78454819D02*
X73404761Y-77788152D01*
X73404761Y-77978628D02*
X73452380Y-77883390D01*
X73452380Y-77883390D02*
X73499999Y-77835771D01*
X73499999Y-77835771D02*
X73595237Y-77788152D01*
X73595237Y-77788152D02*
X73690475Y-77788152D01*
X73928571Y-77788152D02*
X74166666Y-78454819D01*
X74404761Y-77788152D02*
X74166666Y-78454819D01*
X74166666Y-78454819D02*
X74071428Y-78692914D01*
X74071428Y-78692914D02*
X74023809Y-78740533D01*
X74023809Y-78740533D02*
X73928571Y-78788152D01*
X74547619Y-78550057D02*
X75309523Y-78550057D01*
X75547619Y-77931009D02*
X75880952Y-77931009D01*
X76023809Y-78454819D02*
X75547619Y-78454819D01*
X75547619Y-78454819D02*
X75547619Y-77454819D01*
X75547619Y-77454819D02*
X76023809Y-77454819D01*
X76452381Y-77788152D02*
X76452381Y-78454819D01*
X76452381Y-77883390D02*
X76500000Y-77835771D01*
X76500000Y-77835771D02*
X76595238Y-77788152D01*
X76595238Y-77788152D02*
X76738095Y-77788152D01*
X76738095Y-77788152D02*
X76833333Y-77835771D01*
X76833333Y-77835771D02*
X76880952Y-77931009D01*
X76880952Y-77931009D02*
X76880952Y-78454819D01*
X77785714Y-78407200D02*
X77690476Y-78454819D01*
X77690476Y-78454819D02*
X77500000Y-78454819D01*
X77500000Y-78454819D02*
X77404762Y-78407200D01*
X77404762Y-78407200D02*
X77357143Y-78359580D01*
X77357143Y-78359580D02*
X77309524Y-78264342D01*
X77309524Y-78264342D02*
X77309524Y-77978628D01*
X77309524Y-77978628D02*
X77357143Y-77883390D01*
X77357143Y-77883390D02*
X77404762Y-77835771D01*
X77404762Y-77835771D02*
X77500000Y-77788152D01*
X77500000Y-77788152D02*
X77690476Y-77788152D01*
X77690476Y-77788152D02*
X77785714Y-77835771D01*
X78357143Y-78454819D02*
X78261905Y-78407200D01*
X78261905Y-78407200D02*
X78214286Y-78359580D01*
X78214286Y-78359580D02*
X78166667Y-78264342D01*
X78166667Y-78264342D02*
X78166667Y-77978628D01*
X78166667Y-77978628D02*
X78214286Y-77883390D01*
X78214286Y-77883390D02*
X78261905Y-77835771D01*
X78261905Y-77835771D02*
X78357143Y-77788152D01*
X78357143Y-77788152D02*
X78500000Y-77788152D01*
X78500000Y-77788152D02*
X78595238Y-77835771D01*
X78595238Y-77835771D02*
X78642857Y-77883390D01*
X78642857Y-77883390D02*
X78690476Y-77978628D01*
X78690476Y-77978628D02*
X78690476Y-78264342D01*
X78690476Y-78264342D02*
X78642857Y-78359580D01*
X78642857Y-78359580D02*
X78595238Y-78407200D01*
X78595238Y-78407200D02*
X78500000Y-78454819D01*
X78500000Y-78454819D02*
X78357143Y-78454819D01*
X79547619Y-78454819D02*
X79547619Y-77454819D01*
X79547619Y-78407200D02*
X79452381Y-78454819D01*
X79452381Y-78454819D02*
X79261905Y-78454819D01*
X79261905Y-78454819D02*
X79166667Y-78407200D01*
X79166667Y-78407200D02*
X79119048Y-78359580D01*
X79119048Y-78359580D02*
X79071429Y-78264342D01*
X79071429Y-78264342D02*
X79071429Y-77978628D01*
X79071429Y-77978628D02*
X79119048Y-77883390D01*
X79119048Y-77883390D02*
X79166667Y-77835771D01*
X79166667Y-77835771D02*
X79261905Y-77788152D01*
X79261905Y-77788152D02*
X79452381Y-77788152D01*
X79452381Y-77788152D02*
X79547619Y-77835771D01*
X80404762Y-78407200D02*
X80309524Y-78454819D01*
X80309524Y-78454819D02*
X80119048Y-78454819D01*
X80119048Y-78454819D02*
X80023810Y-78407200D01*
X80023810Y-78407200D02*
X79976191Y-78311961D01*
X79976191Y-78311961D02*
X79976191Y-77931009D01*
X79976191Y-77931009D02*
X80023810Y-77835771D01*
X80023810Y-77835771D02*
X80119048Y-77788152D01*
X80119048Y-77788152D02*
X80309524Y-77788152D01*
X80309524Y-77788152D02*
X80404762Y-77835771D01*
X80404762Y-77835771D02*
X80452381Y-77931009D01*
X80452381Y-77931009D02*
X80452381Y-78026247D01*
X80452381Y-78026247D02*
X79976191Y-78121485D01*
X80880953Y-78454819D02*
X80880953Y-77788152D01*
X80880953Y-77978628D02*
X80928572Y-77883390D01*
X80928572Y-77883390D02*
X80976191Y-77835771D01*
X80976191Y-77835771D02*
X81071429Y-77788152D01*
X81071429Y-77788152D02*
X81166667Y-77788152D01*
X82023810Y-78454819D02*
X81452382Y-78454819D01*
X81738096Y-78454819D02*
X81738096Y-77454819D01*
X81738096Y-77454819D02*
X81642858Y-77597676D01*
X81642858Y-77597676D02*
X81547620Y-77692914D01*
X81547620Y-77692914D02*
X81452382Y-77740533D01*
X91266667Y-52962295D02*
X91000000Y-52581342D01*
X90809524Y-52962295D02*
X90809524Y-52162295D01*
X90809524Y-52162295D02*
X91114286Y-52162295D01*
X91114286Y-52162295D02*
X91190476Y-52200390D01*
X91190476Y-52200390D02*
X91228571Y-52238485D01*
X91228571Y-52238485D02*
X91266667Y-52314676D01*
X91266667Y-52314676D02*
X91266667Y-52428961D01*
X91266667Y-52428961D02*
X91228571Y-52505152D01*
X91228571Y-52505152D02*
X91190476Y-52543247D01*
X91190476Y-52543247D02*
X91114286Y-52581342D01*
X91114286Y-52581342D02*
X90809524Y-52581342D01*
X91952381Y-52428961D02*
X91952381Y-52962295D01*
X91761905Y-52124200D02*
X91571428Y-52695628D01*
X91571428Y-52695628D02*
X92066667Y-52695628D01*
X103486104Y-50333332D02*
X103524200Y-50371428D01*
X103524200Y-50371428D02*
X103562295Y-50485713D01*
X103562295Y-50485713D02*
X103562295Y-50561904D01*
X103562295Y-50561904D02*
X103524200Y-50676190D01*
X103524200Y-50676190D02*
X103448009Y-50752380D01*
X103448009Y-50752380D02*
X103371819Y-50790475D01*
X103371819Y-50790475D02*
X103219438Y-50828571D01*
X103219438Y-50828571D02*
X103105152Y-50828571D01*
X103105152Y-50828571D02*
X102952771Y-50790475D01*
X102952771Y-50790475D02*
X102876580Y-50752380D01*
X102876580Y-50752380D02*
X102800390Y-50676190D01*
X102800390Y-50676190D02*
X102762295Y-50561904D01*
X102762295Y-50561904D02*
X102762295Y-50485713D01*
X102762295Y-50485713D02*
X102800390Y-50371428D01*
X102800390Y-50371428D02*
X102838485Y-50333332D01*
X103562295Y-49571428D02*
X103562295Y-50028571D01*
X103562295Y-49799999D02*
X102762295Y-49799999D01*
X102762295Y-49799999D02*
X102876580Y-49876190D01*
X102876580Y-49876190D02*
X102952771Y-49952380D01*
X102952771Y-49952380D02*
X102990866Y-50028571D01*
X116485714Y-73962295D02*
X116219047Y-73581342D01*
X116028571Y-73962295D02*
X116028571Y-73162295D01*
X116028571Y-73162295D02*
X116333333Y-73162295D01*
X116333333Y-73162295D02*
X116409523Y-73200390D01*
X116409523Y-73200390D02*
X116447618Y-73238485D01*
X116447618Y-73238485D02*
X116485714Y-73314676D01*
X116485714Y-73314676D02*
X116485714Y-73428961D01*
X116485714Y-73428961D02*
X116447618Y-73505152D01*
X116447618Y-73505152D02*
X116409523Y-73543247D01*
X116409523Y-73543247D02*
X116333333Y-73581342D01*
X116333333Y-73581342D02*
X116028571Y-73581342D01*
X117247618Y-73962295D02*
X116790475Y-73962295D01*
X117019047Y-73962295D02*
X117019047Y-73162295D01*
X117019047Y-73162295D02*
X116942856Y-73276580D01*
X116942856Y-73276580D02*
X116866666Y-73352771D01*
X116866666Y-73352771D02*
X116790475Y-73390866D01*
X117514285Y-73162295D02*
X118009523Y-73162295D01*
X118009523Y-73162295D02*
X117742857Y-73467057D01*
X117742857Y-73467057D02*
X117857142Y-73467057D01*
X117857142Y-73467057D02*
X117933333Y-73505152D01*
X117933333Y-73505152D02*
X117971428Y-73543247D01*
X117971428Y-73543247D02*
X118009523Y-73619438D01*
X118009523Y-73619438D02*
X118009523Y-73809914D01*
X118009523Y-73809914D02*
X117971428Y-73886104D01*
X117971428Y-73886104D02*
X117933333Y-73924200D01*
X117933333Y-73924200D02*
X117857142Y-73962295D01*
X117857142Y-73962295D02*
X117628571Y-73962295D01*
X117628571Y-73962295D02*
X117552380Y-73924200D01*
X117552380Y-73924200D02*
X117514285Y-73886104D01*
X116009524Y-70262295D02*
X116009524Y-69462295D01*
X116009524Y-69462295D02*
X116200000Y-69462295D01*
X116200000Y-69462295D02*
X116314286Y-69500390D01*
X116314286Y-69500390D02*
X116390476Y-69576580D01*
X116390476Y-69576580D02*
X116428571Y-69652771D01*
X116428571Y-69652771D02*
X116466667Y-69805152D01*
X116466667Y-69805152D02*
X116466667Y-69919438D01*
X116466667Y-69919438D02*
X116428571Y-70071819D01*
X116428571Y-70071819D02*
X116390476Y-70148009D01*
X116390476Y-70148009D02*
X116314286Y-70224200D01*
X116314286Y-70224200D02*
X116200000Y-70262295D01*
X116200000Y-70262295D02*
X116009524Y-70262295D01*
X116733333Y-69462295D02*
X117228571Y-69462295D01*
X117228571Y-69462295D02*
X116961905Y-69767057D01*
X116961905Y-69767057D02*
X117076190Y-69767057D01*
X117076190Y-69767057D02*
X117152381Y-69805152D01*
X117152381Y-69805152D02*
X117190476Y-69843247D01*
X117190476Y-69843247D02*
X117228571Y-69919438D01*
X117228571Y-69919438D02*
X117228571Y-70109914D01*
X117228571Y-70109914D02*
X117190476Y-70186104D01*
X117190476Y-70186104D02*
X117152381Y-70224200D01*
X117152381Y-70224200D02*
X117076190Y-70262295D01*
X117076190Y-70262295D02*
X116847619Y-70262295D01*
X116847619Y-70262295D02*
X116771428Y-70224200D01*
X116771428Y-70224200D02*
X116733333Y-70186104D01*
X100233333Y-63489580D02*
X100185714Y-63537200D01*
X100185714Y-63537200D02*
X100042857Y-63584819D01*
X100042857Y-63584819D02*
X99947619Y-63584819D01*
X99947619Y-63584819D02*
X99804762Y-63537200D01*
X99804762Y-63537200D02*
X99709524Y-63441961D01*
X99709524Y-63441961D02*
X99661905Y-63346723D01*
X99661905Y-63346723D02*
X99614286Y-63156247D01*
X99614286Y-63156247D02*
X99614286Y-63013390D01*
X99614286Y-63013390D02*
X99661905Y-62822914D01*
X99661905Y-62822914D02*
X99709524Y-62727676D01*
X99709524Y-62727676D02*
X99804762Y-62632438D01*
X99804762Y-62632438D02*
X99947619Y-62584819D01*
X99947619Y-62584819D02*
X100042857Y-62584819D01*
X100042857Y-62584819D02*
X100185714Y-62632438D01*
X100185714Y-62632438D02*
X100233333Y-62680057D01*
X101090476Y-62918152D02*
X101090476Y-63584819D01*
X100852381Y-62537200D02*
X100614286Y-63251485D01*
X100614286Y-63251485D02*
X101233333Y-63251485D01*
X83666667Y-63486104D02*
X83628571Y-63524200D01*
X83628571Y-63524200D02*
X83514286Y-63562295D01*
X83514286Y-63562295D02*
X83438095Y-63562295D01*
X83438095Y-63562295D02*
X83323809Y-63524200D01*
X83323809Y-63524200D02*
X83247619Y-63448009D01*
X83247619Y-63448009D02*
X83209524Y-63371819D01*
X83209524Y-63371819D02*
X83171428Y-63219438D01*
X83171428Y-63219438D02*
X83171428Y-63105152D01*
X83171428Y-63105152D02*
X83209524Y-62952771D01*
X83209524Y-62952771D02*
X83247619Y-62876580D01*
X83247619Y-62876580D02*
X83323809Y-62800390D01*
X83323809Y-62800390D02*
X83438095Y-62762295D01*
X83438095Y-62762295D02*
X83514286Y-62762295D01*
X83514286Y-62762295D02*
X83628571Y-62800390D01*
X83628571Y-62800390D02*
X83666667Y-62838485D01*
X84123809Y-63105152D02*
X84047619Y-63067057D01*
X84047619Y-63067057D02*
X84009524Y-63028961D01*
X84009524Y-63028961D02*
X83971428Y-62952771D01*
X83971428Y-62952771D02*
X83971428Y-62914676D01*
X83971428Y-62914676D02*
X84009524Y-62838485D01*
X84009524Y-62838485D02*
X84047619Y-62800390D01*
X84047619Y-62800390D02*
X84123809Y-62762295D01*
X84123809Y-62762295D02*
X84276190Y-62762295D01*
X84276190Y-62762295D02*
X84352381Y-62800390D01*
X84352381Y-62800390D02*
X84390476Y-62838485D01*
X84390476Y-62838485D02*
X84428571Y-62914676D01*
X84428571Y-62914676D02*
X84428571Y-62952771D01*
X84428571Y-62952771D02*
X84390476Y-63028961D01*
X84390476Y-63028961D02*
X84352381Y-63067057D01*
X84352381Y-63067057D02*
X84276190Y-63105152D01*
X84276190Y-63105152D02*
X84123809Y-63105152D01*
X84123809Y-63105152D02*
X84047619Y-63143247D01*
X84047619Y-63143247D02*
X84009524Y-63181342D01*
X84009524Y-63181342D02*
X83971428Y-63257533D01*
X83971428Y-63257533D02*
X83971428Y-63409914D01*
X83971428Y-63409914D02*
X84009524Y-63486104D01*
X84009524Y-63486104D02*
X84047619Y-63524200D01*
X84047619Y-63524200D02*
X84123809Y-63562295D01*
X84123809Y-63562295D02*
X84276190Y-63562295D01*
X84276190Y-63562295D02*
X84352381Y-63524200D01*
X84352381Y-63524200D02*
X84390476Y-63486104D01*
X84390476Y-63486104D02*
X84428571Y-63409914D01*
X84428571Y-63409914D02*
X84428571Y-63257533D01*
X84428571Y-63257533D02*
X84390476Y-63181342D01*
X84390476Y-63181342D02*
X84352381Y-63143247D01*
X84352381Y-63143247D02*
X84276190Y-63105152D01*
X105285714Y-44562295D02*
X105019047Y-44181342D01*
X104828571Y-44562295D02*
X104828571Y-43762295D01*
X104828571Y-43762295D02*
X105133333Y-43762295D01*
X105133333Y-43762295D02*
X105209523Y-43800390D01*
X105209523Y-43800390D02*
X105247618Y-43838485D01*
X105247618Y-43838485D02*
X105285714Y-43914676D01*
X105285714Y-43914676D02*
X105285714Y-44028961D01*
X105285714Y-44028961D02*
X105247618Y-44105152D01*
X105247618Y-44105152D02*
X105209523Y-44143247D01*
X105209523Y-44143247D02*
X105133333Y-44181342D01*
X105133333Y-44181342D02*
X104828571Y-44181342D01*
X106047618Y-44562295D02*
X105590475Y-44562295D01*
X105819047Y-44562295D02*
X105819047Y-43762295D01*
X105819047Y-43762295D02*
X105742856Y-43876580D01*
X105742856Y-43876580D02*
X105666666Y-43952771D01*
X105666666Y-43952771D02*
X105590475Y-43990866D01*
X106809523Y-44562295D02*
X106352380Y-44562295D01*
X106580952Y-44562295D02*
X106580952Y-43762295D01*
X106580952Y-43762295D02*
X106504761Y-43876580D01*
X106504761Y-43876580D02*
X106428571Y-43952771D01*
X106428571Y-43952771D02*
X106352380Y-43990866D01*
X116466667Y-58962295D02*
X116200000Y-58581342D01*
X116009524Y-58962295D02*
X116009524Y-58162295D01*
X116009524Y-58162295D02*
X116314286Y-58162295D01*
X116314286Y-58162295D02*
X116390476Y-58200390D01*
X116390476Y-58200390D02*
X116428571Y-58238485D01*
X116428571Y-58238485D02*
X116466667Y-58314676D01*
X116466667Y-58314676D02*
X116466667Y-58428961D01*
X116466667Y-58428961D02*
X116428571Y-58505152D01*
X116428571Y-58505152D02*
X116390476Y-58543247D01*
X116390476Y-58543247D02*
X116314286Y-58581342D01*
X116314286Y-58581342D02*
X116009524Y-58581342D01*
X116733333Y-58162295D02*
X117266667Y-58162295D01*
X117266667Y-58162295D02*
X116923809Y-58962295D01*
X88157142Y-53609580D02*
X88109523Y-53657200D01*
X88109523Y-53657200D02*
X87966666Y-53704819D01*
X87966666Y-53704819D02*
X87871428Y-53704819D01*
X87871428Y-53704819D02*
X87728571Y-53657200D01*
X87728571Y-53657200D02*
X87633333Y-53561961D01*
X87633333Y-53561961D02*
X87585714Y-53466723D01*
X87585714Y-53466723D02*
X87538095Y-53276247D01*
X87538095Y-53276247D02*
X87538095Y-53133390D01*
X87538095Y-53133390D02*
X87585714Y-52942914D01*
X87585714Y-52942914D02*
X87633333Y-52847676D01*
X87633333Y-52847676D02*
X87728571Y-52752438D01*
X87728571Y-52752438D02*
X87871428Y-52704819D01*
X87871428Y-52704819D02*
X87966666Y-52704819D01*
X87966666Y-52704819D02*
X88109523Y-52752438D01*
X88109523Y-52752438D02*
X88157142Y-52800057D01*
X89109523Y-53704819D02*
X88538095Y-53704819D01*
X88823809Y-53704819D02*
X88823809Y-52704819D01*
X88823809Y-52704819D02*
X88728571Y-52847676D01*
X88728571Y-52847676D02*
X88633333Y-52942914D01*
X88633333Y-52942914D02*
X88538095Y-52990533D01*
X89728571Y-52704819D02*
X89823809Y-52704819D01*
X89823809Y-52704819D02*
X89919047Y-52752438D01*
X89919047Y-52752438D02*
X89966666Y-52800057D01*
X89966666Y-52800057D02*
X90014285Y-52895295D01*
X90014285Y-52895295D02*
X90061904Y-53085771D01*
X90061904Y-53085771D02*
X90061904Y-53323866D01*
X90061904Y-53323866D02*
X90014285Y-53514342D01*
X90014285Y-53514342D02*
X89966666Y-53609580D01*
X89966666Y-53609580D02*
X89919047Y-53657200D01*
X89919047Y-53657200D02*
X89823809Y-53704819D01*
X89823809Y-53704819D02*
X89728571Y-53704819D01*
X89728571Y-53704819D02*
X89633333Y-53657200D01*
X89633333Y-53657200D02*
X89585714Y-53609580D01*
X89585714Y-53609580D02*
X89538095Y-53514342D01*
X89538095Y-53514342D02*
X89490476Y-53323866D01*
X89490476Y-53323866D02*
X89490476Y-53085771D01*
X89490476Y-53085771D02*
X89538095Y-52895295D01*
X89538095Y-52895295D02*
X89585714Y-52800057D01*
X89585714Y-52800057D02*
X89633333Y-52752438D01*
X89633333Y-52752438D02*
X89728571Y-52704819D01*
X116009524Y-62762295D02*
X116009524Y-61962295D01*
X116009524Y-61962295D02*
X116200000Y-61962295D01*
X116200000Y-61962295D02*
X116314286Y-62000390D01*
X116314286Y-62000390D02*
X116390476Y-62076580D01*
X116390476Y-62076580D02*
X116428571Y-62152771D01*
X116428571Y-62152771D02*
X116466667Y-62305152D01*
X116466667Y-62305152D02*
X116466667Y-62419438D01*
X116466667Y-62419438D02*
X116428571Y-62571819D01*
X116428571Y-62571819D02*
X116390476Y-62648009D01*
X116390476Y-62648009D02*
X116314286Y-62724200D01*
X116314286Y-62724200D02*
X116200000Y-62762295D01*
X116200000Y-62762295D02*
X116009524Y-62762295D01*
X117152381Y-61962295D02*
X117000000Y-61962295D01*
X117000000Y-61962295D02*
X116923809Y-62000390D01*
X116923809Y-62000390D02*
X116885714Y-62038485D01*
X116885714Y-62038485D02*
X116809524Y-62152771D01*
X116809524Y-62152771D02*
X116771428Y-62305152D01*
X116771428Y-62305152D02*
X116771428Y-62609914D01*
X116771428Y-62609914D02*
X116809524Y-62686104D01*
X116809524Y-62686104D02*
X116847619Y-62724200D01*
X116847619Y-62724200D02*
X116923809Y-62762295D01*
X116923809Y-62762295D02*
X117076190Y-62762295D01*
X117076190Y-62762295D02*
X117152381Y-62724200D01*
X117152381Y-62724200D02*
X117190476Y-62686104D01*
X117190476Y-62686104D02*
X117228571Y-62609914D01*
X117228571Y-62609914D02*
X117228571Y-62419438D01*
X117228571Y-62419438D02*
X117190476Y-62343247D01*
X117190476Y-62343247D02*
X117152381Y-62305152D01*
X117152381Y-62305152D02*
X117076190Y-62267057D01*
X117076190Y-62267057D02*
X116923809Y-62267057D01*
X116923809Y-62267057D02*
X116847619Y-62305152D01*
X116847619Y-62305152D02*
X116809524Y-62343247D01*
X116809524Y-62343247D02*
X116771428Y-62419438D01*
X86383333Y-64654819D02*
X86050000Y-64178628D01*
X85811905Y-64654819D02*
X85811905Y-63654819D01*
X85811905Y-63654819D02*
X86192857Y-63654819D01*
X86192857Y-63654819D02*
X86288095Y-63702438D01*
X86288095Y-63702438D02*
X86335714Y-63750057D01*
X86335714Y-63750057D02*
X86383333Y-63845295D01*
X86383333Y-63845295D02*
X86383333Y-63988152D01*
X86383333Y-63988152D02*
X86335714Y-64083390D01*
X86335714Y-64083390D02*
X86288095Y-64131009D01*
X86288095Y-64131009D02*
X86192857Y-64178628D01*
X86192857Y-64178628D02*
X85811905Y-64178628D01*
X86859524Y-64654819D02*
X87050000Y-64654819D01*
X87050000Y-64654819D02*
X87145238Y-64607200D01*
X87145238Y-64607200D02*
X87192857Y-64559580D01*
X87192857Y-64559580D02*
X87288095Y-64416723D01*
X87288095Y-64416723D02*
X87335714Y-64226247D01*
X87335714Y-64226247D02*
X87335714Y-63845295D01*
X87335714Y-63845295D02*
X87288095Y-63750057D01*
X87288095Y-63750057D02*
X87240476Y-63702438D01*
X87240476Y-63702438D02*
X87145238Y-63654819D01*
X87145238Y-63654819D02*
X86954762Y-63654819D01*
X86954762Y-63654819D02*
X86859524Y-63702438D01*
X86859524Y-63702438D02*
X86811905Y-63750057D01*
X86811905Y-63750057D02*
X86764286Y-63845295D01*
X86764286Y-63845295D02*
X86764286Y-64083390D01*
X86764286Y-64083390D02*
X86811905Y-64178628D01*
X86811905Y-64178628D02*
X86859524Y-64226247D01*
X86859524Y-64226247D02*
X86954762Y-64273866D01*
X86954762Y-64273866D02*
X87145238Y-64273866D01*
X87145238Y-64273866D02*
X87240476Y-64226247D01*
X87240476Y-64226247D02*
X87288095Y-64178628D01*
X87288095Y-64178628D02*
X87335714Y-64083390D01*
X90057141Y-58724200D02*
X90171427Y-58762295D01*
X90171427Y-58762295D02*
X90361903Y-58762295D01*
X90361903Y-58762295D02*
X90438094Y-58724200D01*
X90438094Y-58724200D02*
X90476189Y-58686104D01*
X90476189Y-58686104D02*
X90514284Y-58609914D01*
X90514284Y-58609914D02*
X90514284Y-58533723D01*
X90514284Y-58533723D02*
X90476189Y-58457533D01*
X90476189Y-58457533D02*
X90438094Y-58419438D01*
X90438094Y-58419438D02*
X90361903Y-58381342D01*
X90361903Y-58381342D02*
X90209522Y-58343247D01*
X90209522Y-58343247D02*
X90133332Y-58305152D01*
X90133332Y-58305152D02*
X90095237Y-58267057D01*
X90095237Y-58267057D02*
X90057141Y-58190866D01*
X90057141Y-58190866D02*
X90057141Y-58114676D01*
X90057141Y-58114676D02*
X90095237Y-58038485D01*
X90095237Y-58038485D02*
X90133332Y-58000390D01*
X90133332Y-58000390D02*
X90209522Y-57962295D01*
X90209522Y-57962295D02*
X90399999Y-57962295D01*
X90399999Y-57962295D02*
X90514284Y-58000390D01*
X90742856Y-57962295D02*
X91199999Y-57962295D01*
X90971427Y-58762295D02*
X90971427Y-57962295D01*
X91466666Y-58762295D02*
X91466666Y-57962295D01*
X91466666Y-57962295D02*
X91733332Y-58533723D01*
X91733332Y-58533723D02*
X91999999Y-57962295D01*
X91999999Y-57962295D02*
X91999999Y-58762295D01*
X92304761Y-57962295D02*
X92799999Y-57962295D01*
X92799999Y-57962295D02*
X92533333Y-58267057D01*
X92533333Y-58267057D02*
X92647618Y-58267057D01*
X92647618Y-58267057D02*
X92723809Y-58305152D01*
X92723809Y-58305152D02*
X92761904Y-58343247D01*
X92761904Y-58343247D02*
X92799999Y-58419438D01*
X92799999Y-58419438D02*
X92799999Y-58609914D01*
X92799999Y-58609914D02*
X92761904Y-58686104D01*
X92761904Y-58686104D02*
X92723809Y-58724200D01*
X92723809Y-58724200D02*
X92647618Y-58762295D01*
X92647618Y-58762295D02*
X92419047Y-58762295D01*
X92419047Y-58762295D02*
X92342856Y-58724200D01*
X92342856Y-58724200D02*
X92304761Y-58686104D01*
X93104761Y-58038485D02*
X93142857Y-58000390D01*
X93142857Y-58000390D02*
X93219047Y-57962295D01*
X93219047Y-57962295D02*
X93409523Y-57962295D01*
X93409523Y-57962295D02*
X93485714Y-58000390D01*
X93485714Y-58000390D02*
X93523809Y-58038485D01*
X93523809Y-58038485D02*
X93561904Y-58114676D01*
X93561904Y-58114676D02*
X93561904Y-58190866D01*
X93561904Y-58190866D02*
X93523809Y-58305152D01*
X93523809Y-58305152D02*
X93066666Y-58762295D01*
X93066666Y-58762295D02*
X93561904Y-58762295D01*
X94171428Y-58343247D02*
X93904762Y-58343247D01*
X93904762Y-58762295D02*
X93904762Y-57962295D01*
X93904762Y-57962295D02*
X94285714Y-57962295D01*
X94742857Y-57962295D02*
X94819047Y-57962295D01*
X94819047Y-57962295D02*
X94895238Y-58000390D01*
X94895238Y-58000390D02*
X94933333Y-58038485D01*
X94933333Y-58038485D02*
X94971428Y-58114676D01*
X94971428Y-58114676D02*
X95009523Y-58267057D01*
X95009523Y-58267057D02*
X95009523Y-58457533D01*
X95009523Y-58457533D02*
X94971428Y-58609914D01*
X94971428Y-58609914D02*
X94933333Y-58686104D01*
X94933333Y-58686104D02*
X94895238Y-58724200D01*
X94895238Y-58724200D02*
X94819047Y-58762295D01*
X94819047Y-58762295D02*
X94742857Y-58762295D01*
X94742857Y-58762295D02*
X94666666Y-58724200D01*
X94666666Y-58724200D02*
X94628571Y-58686104D01*
X94628571Y-58686104D02*
X94590476Y-58609914D01*
X94590476Y-58609914D02*
X94552380Y-58457533D01*
X94552380Y-58457533D02*
X94552380Y-58267057D01*
X94552380Y-58267057D02*
X94590476Y-58114676D01*
X94590476Y-58114676D02*
X94628571Y-58038485D01*
X94628571Y-58038485D02*
X94666666Y-58000390D01*
X94666666Y-58000390D02*
X94742857Y-57962295D01*
X95695238Y-58228961D02*
X95695238Y-58762295D01*
X95504762Y-57924200D02*
X95314285Y-58495628D01*
X95314285Y-58495628D02*
X95809524Y-58495628D01*
X96076190Y-58038485D02*
X96114286Y-58000390D01*
X96114286Y-58000390D02*
X96190476Y-57962295D01*
X96190476Y-57962295D02*
X96380952Y-57962295D01*
X96380952Y-57962295D02*
X96457143Y-58000390D01*
X96457143Y-58000390D02*
X96495238Y-58038485D01*
X96495238Y-58038485D02*
X96533333Y-58114676D01*
X96533333Y-58114676D02*
X96533333Y-58190866D01*
X96533333Y-58190866D02*
X96495238Y-58305152D01*
X96495238Y-58305152D02*
X96038095Y-58762295D01*
X96038095Y-58762295D02*
X96533333Y-58762295D01*
X97142857Y-58343247D02*
X96876191Y-58343247D01*
X96876191Y-58762295D02*
X96876191Y-57962295D01*
X96876191Y-57962295D02*
X97257143Y-57962295D01*
X97904762Y-57962295D02*
X97752381Y-57962295D01*
X97752381Y-57962295D02*
X97676190Y-58000390D01*
X97676190Y-58000390D02*
X97638095Y-58038485D01*
X97638095Y-58038485D02*
X97561905Y-58152771D01*
X97561905Y-58152771D02*
X97523809Y-58305152D01*
X97523809Y-58305152D02*
X97523809Y-58609914D01*
X97523809Y-58609914D02*
X97561905Y-58686104D01*
X97561905Y-58686104D02*
X97600000Y-58724200D01*
X97600000Y-58724200D02*
X97676190Y-58762295D01*
X97676190Y-58762295D02*
X97828571Y-58762295D01*
X97828571Y-58762295D02*
X97904762Y-58724200D01*
X97904762Y-58724200D02*
X97942857Y-58686104D01*
X97942857Y-58686104D02*
X97980952Y-58609914D01*
X97980952Y-58609914D02*
X97980952Y-58419438D01*
X97980952Y-58419438D02*
X97942857Y-58343247D01*
X97942857Y-58343247D02*
X97904762Y-58305152D01*
X97904762Y-58305152D02*
X97828571Y-58267057D01*
X97828571Y-58267057D02*
X97676190Y-58267057D01*
X97676190Y-58267057D02*
X97600000Y-58305152D01*
X97600000Y-58305152D02*
X97561905Y-58343247D01*
X97561905Y-58343247D02*
X97523809Y-58419438D01*
X98323810Y-58762295D02*
X98323810Y-57962295D01*
X98323810Y-57962295D02*
X98628572Y-57962295D01*
X98628572Y-57962295D02*
X98704762Y-58000390D01*
X98704762Y-58000390D02*
X98742857Y-58038485D01*
X98742857Y-58038485D02*
X98780953Y-58114676D01*
X98780953Y-58114676D02*
X98780953Y-58228961D01*
X98780953Y-58228961D02*
X98742857Y-58305152D01*
X98742857Y-58305152D02*
X98704762Y-58343247D01*
X98704762Y-58343247D02*
X98628572Y-58381342D01*
X98628572Y-58381342D02*
X98323810Y-58381342D01*
X99466667Y-57962295D02*
X99314286Y-57962295D01*
X99314286Y-57962295D02*
X99238095Y-58000390D01*
X99238095Y-58000390D02*
X99200000Y-58038485D01*
X99200000Y-58038485D02*
X99123810Y-58152771D01*
X99123810Y-58152771D02*
X99085714Y-58305152D01*
X99085714Y-58305152D02*
X99085714Y-58609914D01*
X99085714Y-58609914D02*
X99123810Y-58686104D01*
X99123810Y-58686104D02*
X99161905Y-58724200D01*
X99161905Y-58724200D02*
X99238095Y-58762295D01*
X99238095Y-58762295D02*
X99390476Y-58762295D01*
X99390476Y-58762295D02*
X99466667Y-58724200D01*
X99466667Y-58724200D02*
X99504762Y-58686104D01*
X99504762Y-58686104D02*
X99542857Y-58609914D01*
X99542857Y-58609914D02*
X99542857Y-58419438D01*
X99542857Y-58419438D02*
X99504762Y-58343247D01*
X99504762Y-58343247D02*
X99466667Y-58305152D01*
X99466667Y-58305152D02*
X99390476Y-58267057D01*
X99390476Y-58267057D02*
X99238095Y-58267057D01*
X99238095Y-58267057D02*
X99161905Y-58305152D01*
X99161905Y-58305152D02*
X99123810Y-58343247D01*
X99123810Y-58343247D02*
X99085714Y-58419438D01*
X93285714Y-52962295D02*
X93019047Y-52581342D01*
X92828571Y-52962295D02*
X92828571Y-52162295D01*
X92828571Y-52162295D02*
X93133333Y-52162295D01*
X93133333Y-52162295D02*
X93209523Y-52200390D01*
X93209523Y-52200390D02*
X93247618Y-52238485D01*
X93247618Y-52238485D02*
X93285714Y-52314676D01*
X93285714Y-52314676D02*
X93285714Y-52428961D01*
X93285714Y-52428961D02*
X93247618Y-52505152D01*
X93247618Y-52505152D02*
X93209523Y-52543247D01*
X93209523Y-52543247D02*
X93133333Y-52581342D01*
X93133333Y-52581342D02*
X92828571Y-52581342D01*
X94047618Y-52962295D02*
X93590475Y-52962295D01*
X93819047Y-52962295D02*
X93819047Y-52162295D01*
X93819047Y-52162295D02*
X93742856Y-52276580D01*
X93742856Y-52276580D02*
X93666666Y-52352771D01*
X93666666Y-52352771D02*
X93590475Y-52390866D01*
X94314285Y-52162295D02*
X94847619Y-52162295D01*
X94847619Y-52162295D02*
X94504761Y-52962295D01*
X110276189Y-46943247D02*
X110390475Y-46981342D01*
X110390475Y-46981342D02*
X110428570Y-47019438D01*
X110428570Y-47019438D02*
X110466666Y-47095628D01*
X110466666Y-47095628D02*
X110466666Y-47209914D01*
X110466666Y-47209914D02*
X110428570Y-47286104D01*
X110428570Y-47286104D02*
X110390475Y-47324200D01*
X110390475Y-47324200D02*
X110314285Y-47362295D01*
X110314285Y-47362295D02*
X110009523Y-47362295D01*
X110009523Y-47362295D02*
X110009523Y-46562295D01*
X110009523Y-46562295D02*
X110276189Y-46562295D01*
X110276189Y-46562295D02*
X110352380Y-46600390D01*
X110352380Y-46600390D02*
X110390475Y-46638485D01*
X110390475Y-46638485D02*
X110428570Y-46714676D01*
X110428570Y-46714676D02*
X110428570Y-46790866D01*
X110428570Y-46790866D02*
X110390475Y-46867057D01*
X110390475Y-46867057D02*
X110352380Y-46905152D01*
X110352380Y-46905152D02*
X110276189Y-46943247D01*
X110276189Y-46943247D02*
X110009523Y-46943247D01*
X111152380Y-47362295D02*
X111152380Y-46943247D01*
X111152380Y-46943247D02*
X111114285Y-46867057D01*
X111114285Y-46867057D02*
X111038094Y-46828961D01*
X111038094Y-46828961D02*
X110885713Y-46828961D01*
X110885713Y-46828961D02*
X110809523Y-46867057D01*
X111152380Y-47324200D02*
X111076189Y-47362295D01*
X111076189Y-47362295D02*
X110885713Y-47362295D01*
X110885713Y-47362295D02*
X110809523Y-47324200D01*
X110809523Y-47324200D02*
X110771427Y-47248009D01*
X110771427Y-47248009D02*
X110771427Y-47171819D01*
X110771427Y-47171819D02*
X110809523Y-47095628D01*
X110809523Y-47095628D02*
X110885713Y-47057533D01*
X110885713Y-47057533D02*
X111076189Y-47057533D01*
X111076189Y-47057533D02*
X111152380Y-47019438D01*
X111419047Y-46828961D02*
X111723809Y-46828961D01*
X111533333Y-46562295D02*
X111533333Y-47248009D01*
X111533333Y-47248009D02*
X111571428Y-47324200D01*
X111571428Y-47324200D02*
X111647618Y-47362295D01*
X111647618Y-47362295D02*
X111723809Y-47362295D01*
X111876190Y-46828961D02*
X112180952Y-46828961D01*
X111990476Y-46562295D02*
X111990476Y-47248009D01*
X111990476Y-47248009D02*
X112028571Y-47324200D01*
X112028571Y-47324200D02*
X112104761Y-47362295D01*
X112104761Y-47362295D02*
X112180952Y-47362295D01*
X112752381Y-47324200D02*
X112676190Y-47362295D01*
X112676190Y-47362295D02*
X112523809Y-47362295D01*
X112523809Y-47362295D02*
X112447619Y-47324200D01*
X112447619Y-47324200D02*
X112409523Y-47248009D01*
X112409523Y-47248009D02*
X112409523Y-46943247D01*
X112409523Y-46943247D02*
X112447619Y-46867057D01*
X112447619Y-46867057D02*
X112523809Y-46828961D01*
X112523809Y-46828961D02*
X112676190Y-46828961D01*
X112676190Y-46828961D02*
X112752381Y-46867057D01*
X112752381Y-46867057D02*
X112790476Y-46943247D01*
X112790476Y-46943247D02*
X112790476Y-47019438D01*
X112790476Y-47019438D02*
X112409523Y-47095628D01*
X113133333Y-47362295D02*
X113133333Y-46828961D01*
X113133333Y-46981342D02*
X113171428Y-46905152D01*
X113171428Y-46905152D02*
X113209523Y-46867057D01*
X113209523Y-46867057D02*
X113285714Y-46828961D01*
X113285714Y-46828961D02*
X113361904Y-46828961D01*
X113552380Y-46828961D02*
X113742856Y-47362295D01*
X113933333Y-46828961D02*
X113742856Y-47362295D01*
X113742856Y-47362295D02*
X113666666Y-47552771D01*
X113666666Y-47552771D02*
X113628571Y-47590866D01*
X113628571Y-47590866D02*
X113552380Y-47628961D01*
X114047619Y-47438485D02*
X114657142Y-47438485D01*
X115304762Y-47286104D02*
X115266666Y-47324200D01*
X115266666Y-47324200D02*
X115152381Y-47362295D01*
X115152381Y-47362295D02*
X115076190Y-47362295D01*
X115076190Y-47362295D02*
X114961904Y-47324200D01*
X114961904Y-47324200D02*
X114885714Y-47248009D01*
X114885714Y-47248009D02*
X114847619Y-47171819D01*
X114847619Y-47171819D02*
X114809523Y-47019438D01*
X114809523Y-47019438D02*
X114809523Y-46905152D01*
X114809523Y-46905152D02*
X114847619Y-46752771D01*
X114847619Y-46752771D02*
X114885714Y-46676580D01*
X114885714Y-46676580D02*
X114961904Y-46600390D01*
X114961904Y-46600390D02*
X115076190Y-46562295D01*
X115076190Y-46562295D02*
X115152381Y-46562295D01*
X115152381Y-46562295D02*
X115266666Y-46600390D01*
X115266666Y-46600390D02*
X115304762Y-46638485D01*
X115952381Y-47324200D02*
X115876190Y-47362295D01*
X115876190Y-47362295D02*
X115723809Y-47362295D01*
X115723809Y-47362295D02*
X115647619Y-47324200D01*
X115647619Y-47324200D02*
X115609523Y-47248009D01*
X115609523Y-47248009D02*
X115609523Y-46943247D01*
X115609523Y-46943247D02*
X115647619Y-46867057D01*
X115647619Y-46867057D02*
X115723809Y-46828961D01*
X115723809Y-46828961D02*
X115876190Y-46828961D01*
X115876190Y-46828961D02*
X115952381Y-46867057D01*
X115952381Y-46867057D02*
X115990476Y-46943247D01*
X115990476Y-46943247D02*
X115990476Y-47019438D01*
X115990476Y-47019438D02*
X115609523Y-47095628D01*
X116447618Y-47362295D02*
X116371428Y-47324200D01*
X116371428Y-47324200D02*
X116333333Y-47248009D01*
X116333333Y-47248009D02*
X116333333Y-46562295D01*
X116866666Y-47362295D02*
X116790476Y-47324200D01*
X116790476Y-47324200D02*
X116752381Y-47248009D01*
X116752381Y-47248009D02*
X116752381Y-46562295D01*
X105285714Y-46162295D02*
X105019047Y-45781342D01*
X104828571Y-46162295D02*
X104828571Y-45362295D01*
X104828571Y-45362295D02*
X105133333Y-45362295D01*
X105133333Y-45362295D02*
X105209523Y-45400390D01*
X105209523Y-45400390D02*
X105247618Y-45438485D01*
X105247618Y-45438485D02*
X105285714Y-45514676D01*
X105285714Y-45514676D02*
X105285714Y-45628961D01*
X105285714Y-45628961D02*
X105247618Y-45705152D01*
X105247618Y-45705152D02*
X105209523Y-45743247D01*
X105209523Y-45743247D02*
X105133333Y-45781342D01*
X105133333Y-45781342D02*
X104828571Y-45781342D01*
X106047618Y-46162295D02*
X105590475Y-46162295D01*
X105819047Y-46162295D02*
X105819047Y-45362295D01*
X105819047Y-45362295D02*
X105742856Y-45476580D01*
X105742856Y-45476580D02*
X105666666Y-45552771D01*
X105666666Y-45552771D02*
X105590475Y-45590866D01*
X106504761Y-45705152D02*
X106428571Y-45667057D01*
X106428571Y-45667057D02*
X106390476Y-45628961D01*
X106390476Y-45628961D02*
X106352380Y-45552771D01*
X106352380Y-45552771D02*
X106352380Y-45514676D01*
X106352380Y-45514676D02*
X106390476Y-45438485D01*
X106390476Y-45438485D02*
X106428571Y-45400390D01*
X106428571Y-45400390D02*
X106504761Y-45362295D01*
X106504761Y-45362295D02*
X106657142Y-45362295D01*
X106657142Y-45362295D02*
X106733333Y-45400390D01*
X106733333Y-45400390D02*
X106771428Y-45438485D01*
X106771428Y-45438485D02*
X106809523Y-45514676D01*
X106809523Y-45514676D02*
X106809523Y-45552771D01*
X106809523Y-45552771D02*
X106771428Y-45628961D01*
X106771428Y-45628961D02*
X106733333Y-45667057D01*
X106733333Y-45667057D02*
X106657142Y-45705152D01*
X106657142Y-45705152D02*
X106504761Y-45705152D01*
X106504761Y-45705152D02*
X106428571Y-45743247D01*
X106428571Y-45743247D02*
X106390476Y-45781342D01*
X106390476Y-45781342D02*
X106352380Y-45857533D01*
X106352380Y-45857533D02*
X106352380Y-46009914D01*
X106352380Y-46009914D02*
X106390476Y-46086104D01*
X106390476Y-46086104D02*
X106428571Y-46124200D01*
X106428571Y-46124200D02*
X106504761Y-46162295D01*
X106504761Y-46162295D02*
X106657142Y-46162295D01*
X106657142Y-46162295D02*
X106733333Y-46124200D01*
X106733333Y-46124200D02*
X106771428Y-46086104D01*
X106771428Y-46086104D02*
X106809523Y-46009914D01*
X106809523Y-46009914D02*
X106809523Y-45857533D01*
X106809523Y-45857533D02*
X106771428Y-45781342D01*
X106771428Y-45781342D02*
X106733333Y-45743247D01*
X106733333Y-45743247D02*
X106657142Y-45705152D01*
X83438095Y-49254819D02*
X83438095Y-50064342D01*
X83438095Y-50064342D02*
X83485714Y-50159580D01*
X83485714Y-50159580D02*
X83533333Y-50207200D01*
X83533333Y-50207200D02*
X83628571Y-50254819D01*
X83628571Y-50254819D02*
X83819047Y-50254819D01*
X83819047Y-50254819D02*
X83914285Y-50207200D01*
X83914285Y-50207200D02*
X83961904Y-50159580D01*
X83961904Y-50159580D02*
X84009523Y-50064342D01*
X84009523Y-50064342D02*
X84009523Y-49254819D01*
X84438095Y-49350057D02*
X84485714Y-49302438D01*
X84485714Y-49302438D02*
X84580952Y-49254819D01*
X84580952Y-49254819D02*
X84819047Y-49254819D01*
X84819047Y-49254819D02*
X84914285Y-49302438D01*
X84914285Y-49302438D02*
X84961904Y-49350057D01*
X84961904Y-49350057D02*
X85009523Y-49445295D01*
X85009523Y-49445295D02*
X85009523Y-49540533D01*
X85009523Y-49540533D02*
X84961904Y-49683390D01*
X84961904Y-49683390D02*
X84390476Y-50254819D01*
X84390476Y-50254819D02*
X85009523Y-50254819D01*
X103342856Y-47931009D02*
X103485713Y-47978628D01*
X103485713Y-47978628D02*
X103533332Y-48026247D01*
X103533332Y-48026247D02*
X103580951Y-48121485D01*
X103580951Y-48121485D02*
X103580951Y-48264342D01*
X103580951Y-48264342D02*
X103533332Y-48359580D01*
X103533332Y-48359580D02*
X103485713Y-48407200D01*
X103485713Y-48407200D02*
X103390475Y-48454819D01*
X103390475Y-48454819D02*
X103009523Y-48454819D01*
X103009523Y-48454819D02*
X103009523Y-47454819D01*
X103009523Y-47454819D02*
X103342856Y-47454819D01*
X103342856Y-47454819D02*
X103438094Y-47502438D01*
X103438094Y-47502438D02*
X103485713Y-47550057D01*
X103485713Y-47550057D02*
X103533332Y-47645295D01*
X103533332Y-47645295D02*
X103533332Y-47740533D01*
X103533332Y-47740533D02*
X103485713Y-47835771D01*
X103485713Y-47835771D02*
X103438094Y-47883390D01*
X103438094Y-47883390D02*
X103342856Y-47931009D01*
X103342856Y-47931009D02*
X103009523Y-47931009D01*
X104438094Y-47788152D02*
X104438094Y-48454819D01*
X104009523Y-47788152D02*
X104009523Y-48311961D01*
X104009523Y-48311961D02*
X104057142Y-48407200D01*
X104057142Y-48407200D02*
X104152380Y-48454819D01*
X104152380Y-48454819D02*
X104295237Y-48454819D01*
X104295237Y-48454819D02*
X104390475Y-48407200D01*
X104390475Y-48407200D02*
X104438094Y-48359580D01*
X104771428Y-47788152D02*
X105152380Y-47788152D01*
X104914285Y-47454819D02*
X104914285Y-48311961D01*
X104914285Y-48311961D02*
X104961904Y-48407200D01*
X104961904Y-48407200D02*
X105057142Y-48454819D01*
X105057142Y-48454819D02*
X105152380Y-48454819D01*
X105342857Y-47788152D02*
X105723809Y-47788152D01*
X105485714Y-47454819D02*
X105485714Y-48311961D01*
X105485714Y-48311961D02*
X105533333Y-48407200D01*
X105533333Y-48407200D02*
X105628571Y-48454819D01*
X105628571Y-48454819D02*
X105723809Y-48454819D01*
X106200000Y-48454819D02*
X106104762Y-48407200D01*
X106104762Y-48407200D02*
X106057143Y-48359580D01*
X106057143Y-48359580D02*
X106009524Y-48264342D01*
X106009524Y-48264342D02*
X106009524Y-47978628D01*
X106009524Y-47978628D02*
X106057143Y-47883390D01*
X106057143Y-47883390D02*
X106104762Y-47835771D01*
X106104762Y-47835771D02*
X106200000Y-47788152D01*
X106200000Y-47788152D02*
X106342857Y-47788152D01*
X106342857Y-47788152D02*
X106438095Y-47835771D01*
X106438095Y-47835771D02*
X106485714Y-47883390D01*
X106485714Y-47883390D02*
X106533333Y-47978628D01*
X106533333Y-47978628D02*
X106533333Y-48264342D01*
X106533333Y-48264342D02*
X106485714Y-48359580D01*
X106485714Y-48359580D02*
X106438095Y-48407200D01*
X106438095Y-48407200D02*
X106342857Y-48454819D01*
X106342857Y-48454819D02*
X106200000Y-48454819D01*
X106961905Y-47788152D02*
X106961905Y-48454819D01*
X106961905Y-47883390D02*
X107009524Y-47835771D01*
X107009524Y-47835771D02*
X107104762Y-47788152D01*
X107104762Y-47788152D02*
X107247619Y-47788152D01*
X107247619Y-47788152D02*
X107342857Y-47835771D01*
X107342857Y-47835771D02*
X107390476Y-47931009D01*
X107390476Y-47931009D02*
X107390476Y-48454819D01*
X116485714Y-68962295D02*
X116219047Y-68581342D01*
X116028571Y-68962295D02*
X116028571Y-68162295D01*
X116028571Y-68162295D02*
X116333333Y-68162295D01*
X116333333Y-68162295D02*
X116409523Y-68200390D01*
X116409523Y-68200390D02*
X116447618Y-68238485D01*
X116447618Y-68238485D02*
X116485714Y-68314676D01*
X116485714Y-68314676D02*
X116485714Y-68428961D01*
X116485714Y-68428961D02*
X116447618Y-68505152D01*
X116447618Y-68505152D02*
X116409523Y-68543247D01*
X116409523Y-68543247D02*
X116333333Y-68581342D01*
X116333333Y-68581342D02*
X116028571Y-68581342D01*
X117247618Y-68962295D02*
X116790475Y-68962295D01*
X117019047Y-68962295D02*
X117019047Y-68162295D01*
X117019047Y-68162295D02*
X116942856Y-68276580D01*
X116942856Y-68276580D02*
X116866666Y-68352771D01*
X116866666Y-68352771D02*
X116790475Y-68390866D01*
X117971428Y-68162295D02*
X117590476Y-68162295D01*
X117590476Y-68162295D02*
X117552380Y-68543247D01*
X117552380Y-68543247D02*
X117590476Y-68505152D01*
X117590476Y-68505152D02*
X117666666Y-68467057D01*
X117666666Y-68467057D02*
X117857142Y-68467057D01*
X117857142Y-68467057D02*
X117933333Y-68505152D01*
X117933333Y-68505152D02*
X117971428Y-68543247D01*
X117971428Y-68543247D02*
X118009523Y-68619438D01*
X118009523Y-68619438D02*
X118009523Y-68809914D01*
X118009523Y-68809914D02*
X117971428Y-68886104D01*
X117971428Y-68886104D02*
X117933333Y-68924200D01*
X117933333Y-68924200D02*
X117857142Y-68962295D01*
X117857142Y-68962295D02*
X117666666Y-68962295D01*
X117666666Y-68962295D02*
X117590476Y-68924200D01*
X117590476Y-68924200D02*
X117552380Y-68886104D01*
X72119047Y-43228961D02*
X72119047Y-43762295D01*
X72119047Y-43305152D02*
X72157142Y-43267057D01*
X72157142Y-43267057D02*
X72233332Y-43228961D01*
X72233332Y-43228961D02*
X72347618Y-43228961D01*
X72347618Y-43228961D02*
X72423809Y-43267057D01*
X72423809Y-43267057D02*
X72461904Y-43343247D01*
X72461904Y-43343247D02*
X72461904Y-43762295D01*
X72842857Y-43762295D02*
X72842857Y-43228961D01*
X72842857Y-43381342D02*
X72880952Y-43305152D01*
X72880952Y-43305152D02*
X72919047Y-43267057D01*
X72919047Y-43267057D02*
X72995238Y-43228961D01*
X72995238Y-43228961D02*
X73071428Y-43228961D01*
X73299999Y-43724200D02*
X73376190Y-43762295D01*
X73376190Y-43762295D02*
X73528571Y-43762295D01*
X73528571Y-43762295D02*
X73604761Y-43724200D01*
X73604761Y-43724200D02*
X73642857Y-43648009D01*
X73642857Y-43648009D02*
X73642857Y-43609914D01*
X73642857Y-43609914D02*
X73604761Y-43533723D01*
X73604761Y-43533723D02*
X73528571Y-43495628D01*
X73528571Y-43495628D02*
X73414285Y-43495628D01*
X73414285Y-43495628D02*
X73338095Y-43457533D01*
X73338095Y-43457533D02*
X73299999Y-43381342D01*
X73299999Y-43381342D02*
X73299999Y-43343247D01*
X73299999Y-43343247D02*
X73338095Y-43267057D01*
X73338095Y-43267057D02*
X73414285Y-43228961D01*
X73414285Y-43228961D02*
X73528571Y-43228961D01*
X73528571Y-43228961D02*
X73604761Y-43267057D01*
X73871428Y-43228961D02*
X74176190Y-43228961D01*
X73985714Y-42962295D02*
X73985714Y-43648009D01*
X73985714Y-43648009D02*
X74023809Y-43724200D01*
X74023809Y-43724200D02*
X74099999Y-43762295D01*
X74099999Y-43762295D02*
X74176190Y-43762295D01*
X74442857Y-43457533D02*
X75052381Y-43457533D01*
X75395237Y-43724200D02*
X75471428Y-43762295D01*
X75471428Y-43762295D02*
X75623809Y-43762295D01*
X75623809Y-43762295D02*
X75699999Y-43724200D01*
X75699999Y-43724200D02*
X75738095Y-43648009D01*
X75738095Y-43648009D02*
X75738095Y-43609914D01*
X75738095Y-43609914D02*
X75699999Y-43533723D01*
X75699999Y-43533723D02*
X75623809Y-43495628D01*
X75623809Y-43495628D02*
X75509523Y-43495628D01*
X75509523Y-43495628D02*
X75433333Y-43457533D01*
X75433333Y-43457533D02*
X75395237Y-43381342D01*
X75395237Y-43381342D02*
X75395237Y-43343247D01*
X75395237Y-43343247D02*
X75433333Y-43267057D01*
X75433333Y-43267057D02*
X75509523Y-43228961D01*
X75509523Y-43228961D02*
X75623809Y-43228961D01*
X75623809Y-43228961D02*
X75699999Y-43267057D01*
X76004761Y-43228961D02*
X76157142Y-43762295D01*
X76157142Y-43762295D02*
X76309523Y-43381342D01*
X76309523Y-43381342D02*
X76461904Y-43762295D01*
X76461904Y-43762295D02*
X76614285Y-43228961D01*
X77261904Y-43724200D02*
X77185713Y-43762295D01*
X77185713Y-43762295D02*
X77033332Y-43762295D01*
X77033332Y-43762295D02*
X76957142Y-43724200D01*
X76957142Y-43724200D02*
X76919047Y-43686104D01*
X76919047Y-43686104D02*
X76880951Y-43609914D01*
X76880951Y-43609914D02*
X76880951Y-43381342D01*
X76880951Y-43381342D02*
X76919047Y-43305152D01*
X76919047Y-43305152D02*
X76957142Y-43267057D01*
X76957142Y-43267057D02*
X77033332Y-43228961D01*
X77033332Y-43228961D02*
X77185713Y-43228961D01*
X77185713Y-43228961D02*
X77261904Y-43267057D01*
X77719046Y-43762295D02*
X77642856Y-43724200D01*
X77642856Y-43724200D02*
X77604761Y-43648009D01*
X77604761Y-43648009D02*
X77604761Y-42962295D01*
X78023809Y-43762295D02*
X78023809Y-42962295D01*
X78099999Y-43457533D02*
X78328571Y-43762295D01*
X78328571Y-43228961D02*
X78023809Y-43533723D01*
X78671428Y-43457533D02*
X79280952Y-43457533D01*
X80004761Y-43228961D02*
X80004761Y-43876580D01*
X80004761Y-43876580D02*
X79966666Y-43952771D01*
X79966666Y-43952771D02*
X79928570Y-43990866D01*
X79928570Y-43990866D02*
X79852380Y-44028961D01*
X79852380Y-44028961D02*
X79738094Y-44028961D01*
X79738094Y-44028961D02*
X79661904Y-43990866D01*
X80004761Y-43724200D02*
X79928570Y-43762295D01*
X79928570Y-43762295D02*
X79776189Y-43762295D01*
X79776189Y-43762295D02*
X79699999Y-43724200D01*
X79699999Y-43724200D02*
X79661904Y-43686104D01*
X79661904Y-43686104D02*
X79623808Y-43609914D01*
X79623808Y-43609914D02*
X79623808Y-43381342D01*
X79623808Y-43381342D02*
X79661904Y-43305152D01*
X79661904Y-43305152D02*
X79699999Y-43267057D01*
X79699999Y-43267057D02*
X79776189Y-43228961D01*
X79776189Y-43228961D02*
X79928570Y-43228961D01*
X79928570Y-43228961D02*
X80004761Y-43267057D01*
X80385714Y-43228961D02*
X80385714Y-43762295D01*
X80385714Y-43305152D02*
X80423809Y-43267057D01*
X80423809Y-43267057D02*
X80499999Y-43228961D01*
X80499999Y-43228961D02*
X80614285Y-43228961D01*
X80614285Y-43228961D02*
X80690476Y-43267057D01*
X80690476Y-43267057D02*
X80728571Y-43343247D01*
X80728571Y-43343247D02*
X80728571Y-43762295D01*
X81452381Y-43762295D02*
X81452381Y-42962295D01*
X81452381Y-43724200D02*
X81376190Y-43762295D01*
X81376190Y-43762295D02*
X81223809Y-43762295D01*
X81223809Y-43762295D02*
X81147619Y-43724200D01*
X81147619Y-43724200D02*
X81109524Y-43686104D01*
X81109524Y-43686104D02*
X81071428Y-43609914D01*
X81071428Y-43609914D02*
X81071428Y-43381342D01*
X81071428Y-43381342D02*
X81109524Y-43305152D01*
X81109524Y-43305152D02*
X81147619Y-43267057D01*
X81147619Y-43267057D02*
X81223809Y-43228961D01*
X81223809Y-43228961D02*
X81376190Y-43228961D01*
X81376190Y-43228961D02*
X81452381Y-43267057D01*
X81833334Y-43457533D02*
X82442858Y-43457533D01*
X82785714Y-43724200D02*
X82861905Y-43762295D01*
X82861905Y-43762295D02*
X83014286Y-43762295D01*
X83014286Y-43762295D02*
X83090476Y-43724200D01*
X83090476Y-43724200D02*
X83128572Y-43648009D01*
X83128572Y-43648009D02*
X83128572Y-43609914D01*
X83128572Y-43609914D02*
X83090476Y-43533723D01*
X83090476Y-43533723D02*
X83014286Y-43495628D01*
X83014286Y-43495628D02*
X82900000Y-43495628D01*
X82900000Y-43495628D02*
X82823810Y-43457533D01*
X82823810Y-43457533D02*
X82785714Y-43381342D01*
X82785714Y-43381342D02*
X82785714Y-43343247D01*
X82785714Y-43343247D02*
X82823810Y-43267057D01*
X82823810Y-43267057D02*
X82900000Y-43228961D01*
X82900000Y-43228961D02*
X83014286Y-43228961D01*
X83014286Y-43228961D02*
X83090476Y-43267057D01*
X83395238Y-43228961D02*
X83547619Y-43762295D01*
X83547619Y-43762295D02*
X83700000Y-43381342D01*
X83700000Y-43381342D02*
X83852381Y-43762295D01*
X83852381Y-43762295D02*
X84004762Y-43228961D01*
X84652381Y-43762295D02*
X84652381Y-42962295D01*
X84652381Y-43724200D02*
X84576190Y-43762295D01*
X84576190Y-43762295D02*
X84423809Y-43762295D01*
X84423809Y-43762295D02*
X84347619Y-43724200D01*
X84347619Y-43724200D02*
X84309524Y-43686104D01*
X84309524Y-43686104D02*
X84271428Y-43609914D01*
X84271428Y-43609914D02*
X84271428Y-43381342D01*
X84271428Y-43381342D02*
X84309524Y-43305152D01*
X84309524Y-43305152D02*
X84347619Y-43267057D01*
X84347619Y-43267057D02*
X84423809Y-43228961D01*
X84423809Y-43228961D02*
X84576190Y-43228961D01*
X84576190Y-43228961D02*
X84652381Y-43267057D01*
X85033334Y-43762295D02*
X85033334Y-43228961D01*
X85033334Y-42962295D02*
X84995238Y-43000390D01*
X84995238Y-43000390D02*
X85033334Y-43038485D01*
X85033334Y-43038485D02*
X85071429Y-43000390D01*
X85071429Y-43000390D02*
X85033334Y-42962295D01*
X85033334Y-42962295D02*
X85033334Y-43038485D01*
X85528571Y-43762295D02*
X85452381Y-43724200D01*
X85452381Y-43724200D02*
X85414286Y-43686104D01*
X85414286Y-43686104D02*
X85376190Y-43609914D01*
X85376190Y-43609914D02*
X85376190Y-43381342D01*
X85376190Y-43381342D02*
X85414286Y-43305152D01*
X85414286Y-43305152D02*
X85452381Y-43267057D01*
X85452381Y-43267057D02*
X85528571Y-43228961D01*
X85528571Y-43228961D02*
X85642857Y-43228961D01*
X85642857Y-43228961D02*
X85719048Y-43267057D01*
X85719048Y-43267057D02*
X85757143Y-43305152D01*
X85757143Y-43305152D02*
X85795238Y-43381342D01*
X85795238Y-43381342D02*
X85795238Y-43609914D01*
X85795238Y-43609914D02*
X85757143Y-43686104D01*
X85757143Y-43686104D02*
X85719048Y-43724200D01*
X85719048Y-43724200D02*
X85642857Y-43762295D01*
X85642857Y-43762295D02*
X85528571Y-43762295D01*
X86138096Y-43457533D02*
X86747620Y-43457533D01*
X87052381Y-42962295D02*
X87547619Y-42962295D01*
X87547619Y-42962295D02*
X87280953Y-43267057D01*
X87280953Y-43267057D02*
X87395238Y-43267057D01*
X87395238Y-43267057D02*
X87471429Y-43305152D01*
X87471429Y-43305152D02*
X87509524Y-43343247D01*
X87509524Y-43343247D02*
X87547619Y-43419438D01*
X87547619Y-43419438D02*
X87547619Y-43609914D01*
X87547619Y-43609914D02*
X87509524Y-43686104D01*
X87509524Y-43686104D02*
X87471429Y-43724200D01*
X87471429Y-43724200D02*
X87395238Y-43762295D01*
X87395238Y-43762295D02*
X87166667Y-43762295D01*
X87166667Y-43762295D02*
X87090476Y-43724200D01*
X87090476Y-43724200D02*
X87052381Y-43686104D01*
X87814286Y-43228961D02*
X88004762Y-43762295D01*
X88004762Y-43762295D02*
X88195239Y-43228961D01*
X88423810Y-42962295D02*
X88919048Y-42962295D01*
X88919048Y-42962295D02*
X88652382Y-43267057D01*
X88652382Y-43267057D02*
X88766667Y-43267057D01*
X88766667Y-43267057D02*
X88842858Y-43305152D01*
X88842858Y-43305152D02*
X88880953Y-43343247D01*
X88880953Y-43343247D02*
X88919048Y-43419438D01*
X88919048Y-43419438D02*
X88919048Y-43609914D01*
X88919048Y-43609914D02*
X88880953Y-43686104D01*
X88880953Y-43686104D02*
X88842858Y-43724200D01*
X88842858Y-43724200D02*
X88766667Y-43762295D01*
X88766667Y-43762295D02*
X88538096Y-43762295D01*
X88538096Y-43762295D02*
X88461905Y-43724200D01*
X88461905Y-43724200D02*
X88423810Y-43686104D01*
X106433333Y-57359580D02*
X106385714Y-57407200D01*
X106385714Y-57407200D02*
X106242857Y-57454819D01*
X106242857Y-57454819D02*
X106147619Y-57454819D01*
X106147619Y-57454819D02*
X106004762Y-57407200D01*
X106004762Y-57407200D02*
X105909524Y-57311961D01*
X105909524Y-57311961D02*
X105861905Y-57216723D01*
X105861905Y-57216723D02*
X105814286Y-57026247D01*
X105814286Y-57026247D02*
X105814286Y-56883390D01*
X105814286Y-56883390D02*
X105861905Y-56692914D01*
X105861905Y-56692914D02*
X105909524Y-56597676D01*
X105909524Y-56597676D02*
X106004762Y-56502438D01*
X106004762Y-56502438D02*
X106147619Y-56454819D01*
X106147619Y-56454819D02*
X106242857Y-56454819D01*
X106242857Y-56454819D02*
X106385714Y-56502438D01*
X106385714Y-56502438D02*
X106433333Y-56550057D01*
X106814286Y-56550057D02*
X106861905Y-56502438D01*
X106861905Y-56502438D02*
X106957143Y-56454819D01*
X106957143Y-56454819D02*
X107195238Y-56454819D01*
X107195238Y-56454819D02*
X107290476Y-56502438D01*
X107290476Y-56502438D02*
X107338095Y-56550057D01*
X107338095Y-56550057D02*
X107385714Y-56645295D01*
X107385714Y-56645295D02*
X107385714Y-56740533D01*
X107385714Y-56740533D02*
X107338095Y-56883390D01*
X107338095Y-56883390D02*
X106766667Y-57454819D01*
X106766667Y-57454819D02*
X107385714Y-57454819D01*
X116009524Y-65162295D02*
X116009524Y-64362295D01*
X116009524Y-64362295D02*
X116200000Y-64362295D01*
X116200000Y-64362295D02*
X116314286Y-64400390D01*
X116314286Y-64400390D02*
X116390476Y-64476580D01*
X116390476Y-64476580D02*
X116428571Y-64552771D01*
X116428571Y-64552771D02*
X116466667Y-64705152D01*
X116466667Y-64705152D02*
X116466667Y-64819438D01*
X116466667Y-64819438D02*
X116428571Y-64971819D01*
X116428571Y-64971819D02*
X116390476Y-65048009D01*
X116390476Y-65048009D02*
X116314286Y-65124200D01*
X116314286Y-65124200D02*
X116200000Y-65162295D01*
X116200000Y-65162295D02*
X116009524Y-65162295D01*
X117190476Y-64362295D02*
X116809524Y-64362295D01*
X116809524Y-64362295D02*
X116771428Y-64743247D01*
X116771428Y-64743247D02*
X116809524Y-64705152D01*
X116809524Y-64705152D02*
X116885714Y-64667057D01*
X116885714Y-64667057D02*
X117076190Y-64667057D01*
X117076190Y-64667057D02*
X117152381Y-64705152D01*
X117152381Y-64705152D02*
X117190476Y-64743247D01*
X117190476Y-64743247D02*
X117228571Y-64819438D01*
X117228571Y-64819438D02*
X117228571Y-65009914D01*
X117228571Y-65009914D02*
X117190476Y-65086104D01*
X117190476Y-65086104D02*
X117152381Y-65124200D01*
X117152381Y-65124200D02*
X117076190Y-65162295D01*
X117076190Y-65162295D02*
X116885714Y-65162295D01*
X116885714Y-65162295D02*
X116809524Y-65124200D01*
X116809524Y-65124200D02*
X116771428Y-65086104D01*
X92485714Y-47362295D02*
X92219047Y-46981342D01*
X92028571Y-47362295D02*
X92028571Y-46562295D01*
X92028571Y-46562295D02*
X92333333Y-46562295D01*
X92333333Y-46562295D02*
X92409523Y-46600390D01*
X92409523Y-46600390D02*
X92447618Y-46638485D01*
X92447618Y-46638485D02*
X92485714Y-46714676D01*
X92485714Y-46714676D02*
X92485714Y-46828961D01*
X92485714Y-46828961D02*
X92447618Y-46905152D01*
X92447618Y-46905152D02*
X92409523Y-46943247D01*
X92409523Y-46943247D02*
X92333333Y-46981342D01*
X92333333Y-46981342D02*
X92028571Y-46981342D01*
X93247618Y-47362295D02*
X92790475Y-47362295D01*
X93019047Y-47362295D02*
X93019047Y-46562295D01*
X93019047Y-46562295D02*
X92942856Y-46676580D01*
X92942856Y-46676580D02*
X92866666Y-46752771D01*
X92866666Y-46752771D02*
X92790475Y-46790866D01*
X93742857Y-46562295D02*
X93819047Y-46562295D01*
X93819047Y-46562295D02*
X93895238Y-46600390D01*
X93895238Y-46600390D02*
X93933333Y-46638485D01*
X93933333Y-46638485D02*
X93971428Y-46714676D01*
X93971428Y-46714676D02*
X94009523Y-46867057D01*
X94009523Y-46867057D02*
X94009523Y-47057533D01*
X94009523Y-47057533D02*
X93971428Y-47209914D01*
X93971428Y-47209914D02*
X93933333Y-47286104D01*
X93933333Y-47286104D02*
X93895238Y-47324200D01*
X93895238Y-47324200D02*
X93819047Y-47362295D01*
X93819047Y-47362295D02*
X93742857Y-47362295D01*
X93742857Y-47362295D02*
X93666666Y-47324200D01*
X93666666Y-47324200D02*
X93628571Y-47286104D01*
X93628571Y-47286104D02*
X93590476Y-47209914D01*
X93590476Y-47209914D02*
X93552380Y-47057533D01*
X93552380Y-47057533D02*
X93552380Y-46867057D01*
X93552380Y-46867057D02*
X93590476Y-46714676D01*
X93590476Y-46714676D02*
X93628571Y-46638485D01*
X93628571Y-46638485D02*
X93666666Y-46600390D01*
X93666666Y-46600390D02*
X93742857Y-46562295D01*
X116485714Y-76562295D02*
X116219047Y-76181342D01*
X116028571Y-76562295D02*
X116028571Y-75762295D01*
X116028571Y-75762295D02*
X116333333Y-75762295D01*
X116333333Y-75762295D02*
X116409523Y-75800390D01*
X116409523Y-75800390D02*
X116447618Y-75838485D01*
X116447618Y-75838485D02*
X116485714Y-75914676D01*
X116485714Y-75914676D02*
X116485714Y-76028961D01*
X116485714Y-76028961D02*
X116447618Y-76105152D01*
X116447618Y-76105152D02*
X116409523Y-76143247D01*
X116409523Y-76143247D02*
X116333333Y-76181342D01*
X116333333Y-76181342D02*
X116028571Y-76181342D01*
X117247618Y-76562295D02*
X116790475Y-76562295D01*
X117019047Y-76562295D02*
X117019047Y-75762295D01*
X117019047Y-75762295D02*
X116942856Y-75876580D01*
X116942856Y-75876580D02*
X116866666Y-75952771D01*
X116866666Y-75952771D02*
X116790475Y-75990866D01*
X117552380Y-75838485D02*
X117590476Y-75800390D01*
X117590476Y-75800390D02*
X117666666Y-75762295D01*
X117666666Y-75762295D02*
X117857142Y-75762295D01*
X117857142Y-75762295D02*
X117933333Y-75800390D01*
X117933333Y-75800390D02*
X117971428Y-75838485D01*
X117971428Y-75838485D02*
X118009523Y-75914676D01*
X118009523Y-75914676D02*
X118009523Y-75990866D01*
X118009523Y-75990866D02*
X117971428Y-76105152D01*
X117971428Y-76105152D02*
X117514285Y-76562295D01*
X117514285Y-76562295D02*
X118009523Y-76562295D01*
X116466667Y-61362295D02*
X116200000Y-60981342D01*
X116009524Y-61362295D02*
X116009524Y-60562295D01*
X116009524Y-60562295D02*
X116314286Y-60562295D01*
X116314286Y-60562295D02*
X116390476Y-60600390D01*
X116390476Y-60600390D02*
X116428571Y-60638485D01*
X116428571Y-60638485D02*
X116466667Y-60714676D01*
X116466667Y-60714676D02*
X116466667Y-60828961D01*
X116466667Y-60828961D02*
X116428571Y-60905152D01*
X116428571Y-60905152D02*
X116390476Y-60943247D01*
X116390476Y-60943247D02*
X116314286Y-60981342D01*
X116314286Y-60981342D02*
X116009524Y-60981342D01*
X117190476Y-60562295D02*
X116809524Y-60562295D01*
X116809524Y-60562295D02*
X116771428Y-60943247D01*
X116771428Y-60943247D02*
X116809524Y-60905152D01*
X116809524Y-60905152D02*
X116885714Y-60867057D01*
X116885714Y-60867057D02*
X117076190Y-60867057D01*
X117076190Y-60867057D02*
X117152381Y-60905152D01*
X117152381Y-60905152D02*
X117190476Y-60943247D01*
X117190476Y-60943247D02*
X117228571Y-61019438D01*
X117228571Y-61019438D02*
X117228571Y-61209914D01*
X117228571Y-61209914D02*
X117190476Y-61286104D01*
X117190476Y-61286104D02*
X117152381Y-61324200D01*
X117152381Y-61324200D02*
X117076190Y-61362295D01*
X117076190Y-61362295D02*
X116885714Y-61362295D01*
X116885714Y-61362295D02*
X116809524Y-61324200D01*
X116809524Y-61324200D02*
X116771428Y-61286104D01*
X116009524Y-75362295D02*
X116009524Y-74562295D01*
X116009524Y-74562295D02*
X116200000Y-74562295D01*
X116200000Y-74562295D02*
X116314286Y-74600390D01*
X116314286Y-74600390D02*
X116390476Y-74676580D01*
X116390476Y-74676580D02*
X116428571Y-74752771D01*
X116428571Y-74752771D02*
X116466667Y-74905152D01*
X116466667Y-74905152D02*
X116466667Y-75019438D01*
X116466667Y-75019438D02*
X116428571Y-75171819D01*
X116428571Y-75171819D02*
X116390476Y-75248009D01*
X116390476Y-75248009D02*
X116314286Y-75324200D01*
X116314286Y-75324200D02*
X116200000Y-75362295D01*
X116200000Y-75362295D02*
X116009524Y-75362295D01*
X117228571Y-75362295D02*
X116771428Y-75362295D01*
X117000000Y-75362295D02*
X117000000Y-74562295D01*
X117000000Y-74562295D02*
X116923809Y-74676580D01*
X116923809Y-74676580D02*
X116847619Y-74752771D01*
X116847619Y-74752771D02*
X116771428Y-74790866D01*
X104266667Y-59286104D02*
X104228571Y-59324200D01*
X104228571Y-59324200D02*
X104114286Y-59362295D01*
X104114286Y-59362295D02*
X104038095Y-59362295D01*
X104038095Y-59362295D02*
X103923809Y-59324200D01*
X103923809Y-59324200D02*
X103847619Y-59248009D01*
X103847619Y-59248009D02*
X103809524Y-59171819D01*
X103809524Y-59171819D02*
X103771428Y-59019438D01*
X103771428Y-59019438D02*
X103771428Y-58905152D01*
X103771428Y-58905152D02*
X103809524Y-58752771D01*
X103809524Y-58752771D02*
X103847619Y-58676580D01*
X103847619Y-58676580D02*
X103923809Y-58600390D01*
X103923809Y-58600390D02*
X104038095Y-58562295D01*
X104038095Y-58562295D02*
X104114286Y-58562295D01*
X104114286Y-58562295D02*
X104228571Y-58600390D01*
X104228571Y-58600390D02*
X104266667Y-58638485D01*
X104533333Y-58562295D02*
X105066667Y-58562295D01*
X105066667Y-58562295D02*
X104723809Y-59362295D01*
X96028571Y-44962295D02*
X96028571Y-44162295D01*
X96028571Y-44162295D02*
X96219047Y-44162295D01*
X96219047Y-44162295D02*
X96333333Y-44200390D01*
X96333333Y-44200390D02*
X96409523Y-44276580D01*
X96409523Y-44276580D02*
X96447618Y-44352771D01*
X96447618Y-44352771D02*
X96485714Y-44505152D01*
X96485714Y-44505152D02*
X96485714Y-44619438D01*
X96485714Y-44619438D02*
X96447618Y-44771819D01*
X96447618Y-44771819D02*
X96409523Y-44848009D01*
X96409523Y-44848009D02*
X96333333Y-44924200D01*
X96333333Y-44924200D02*
X96219047Y-44962295D01*
X96219047Y-44962295D02*
X96028571Y-44962295D01*
X97247618Y-44962295D02*
X96790475Y-44962295D01*
X97019047Y-44962295D02*
X97019047Y-44162295D01*
X97019047Y-44162295D02*
X96942856Y-44276580D01*
X96942856Y-44276580D02*
X96866666Y-44352771D01*
X96866666Y-44352771D02*
X96790475Y-44390866D01*
X97742857Y-44162295D02*
X97819047Y-44162295D01*
X97819047Y-44162295D02*
X97895238Y-44200390D01*
X97895238Y-44200390D02*
X97933333Y-44238485D01*
X97933333Y-44238485D02*
X97971428Y-44314676D01*
X97971428Y-44314676D02*
X98009523Y-44467057D01*
X98009523Y-44467057D02*
X98009523Y-44657533D01*
X98009523Y-44657533D02*
X97971428Y-44809914D01*
X97971428Y-44809914D02*
X97933333Y-44886104D01*
X97933333Y-44886104D02*
X97895238Y-44924200D01*
X97895238Y-44924200D02*
X97819047Y-44962295D01*
X97819047Y-44962295D02*
X97742857Y-44962295D01*
X97742857Y-44962295D02*
X97666666Y-44924200D01*
X97666666Y-44924200D02*
X97628571Y-44886104D01*
X97628571Y-44886104D02*
X97590476Y-44809914D01*
X97590476Y-44809914D02*
X97552380Y-44657533D01*
X97552380Y-44657533D02*
X97552380Y-44467057D01*
X97552380Y-44467057D02*
X97590476Y-44314676D01*
X97590476Y-44314676D02*
X97628571Y-44238485D01*
X97628571Y-44238485D02*
X97666666Y-44200390D01*
X97666666Y-44200390D02*
X97742857Y-44162295D01*
X108595237Y-78281009D02*
X108738094Y-78328628D01*
X108738094Y-78328628D02*
X108785713Y-78376247D01*
X108785713Y-78376247D02*
X108833332Y-78471485D01*
X108833332Y-78471485D02*
X108833332Y-78614342D01*
X108833332Y-78614342D02*
X108785713Y-78709580D01*
X108785713Y-78709580D02*
X108738094Y-78757200D01*
X108738094Y-78757200D02*
X108642856Y-78804819D01*
X108642856Y-78804819D02*
X108261904Y-78804819D01*
X108261904Y-78804819D02*
X108261904Y-77804819D01*
X108261904Y-77804819D02*
X108595237Y-77804819D01*
X108595237Y-77804819D02*
X108690475Y-77852438D01*
X108690475Y-77852438D02*
X108738094Y-77900057D01*
X108738094Y-77900057D02*
X108785713Y-77995295D01*
X108785713Y-77995295D02*
X108785713Y-78090533D01*
X108785713Y-78090533D02*
X108738094Y-78185771D01*
X108738094Y-78185771D02*
X108690475Y-78233390D01*
X108690475Y-78233390D02*
X108595237Y-78281009D01*
X108595237Y-78281009D02*
X108261904Y-78281009D01*
X109690475Y-78138152D02*
X109690475Y-78804819D01*
X109261904Y-78138152D02*
X109261904Y-78661961D01*
X109261904Y-78661961D02*
X109309523Y-78757200D01*
X109309523Y-78757200D02*
X109404761Y-78804819D01*
X109404761Y-78804819D02*
X109547618Y-78804819D01*
X109547618Y-78804819D02*
X109642856Y-78757200D01*
X109642856Y-78757200D02*
X109690475Y-78709580D01*
X110071428Y-78138152D02*
X110595237Y-78138152D01*
X110595237Y-78138152D02*
X110071428Y-78804819D01*
X110071428Y-78804819D02*
X110595237Y-78804819D01*
X110880952Y-78138152D02*
X111404761Y-78138152D01*
X111404761Y-78138152D02*
X110880952Y-78804819D01*
X110880952Y-78804819D02*
X111404761Y-78804819D01*
X112166666Y-78757200D02*
X112071428Y-78804819D01*
X112071428Y-78804819D02*
X111880952Y-78804819D01*
X111880952Y-78804819D02*
X111785714Y-78757200D01*
X111785714Y-78757200D02*
X111738095Y-78661961D01*
X111738095Y-78661961D02*
X111738095Y-78281009D01*
X111738095Y-78281009D02*
X111785714Y-78185771D01*
X111785714Y-78185771D02*
X111880952Y-78138152D01*
X111880952Y-78138152D02*
X112071428Y-78138152D01*
X112071428Y-78138152D02*
X112166666Y-78185771D01*
X112166666Y-78185771D02*
X112214285Y-78281009D01*
X112214285Y-78281009D02*
X112214285Y-78376247D01*
X112214285Y-78376247D02*
X111738095Y-78471485D01*
X112642857Y-78804819D02*
X112642857Y-78138152D01*
X112642857Y-78328628D02*
X112690476Y-78233390D01*
X112690476Y-78233390D02*
X112738095Y-78185771D01*
X112738095Y-78185771D02*
X112833333Y-78138152D01*
X112833333Y-78138152D02*
X112928571Y-78138152D01*
X113785714Y-78804819D02*
X113214286Y-78804819D01*
X113500000Y-78804819D02*
X113500000Y-77804819D01*
X113500000Y-77804819D02*
X113404762Y-77947676D01*
X113404762Y-77947676D02*
X113309524Y-78042914D01*
X113309524Y-78042914D02*
X113214286Y-78090533D01*
X83866667Y-66086104D02*
X83828571Y-66124200D01*
X83828571Y-66124200D02*
X83714286Y-66162295D01*
X83714286Y-66162295D02*
X83638095Y-66162295D01*
X83638095Y-66162295D02*
X83523809Y-66124200D01*
X83523809Y-66124200D02*
X83447619Y-66048009D01*
X83447619Y-66048009D02*
X83409524Y-65971819D01*
X83409524Y-65971819D02*
X83371428Y-65819438D01*
X83371428Y-65819438D02*
X83371428Y-65705152D01*
X83371428Y-65705152D02*
X83409524Y-65552771D01*
X83409524Y-65552771D02*
X83447619Y-65476580D01*
X83447619Y-65476580D02*
X83523809Y-65400390D01*
X83523809Y-65400390D02*
X83638095Y-65362295D01*
X83638095Y-65362295D02*
X83714286Y-65362295D01*
X83714286Y-65362295D02*
X83828571Y-65400390D01*
X83828571Y-65400390D02*
X83866667Y-65438485D01*
X84247619Y-66162295D02*
X84400000Y-66162295D01*
X84400000Y-66162295D02*
X84476190Y-66124200D01*
X84476190Y-66124200D02*
X84514286Y-66086104D01*
X84514286Y-66086104D02*
X84590476Y-65971819D01*
X84590476Y-65971819D02*
X84628571Y-65819438D01*
X84628571Y-65819438D02*
X84628571Y-65514676D01*
X84628571Y-65514676D02*
X84590476Y-65438485D01*
X84590476Y-65438485D02*
X84552381Y-65400390D01*
X84552381Y-65400390D02*
X84476190Y-65362295D01*
X84476190Y-65362295D02*
X84323809Y-65362295D01*
X84323809Y-65362295D02*
X84247619Y-65400390D01*
X84247619Y-65400390D02*
X84209524Y-65438485D01*
X84209524Y-65438485D02*
X84171428Y-65514676D01*
X84171428Y-65514676D02*
X84171428Y-65705152D01*
X84171428Y-65705152D02*
X84209524Y-65781342D01*
X84209524Y-65781342D02*
X84247619Y-65819438D01*
X84247619Y-65819438D02*
X84323809Y-65857533D01*
X84323809Y-65857533D02*
X84476190Y-65857533D01*
X84476190Y-65857533D02*
X84552381Y-65819438D01*
X84552381Y-65819438D02*
X84590476Y-65781342D01*
X84590476Y-65781342D02*
X84628571Y-65705152D01*
X116466667Y-63962295D02*
X116200000Y-63581342D01*
X116009524Y-63962295D02*
X116009524Y-63162295D01*
X116009524Y-63162295D02*
X116314286Y-63162295D01*
X116314286Y-63162295D02*
X116390476Y-63200390D01*
X116390476Y-63200390D02*
X116428571Y-63238485D01*
X116428571Y-63238485D02*
X116466667Y-63314676D01*
X116466667Y-63314676D02*
X116466667Y-63428961D01*
X116466667Y-63428961D02*
X116428571Y-63505152D01*
X116428571Y-63505152D02*
X116390476Y-63543247D01*
X116390476Y-63543247D02*
X116314286Y-63581342D01*
X116314286Y-63581342D02*
X116009524Y-63581342D01*
X117152381Y-63162295D02*
X117000000Y-63162295D01*
X117000000Y-63162295D02*
X116923809Y-63200390D01*
X116923809Y-63200390D02*
X116885714Y-63238485D01*
X116885714Y-63238485D02*
X116809524Y-63352771D01*
X116809524Y-63352771D02*
X116771428Y-63505152D01*
X116771428Y-63505152D02*
X116771428Y-63809914D01*
X116771428Y-63809914D02*
X116809524Y-63886104D01*
X116809524Y-63886104D02*
X116847619Y-63924200D01*
X116847619Y-63924200D02*
X116923809Y-63962295D01*
X116923809Y-63962295D02*
X117076190Y-63962295D01*
X117076190Y-63962295D02*
X117152381Y-63924200D01*
X117152381Y-63924200D02*
X117190476Y-63886104D01*
X117190476Y-63886104D02*
X117228571Y-63809914D01*
X117228571Y-63809914D02*
X117228571Y-63619438D01*
X117228571Y-63619438D02*
X117190476Y-63543247D01*
X117190476Y-63543247D02*
X117152381Y-63505152D01*
X117152381Y-63505152D02*
X117076190Y-63467057D01*
X117076190Y-63467057D02*
X116923809Y-63467057D01*
X116923809Y-63467057D02*
X116847619Y-63505152D01*
X116847619Y-63505152D02*
X116809524Y-63543247D01*
X116809524Y-63543247D02*
X116771428Y-63619438D01*
X84583333Y-62254819D02*
X84250000Y-61778628D01*
X84011905Y-62254819D02*
X84011905Y-61254819D01*
X84011905Y-61254819D02*
X84392857Y-61254819D01*
X84392857Y-61254819D02*
X84488095Y-61302438D01*
X84488095Y-61302438D02*
X84535714Y-61350057D01*
X84535714Y-61350057D02*
X84583333Y-61445295D01*
X84583333Y-61445295D02*
X84583333Y-61588152D01*
X84583333Y-61588152D02*
X84535714Y-61683390D01*
X84535714Y-61683390D02*
X84488095Y-61731009D01*
X84488095Y-61731009D02*
X84392857Y-61778628D01*
X84392857Y-61778628D02*
X84011905Y-61778628D01*
X85154762Y-61683390D02*
X85059524Y-61635771D01*
X85059524Y-61635771D02*
X85011905Y-61588152D01*
X85011905Y-61588152D02*
X84964286Y-61492914D01*
X84964286Y-61492914D02*
X84964286Y-61445295D01*
X84964286Y-61445295D02*
X85011905Y-61350057D01*
X85011905Y-61350057D02*
X85059524Y-61302438D01*
X85059524Y-61302438D02*
X85154762Y-61254819D01*
X85154762Y-61254819D02*
X85345238Y-61254819D01*
X85345238Y-61254819D02*
X85440476Y-61302438D01*
X85440476Y-61302438D02*
X85488095Y-61350057D01*
X85488095Y-61350057D02*
X85535714Y-61445295D01*
X85535714Y-61445295D02*
X85535714Y-61492914D01*
X85535714Y-61492914D02*
X85488095Y-61588152D01*
X85488095Y-61588152D02*
X85440476Y-61635771D01*
X85440476Y-61635771D02*
X85345238Y-61683390D01*
X85345238Y-61683390D02*
X85154762Y-61683390D01*
X85154762Y-61683390D02*
X85059524Y-61731009D01*
X85059524Y-61731009D02*
X85011905Y-61778628D01*
X85011905Y-61778628D02*
X84964286Y-61873866D01*
X84964286Y-61873866D02*
X84964286Y-62064342D01*
X84964286Y-62064342D02*
X85011905Y-62159580D01*
X85011905Y-62159580D02*
X85059524Y-62207200D01*
X85059524Y-62207200D02*
X85154762Y-62254819D01*
X85154762Y-62254819D02*
X85345238Y-62254819D01*
X85345238Y-62254819D02*
X85440476Y-62207200D01*
X85440476Y-62207200D02*
X85488095Y-62159580D01*
X85488095Y-62159580D02*
X85535714Y-62064342D01*
X85535714Y-62064342D02*
X85535714Y-61873866D01*
X85535714Y-61873866D02*
X85488095Y-61778628D01*
X85488095Y-61778628D02*
X85440476Y-61731009D01*
X85440476Y-61731009D02*
X85345238Y-61683390D01*
X116009524Y-60162295D02*
X116009524Y-59362295D01*
X116009524Y-59362295D02*
X116200000Y-59362295D01*
X116200000Y-59362295D02*
X116314286Y-59400390D01*
X116314286Y-59400390D02*
X116390476Y-59476580D01*
X116390476Y-59476580D02*
X116428571Y-59552771D01*
X116428571Y-59552771D02*
X116466667Y-59705152D01*
X116466667Y-59705152D02*
X116466667Y-59819438D01*
X116466667Y-59819438D02*
X116428571Y-59971819D01*
X116428571Y-59971819D02*
X116390476Y-60048009D01*
X116390476Y-60048009D02*
X116314286Y-60124200D01*
X116314286Y-60124200D02*
X116200000Y-60162295D01*
X116200000Y-60162295D02*
X116009524Y-60162295D01*
X116733333Y-59362295D02*
X117266667Y-59362295D01*
X117266667Y-59362295D02*
X116923809Y-60162295D01*
X116485714Y-66362295D02*
X116219047Y-65981342D01*
X116028571Y-66362295D02*
X116028571Y-65562295D01*
X116028571Y-65562295D02*
X116333333Y-65562295D01*
X116333333Y-65562295D02*
X116409523Y-65600390D01*
X116409523Y-65600390D02*
X116447618Y-65638485D01*
X116447618Y-65638485D02*
X116485714Y-65714676D01*
X116485714Y-65714676D02*
X116485714Y-65828961D01*
X116485714Y-65828961D02*
X116447618Y-65905152D01*
X116447618Y-65905152D02*
X116409523Y-65943247D01*
X116409523Y-65943247D02*
X116333333Y-65981342D01*
X116333333Y-65981342D02*
X116028571Y-65981342D01*
X117247618Y-66362295D02*
X116790475Y-66362295D01*
X117019047Y-66362295D02*
X117019047Y-65562295D01*
X117019047Y-65562295D02*
X116942856Y-65676580D01*
X116942856Y-65676580D02*
X116866666Y-65752771D01*
X116866666Y-65752771D02*
X116790475Y-65790866D01*
X117933333Y-65562295D02*
X117780952Y-65562295D01*
X117780952Y-65562295D02*
X117704761Y-65600390D01*
X117704761Y-65600390D02*
X117666666Y-65638485D01*
X117666666Y-65638485D02*
X117590476Y-65752771D01*
X117590476Y-65752771D02*
X117552380Y-65905152D01*
X117552380Y-65905152D02*
X117552380Y-66209914D01*
X117552380Y-66209914D02*
X117590476Y-66286104D01*
X117590476Y-66286104D02*
X117628571Y-66324200D01*
X117628571Y-66324200D02*
X117704761Y-66362295D01*
X117704761Y-66362295D02*
X117857142Y-66362295D01*
X117857142Y-66362295D02*
X117933333Y-66324200D01*
X117933333Y-66324200D02*
X117971428Y-66286104D01*
X117971428Y-66286104D02*
X118009523Y-66209914D01*
X118009523Y-66209914D02*
X118009523Y-66019438D01*
X118009523Y-66019438D02*
X117971428Y-65943247D01*
X117971428Y-65943247D02*
X117933333Y-65905152D01*
X117933333Y-65905152D02*
X117857142Y-65867057D01*
X117857142Y-65867057D02*
X117704761Y-65867057D01*
X117704761Y-65867057D02*
X117628571Y-65905152D01*
X117628571Y-65905152D02*
X117590476Y-65943247D01*
X117590476Y-65943247D02*
X117552380Y-66019438D01*
X80038095Y-51854819D02*
X80038095Y-52664342D01*
X80038095Y-52664342D02*
X80085714Y-52759580D01*
X80085714Y-52759580D02*
X80133333Y-52807200D01*
X80133333Y-52807200D02*
X80228571Y-52854819D01*
X80228571Y-52854819D02*
X80419047Y-52854819D01*
X80419047Y-52854819D02*
X80514285Y-52807200D01*
X80514285Y-52807200D02*
X80561904Y-52759580D01*
X80561904Y-52759580D02*
X80609523Y-52664342D01*
X80609523Y-52664342D02*
X80609523Y-51854819D01*
X81609523Y-52854819D02*
X81038095Y-52854819D01*
X81323809Y-52854819D02*
X81323809Y-51854819D01*
X81323809Y-51854819D02*
X81228571Y-51997676D01*
X81228571Y-51997676D02*
X81133333Y-52092914D01*
X81133333Y-52092914D02*
X81038095Y-52140533D01*
X116009524Y-57762295D02*
X116009524Y-56962295D01*
X116009524Y-56962295D02*
X116200000Y-56962295D01*
X116200000Y-56962295D02*
X116314286Y-57000390D01*
X116314286Y-57000390D02*
X116390476Y-57076580D01*
X116390476Y-57076580D02*
X116428571Y-57152771D01*
X116428571Y-57152771D02*
X116466667Y-57305152D01*
X116466667Y-57305152D02*
X116466667Y-57419438D01*
X116466667Y-57419438D02*
X116428571Y-57571819D01*
X116428571Y-57571819D02*
X116390476Y-57648009D01*
X116390476Y-57648009D02*
X116314286Y-57724200D01*
X116314286Y-57724200D02*
X116200000Y-57762295D01*
X116200000Y-57762295D02*
X116009524Y-57762295D01*
X116923809Y-57305152D02*
X116847619Y-57267057D01*
X116847619Y-57267057D02*
X116809524Y-57228961D01*
X116809524Y-57228961D02*
X116771428Y-57152771D01*
X116771428Y-57152771D02*
X116771428Y-57114676D01*
X116771428Y-57114676D02*
X116809524Y-57038485D01*
X116809524Y-57038485D02*
X116847619Y-57000390D01*
X116847619Y-57000390D02*
X116923809Y-56962295D01*
X116923809Y-56962295D02*
X117076190Y-56962295D01*
X117076190Y-56962295D02*
X117152381Y-57000390D01*
X117152381Y-57000390D02*
X117190476Y-57038485D01*
X117190476Y-57038485D02*
X117228571Y-57114676D01*
X117228571Y-57114676D02*
X117228571Y-57152771D01*
X117228571Y-57152771D02*
X117190476Y-57228961D01*
X117190476Y-57228961D02*
X117152381Y-57267057D01*
X117152381Y-57267057D02*
X117076190Y-57305152D01*
X117076190Y-57305152D02*
X116923809Y-57305152D01*
X116923809Y-57305152D02*
X116847619Y-57343247D01*
X116847619Y-57343247D02*
X116809524Y-57381342D01*
X116809524Y-57381342D02*
X116771428Y-57457533D01*
X116771428Y-57457533D02*
X116771428Y-57609914D01*
X116771428Y-57609914D02*
X116809524Y-57686104D01*
X116809524Y-57686104D02*
X116847619Y-57724200D01*
X116847619Y-57724200D02*
X116923809Y-57762295D01*
X116923809Y-57762295D02*
X117076190Y-57762295D01*
X117076190Y-57762295D02*
X117152381Y-57724200D01*
X117152381Y-57724200D02*
X117190476Y-57686104D01*
X117190476Y-57686104D02*
X117228571Y-57609914D01*
X117228571Y-57609914D02*
X117228571Y-57457533D01*
X117228571Y-57457533D02*
X117190476Y-57381342D01*
X117190476Y-57381342D02*
X117152381Y-57343247D01*
X117152381Y-57343247D02*
X117076190Y-57305152D01*
D12*
X106278066Y-70308903D02*
X106749471Y-70780307D01*
X106749471Y-70780307D02*
X105739318Y-71184368D01*
X107086188Y-71588429D02*
X106614784Y-72059834D01*
X107187204Y-71150696D02*
X106513769Y-71487414D01*
X106513769Y-71487414D02*
X106951501Y-71925147D01*
X106985173Y-72430223D02*
X107692280Y-71723116D01*
X107355562Y-72059834D02*
X107759623Y-72463895D01*
X107389234Y-72834284D02*
X108096341Y-72127177D01*
X108197356Y-73507719D02*
X108130013Y-73507719D01*
X108130013Y-73507719D02*
X107995326Y-73440375D01*
X107995326Y-73440375D02*
X107927982Y-73373032D01*
X107927982Y-73373032D02*
X107860639Y-73238345D01*
X107860639Y-73238345D02*
X107860639Y-73103658D01*
X107860639Y-73103658D02*
X107894310Y-73002643D01*
X107894310Y-73002643D02*
X107995326Y-72834284D01*
X107995326Y-72834284D02*
X108096341Y-72733269D01*
X108096341Y-72733269D02*
X108264700Y-72632253D01*
X108264700Y-72632253D02*
X108365715Y-72598582D01*
X108365715Y-72598582D02*
X108500402Y-72598582D01*
X108500402Y-72598582D02*
X108635089Y-72665925D01*
X108635089Y-72665925D02*
X108702433Y-72733269D01*
X108702433Y-72733269D02*
X108769776Y-72867956D01*
X108769776Y-72867956D02*
X108769776Y-72935299D01*
X109476883Y-73507719D02*
X109140165Y-73171001D01*
X109140165Y-73171001D02*
X108769776Y-73474047D01*
X108769776Y-73474047D02*
X108837120Y-73474047D01*
X108837120Y-73474047D02*
X108938135Y-73507719D01*
X108938135Y-73507719D02*
X109106494Y-73676078D01*
X109106494Y-73676078D02*
X109140165Y-73777093D01*
X109140165Y-73777093D02*
X109140165Y-73844436D01*
X109140165Y-73844436D02*
X109106494Y-73945452D01*
X109106494Y-73945452D02*
X108938135Y-74113810D01*
X108938135Y-74113810D02*
X108837120Y-74147482D01*
X108837120Y-74147482D02*
X108769776Y-74147482D01*
X108769776Y-74147482D02*
X108668761Y-74113810D01*
X108668761Y-74113810D02*
X108500402Y-73945452D01*
X108500402Y-73945452D02*
X108466730Y-73844436D01*
X108466730Y-73844436D02*
X108466730Y-73777093D01*
X109140165Y-74585215D02*
X109274852Y-74719902D01*
X109274852Y-74719902D02*
X109375868Y-74753574D01*
X109375868Y-74753574D02*
X109443211Y-74753574D01*
X109443211Y-74753574D02*
X109611570Y-74719902D01*
X109611570Y-74719902D02*
X109779929Y-74618887D01*
X109779929Y-74618887D02*
X110049303Y-74349513D01*
X110049303Y-74349513D02*
X110082974Y-74248498D01*
X110082974Y-74248498D02*
X110082974Y-74181154D01*
X110082974Y-74181154D02*
X110049303Y-74080139D01*
X110049303Y-74080139D02*
X109914616Y-73945452D01*
X109914616Y-73945452D02*
X109813600Y-73911780D01*
X109813600Y-73911780D02*
X109746257Y-73911780D01*
X109746257Y-73911780D02*
X109645242Y-73945452D01*
X109645242Y-73945452D02*
X109476883Y-74113811D01*
X109476883Y-74113811D02*
X109443211Y-74214826D01*
X109443211Y-74214826D02*
X109443211Y-74282169D01*
X109443211Y-74282169D02*
X109476883Y-74383185D01*
X109476883Y-74383185D02*
X109611570Y-74517872D01*
X109611570Y-74517872D02*
X109712585Y-74551543D01*
X109712585Y-74551543D02*
X109779929Y-74551543D01*
X109779929Y-74551543D02*
X109880944Y-74517872D01*
X110823753Y-74854589D02*
X110487035Y-74517872D01*
X110487035Y-74517872D02*
X110116646Y-74820917D01*
X110116646Y-74820917D02*
X110183990Y-74820917D01*
X110183990Y-74820917D02*
X110285005Y-74854589D01*
X110285005Y-74854589D02*
X110453364Y-75022948D01*
X110453364Y-75022948D02*
X110487035Y-75123963D01*
X110487035Y-75123963D02*
X110487035Y-75191307D01*
X110487035Y-75191307D02*
X110453364Y-75292322D01*
X110453364Y-75292322D02*
X110285005Y-75460681D01*
X110285005Y-75460681D02*
X110183990Y-75494352D01*
X110183990Y-75494352D02*
X110116646Y-75494352D01*
X110116646Y-75494352D02*
X110015631Y-75460681D01*
X110015631Y-75460681D02*
X109847272Y-75292322D01*
X109847272Y-75292322D02*
X109813600Y-75191307D01*
X109813600Y-75191307D02*
X109813600Y-75123963D01*
D11*
X68866666Y-60054819D02*
X68866666Y-60769104D01*
X68866666Y-60769104D02*
X68819047Y-60911961D01*
X68819047Y-60911961D02*
X68723809Y-61007200D01*
X68723809Y-61007200D02*
X68580952Y-61054819D01*
X68580952Y-61054819D02*
X68485714Y-61054819D01*
X69866666Y-61054819D02*
X69295238Y-61054819D01*
X69580952Y-61054819D02*
X69580952Y-60054819D01*
X69580952Y-60054819D02*
X69485714Y-60197676D01*
X69485714Y-60197676D02*
X69390476Y-60292914D01*
X69390476Y-60292914D02*
X69295238Y-60340533D01*
X116009524Y-67762295D02*
X116009524Y-66962295D01*
X116009524Y-66962295D02*
X116200000Y-66962295D01*
X116200000Y-66962295D02*
X116314286Y-67000390D01*
X116314286Y-67000390D02*
X116390476Y-67076580D01*
X116390476Y-67076580D02*
X116428571Y-67152771D01*
X116428571Y-67152771D02*
X116466667Y-67305152D01*
X116466667Y-67305152D02*
X116466667Y-67419438D01*
X116466667Y-67419438D02*
X116428571Y-67571819D01*
X116428571Y-67571819D02*
X116390476Y-67648009D01*
X116390476Y-67648009D02*
X116314286Y-67724200D01*
X116314286Y-67724200D02*
X116200000Y-67762295D01*
X116200000Y-67762295D02*
X116009524Y-67762295D01*
X117152381Y-67228961D02*
X117152381Y-67762295D01*
X116961905Y-66924200D02*
X116771428Y-67495628D01*
X116771428Y-67495628D02*
X117266667Y-67495628D01*
X116009524Y-72762295D02*
X116009524Y-71962295D01*
X116009524Y-71962295D02*
X116200000Y-71962295D01*
X116200000Y-71962295D02*
X116314286Y-72000390D01*
X116314286Y-72000390D02*
X116390476Y-72076580D01*
X116390476Y-72076580D02*
X116428571Y-72152771D01*
X116428571Y-72152771D02*
X116466667Y-72305152D01*
X116466667Y-72305152D02*
X116466667Y-72419438D01*
X116466667Y-72419438D02*
X116428571Y-72571819D01*
X116428571Y-72571819D02*
X116390476Y-72648009D01*
X116390476Y-72648009D02*
X116314286Y-72724200D01*
X116314286Y-72724200D02*
X116200000Y-72762295D01*
X116200000Y-72762295D02*
X116009524Y-72762295D01*
X116771428Y-72038485D02*
X116809524Y-72000390D01*
X116809524Y-72000390D02*
X116885714Y-71962295D01*
X116885714Y-71962295D02*
X117076190Y-71962295D01*
X117076190Y-71962295D02*
X117152381Y-72000390D01*
X117152381Y-72000390D02*
X117190476Y-72038485D01*
X117190476Y-72038485D02*
X117228571Y-72114676D01*
X117228571Y-72114676D02*
X117228571Y-72190866D01*
X117228571Y-72190866D02*
X117190476Y-72305152D01*
X117190476Y-72305152D02*
X116733333Y-72762295D01*
X116733333Y-72762295D02*
X117228571Y-72762295D01*
X85233333Y-59359580D02*
X85185714Y-59407200D01*
X85185714Y-59407200D02*
X85042857Y-59454819D01*
X85042857Y-59454819D02*
X84947619Y-59454819D01*
X84947619Y-59454819D02*
X84804762Y-59407200D01*
X84804762Y-59407200D02*
X84709524Y-59311961D01*
X84709524Y-59311961D02*
X84661905Y-59216723D01*
X84661905Y-59216723D02*
X84614286Y-59026247D01*
X84614286Y-59026247D02*
X84614286Y-58883390D01*
X84614286Y-58883390D02*
X84661905Y-58692914D01*
X84661905Y-58692914D02*
X84709524Y-58597676D01*
X84709524Y-58597676D02*
X84804762Y-58502438D01*
X84804762Y-58502438D02*
X84947619Y-58454819D01*
X84947619Y-58454819D02*
X85042857Y-58454819D01*
X85042857Y-58454819D02*
X85185714Y-58502438D01*
X85185714Y-58502438D02*
X85233333Y-58550057D01*
X85566667Y-58454819D02*
X86185714Y-58454819D01*
X86185714Y-58454819D02*
X85852381Y-58835771D01*
X85852381Y-58835771D02*
X85995238Y-58835771D01*
X85995238Y-58835771D02*
X86090476Y-58883390D01*
X86090476Y-58883390D02*
X86138095Y-58931009D01*
X86138095Y-58931009D02*
X86185714Y-59026247D01*
X86185714Y-59026247D02*
X86185714Y-59264342D01*
X86185714Y-59264342D02*
X86138095Y-59359580D01*
X86138095Y-59359580D02*
X86090476Y-59407200D01*
X86090476Y-59407200D02*
X85995238Y-59454819D01*
X85995238Y-59454819D02*
X85709524Y-59454819D01*
X85709524Y-59454819D02*
X85614286Y-59407200D01*
X85614286Y-59407200D02*
X85566667Y-59359580D01*
X78666667Y-49962295D02*
X78400000Y-49581342D01*
X78209524Y-49962295D02*
X78209524Y-49162295D01*
X78209524Y-49162295D02*
X78514286Y-49162295D01*
X78514286Y-49162295D02*
X78590476Y-49200390D01*
X78590476Y-49200390D02*
X78628571Y-49238485D01*
X78628571Y-49238485D02*
X78666667Y-49314676D01*
X78666667Y-49314676D02*
X78666667Y-49428961D01*
X78666667Y-49428961D02*
X78628571Y-49505152D01*
X78628571Y-49505152D02*
X78590476Y-49543247D01*
X78590476Y-49543247D02*
X78514286Y-49581342D01*
X78514286Y-49581342D02*
X78209524Y-49581342D01*
X79428571Y-49962295D02*
X78971428Y-49962295D01*
X79200000Y-49962295D02*
X79200000Y-49162295D01*
X79200000Y-49162295D02*
X79123809Y-49276580D01*
X79123809Y-49276580D02*
X79047619Y-49352771D01*
X79047619Y-49352771D02*
X78971428Y-49390866D01*
D13*
%TO.C,HT7533-1*%
X106180000Y-51040000D02*
X108760000Y-51040000D01*
X108760000Y-52020000D02*
X108760000Y-51040000D01*
X108760000Y-54780000D02*
X108760000Y-55760000D01*
X108760000Y-55760000D02*
X106040000Y-55760000D01*
X105630000Y-51190000D02*
X105390000Y-50860000D01*
X105870000Y-50860000D01*
X105630000Y-51190000D01*
G36*
X105630000Y-51190000D02*
G01*
X105390000Y-50860000D01*
X105870000Y-50860000D01*
X105630000Y-51190000D01*
G37*
%TO.C,D9*%
X93340000Y-48162500D02*
X93340000Y-50847500D01*
X93340000Y-50847500D02*
X95260000Y-50847500D01*
X95260000Y-50847500D02*
X95260000Y-48162500D01*
%TO.C,R14*%
X119756141Y-70020000D02*
X119448859Y-70020000D01*
X119756141Y-70780000D02*
X119448859Y-70780000D01*
%TO.C,R3*%
X90227500Y-48687742D02*
X90227500Y-49162258D01*
X91272500Y-48687742D02*
X91272500Y-49162258D01*
%TO.C,R2*%
X75777500Y-56862742D02*
X75777500Y-57337258D01*
X76822500Y-56862742D02*
X76822500Y-57337258D01*
%TO.C,C5*%
X89590000Y-61627836D02*
X89590000Y-61412164D01*
X90310000Y-61627836D02*
X90310000Y-61412164D01*
%TO.C,C6*%
X88690000Y-47640580D02*
X88690000Y-47359420D01*
X89710000Y-47640580D02*
X89710000Y-47359420D01*
D14*
%TO.C,Rotary_Encoder1*%
X69350000Y-61900000D02*
X81950000Y-61900000D01*
X69350000Y-66500000D02*
X69350000Y-61900000D01*
X69350000Y-70700000D02*
X69350000Y-75300000D01*
X69350000Y-75300000D02*
X72250000Y-75300000D01*
X81950000Y-61900000D02*
X81950000Y-66500000D01*
X81950000Y-70700000D02*
X81950000Y-75300000D01*
X81950000Y-75300000D02*
X79050000Y-75300000D01*
D13*
%TO.C,R4*%
X91613641Y-51020000D02*
X91306359Y-51020000D01*
X91613641Y-51780000D02*
X91306359Y-51780000D01*
%TO.C,C1*%
X102890000Y-52615580D02*
X102890000Y-52334420D01*
X103910000Y-52615580D02*
X103910000Y-52334420D01*
%TO.C,R13*%
X119776141Y-72520000D02*
X119468859Y-72520000D01*
X119776141Y-73280000D02*
X119468859Y-73280000D01*
%TO.C,D3*%
X113112500Y-71360000D02*
X115797500Y-71360000D01*
X115797500Y-69440000D02*
X113112500Y-69440000D01*
X115797500Y-71360000D02*
X115797500Y-69440000D01*
%TO.C,C4*%
X98490000Y-62892164D02*
X98490000Y-63107836D01*
X99210000Y-62892164D02*
X99210000Y-63107836D01*
%TO.C,C8*%
X84840000Y-63707836D02*
X84840000Y-63492164D01*
X85560000Y-63707836D02*
X85560000Y-63492164D01*
%TO.C,R11*%
X103823641Y-43920000D02*
X103516359Y-43920000D01*
X103823641Y-44680000D02*
X103516359Y-44680000D01*
%TO.C,R7*%
X119776141Y-57520000D02*
X119468859Y-57520000D01*
X119776141Y-58280000D02*
X119468859Y-58280000D01*
%TO.C,C10*%
X85665000Y-53861252D02*
X85665000Y-53338748D01*
X87135000Y-53861252D02*
X87135000Y-53338748D01*
%TO.C,D6*%
X113112500Y-63860000D02*
X115797500Y-63860000D01*
X115797500Y-61940000D02*
X113112500Y-61940000D01*
X115797500Y-63860000D02*
X115797500Y-61940000D01*
%TO.C,R9*%
X87715000Y-65427064D02*
X87715000Y-64972936D01*
X89185000Y-65427064D02*
X89185000Y-64972936D01*
%TO.C,STM32F042F6P6*%
X92102500Y-59190000D02*
X96722500Y-59190000D01*
X96722500Y-65960000D02*
X92102500Y-65960000D01*
X90552500Y-59645000D02*
X90222500Y-59885000D01*
X90222500Y-59405000D01*
X90552500Y-59645000D01*
G36*
X90552500Y-59645000D02*
G01*
X90222500Y-59885000D01*
X90222500Y-59405000D01*
X90552500Y-59645000D01*
G37*
%TO.C,R17*%
X94013641Y-51020000D02*
X93706359Y-51020000D01*
X94013641Y-51780000D02*
X93706359Y-51780000D01*
D15*
%TO.C,Battery_Cell1*%
X112500000Y-48000000D02*
X112500000Y-49500000D01*
X117500000Y-48000000D02*
X117500000Y-49500000D01*
X120000000Y-56000000D02*
X110000000Y-56000000D01*
X110000000Y-48000000D01*
X120000000Y-48000000D01*
X120000000Y-56000000D01*
D13*
%TO.C,R18*%
X103813641Y-45320000D02*
X103506359Y-45320000D01*
X103813641Y-46080000D02*
X103506359Y-46080000D01*
%TO.C,U2*%
X86564432Y-49165000D02*
X89360000Y-49165000D01*
X89360000Y-51435000D02*
X86140000Y-51435000D01*
X86270000Y-49160000D02*
X86130000Y-48970000D01*
X86410000Y-48970000D01*
X86270000Y-49160000D01*
G36*
X86270000Y-49160000D02*
G01*
X86130000Y-48970000D01*
X86410000Y-48970000D01*
X86270000Y-49160000D01*
G37*
D14*
%TO.C,Button*%
X96100000Y-47700000D02*
X96350000Y-47700000D01*
X96100000Y-55700000D02*
X96100000Y-47700000D01*
X96350000Y-55700000D02*
X96100000Y-55700000D01*
X98350000Y-47700000D02*
X97850000Y-47700000D01*
X98350000Y-55700000D02*
X97850000Y-55700000D01*
X100350000Y-47700000D02*
X99850000Y-47700000D01*
X100350000Y-55700000D02*
X99850000Y-55700000D01*
X101850000Y-47700000D02*
X102100000Y-47700000D01*
X102100000Y-47700000D02*
X102100000Y-55700000D01*
X102100000Y-55700000D02*
X101850000Y-55700000D01*
X97100000Y-54200000D02*
X101100000Y-54200000D01*
X101100000Y-49200000D01*
X97100000Y-49200000D01*
X97100000Y-54200000D01*
D13*
%TO.C,R15*%
X119776141Y-67520000D02*
X119468859Y-67520000D01*
X119776141Y-68280000D02*
X119468859Y-68280000D01*
%TO.C,nrst-swclk-gnd-swdio-3v3*%
X73350000Y-44200000D02*
X73350000Y-48400000D01*
X73350000Y-48400000D02*
X87650000Y-48400000D01*
X74900000Y-45550000D02*
X75500000Y-44950000D01*
X74900000Y-46300000D02*
X74900000Y-45550000D01*
X75500000Y-44950000D02*
X80500000Y-44950000D01*
X85500000Y-44950000D02*
X80500000Y-44950000D01*
X86100000Y-45550000D02*
X85500000Y-44950000D01*
X86100000Y-46300000D02*
X86100000Y-45550000D01*
X87650000Y-44200000D02*
X73350000Y-44200000D01*
X87650000Y-48400000D02*
X87650000Y-44200000D01*
%TO.C,C2*%
X104365580Y-56440000D02*
X104084420Y-56440000D01*
X104365580Y-57460000D02*
X104084420Y-57460000D01*
%TO.C,D5*%
X113112500Y-66360000D02*
X115797500Y-66360000D01*
X115797500Y-64440000D02*
X113112500Y-64440000D01*
X115797500Y-66360000D02*
X115797500Y-64440000D01*
%TO.C,R10*%
X91927500Y-48687742D02*
X91927500Y-49162258D01*
X92972500Y-48687742D02*
X92972500Y-49162258D01*
%TO.C,R12*%
X119776141Y-75020000D02*
X119468859Y-75020000D01*
X119776141Y-75780000D02*
X119468859Y-75780000D01*
%TO.C,R5*%
X119796141Y-60020000D02*
X119488859Y-60020000D01*
X119796141Y-60780000D02*
X119488859Y-60780000D01*
%TO.C,D1*%
X113112500Y-76360000D02*
X115797500Y-76360000D01*
X115797500Y-74440000D02*
X113112500Y-74440000D01*
X115797500Y-76360000D02*
X115797500Y-74440000D01*
%TO.C,C7*%
X107115580Y-58530000D02*
X106834420Y-58530000D01*
X107115580Y-59550000D02*
X106834420Y-59550000D01*
%TO.C,D10*%
X99187500Y-45960000D02*
X101872500Y-45960000D01*
X101872500Y-44040000D02*
X99187500Y-44040000D01*
X101872500Y-45960000D02*
X101872500Y-44040000D01*
D15*
%TO.C,Buzzer1*%
X97750000Y-79300000D02*
G75*
G02*
X93750000Y-79300000I-2000000J0D01*
G01*
X93750000Y-79300000D02*
G75*
G02*
X97750000Y-79300000I2000000J0D01*
G01*
X107250000Y-79300000D02*
G75*
G02*
X84250000Y-79300000I-11500000J0D01*
G01*
X84250000Y-79300000D02*
G75*
G02*
X107250000Y-79300000I11500000J0D01*
G01*
D13*
%TO.C,C9*%
X85692164Y-64940000D02*
X85907836Y-64940000D01*
X85692164Y-65660000D02*
X85907836Y-65660000D01*
D16*
%TO.C,egg*%
G36*
X113036108Y-84183762D02*
G01*
X113051470Y-84204672D01*
X113047846Y-84234503D01*
X113026797Y-84264304D01*
X112993666Y-84295198D01*
X112955160Y-84322765D01*
X112917986Y-84342586D01*
X112888851Y-84350241D01*
X112877539Y-84346731D01*
X112874576Y-84327165D01*
X112887807Y-84296304D01*
X112912497Y-84260190D01*
X112943907Y-84224868D01*
X112977303Y-84196383D01*
X113007506Y-84180893D01*
X113036108Y-84183762D01*
G37*
G36*
X112628839Y-83005269D02*
G01*
X112626950Y-83018574D01*
X112612404Y-83048542D01*
X112588592Y-83089900D01*
X112558912Y-83137377D01*
X112526755Y-83185699D01*
X112495515Y-83229597D01*
X112468585Y-83263798D01*
X112450646Y-83282081D01*
X112409577Y-83309669D01*
X112372844Y-83321200D01*
X112328415Y-83319278D01*
X112301246Y-83314426D01*
X112253392Y-83301022D01*
X112209723Y-83282785D01*
X112200435Y-83277557D01*
X112160700Y-83252931D01*
X112269093Y-83233364D01*
X112367565Y-83209384D01*
X112446585Y-83174836D01*
X112513008Y-83125979D01*
X112562208Y-83073444D01*
X112592707Y-83038034D01*
X112616505Y-83013592D01*
X112628647Y-83005190D01*
X112628839Y-83005269D01*
G37*
G36*
X113450819Y-83001959D02*
G01*
X113466564Y-83025941D01*
X113465811Y-83067678D01*
X113448998Y-83123660D01*
X113430819Y-83163739D01*
X113410018Y-83207983D01*
X113383313Y-83269085D01*
X113354379Y-83338460D01*
X113330641Y-83397864D01*
X113299084Y-83472195D01*
X113258510Y-83557934D01*
X113211524Y-83650446D01*
X113160728Y-83745095D01*
X113108726Y-83837244D01*
X113058120Y-83922257D01*
X113011513Y-83995499D01*
X112971508Y-84052333D01*
X112946136Y-84082735D01*
X112847701Y-84173232D01*
X112748490Y-84240929D01*
X112650613Y-84284700D01*
X112556180Y-84303419D01*
X112531758Y-84304035D01*
X112431901Y-84290928D01*
X112321014Y-84254793D01*
X112200875Y-84196578D01*
X112073257Y-84117229D01*
X111939937Y-84017694D01*
X111846164Y-83938287D01*
X111760639Y-83859863D01*
X111759466Y-83858678D01*
X111718338Y-83817115D01*
X111914584Y-83817115D01*
X111922166Y-83829406D01*
X111948281Y-83853617D01*
X111988781Y-83886687D01*
X112039518Y-83925556D01*
X112096342Y-83967169D01*
X112155108Y-84008465D01*
X112211664Y-84046385D01*
X112261865Y-84077871D01*
X112289877Y-84093843D01*
X112379905Y-84136839D01*
X112458179Y-84161100D01*
X112531686Y-84167581D01*
X112607415Y-84157230D01*
X112655729Y-84143692D01*
X112713036Y-84122651D01*
X112759215Y-84097932D01*
X112805839Y-84062710D01*
X112832258Y-84039637D01*
X112896920Y-83973196D01*
X112965472Y-83888142D01*
X113032870Y-83791531D01*
X113094061Y-83690418D01*
X113127302Y-83627282D01*
X113150450Y-83577499D01*
X113175316Y-83519466D01*
X113199905Y-83458470D01*
X113222224Y-83399801D01*
X113240277Y-83348747D01*
X113252071Y-83310593D01*
X113255610Y-83290632D01*
X113254864Y-83289031D01*
X113243939Y-83296929D01*
X113219741Y-83320779D01*
X113186821Y-83356011D01*
X113174816Y-83369361D01*
X113064468Y-83477395D01*
X112940767Y-83567609D01*
X112800414Y-83641914D01*
X112640109Y-83702220D01*
X112559467Y-83725596D01*
X112473463Y-83747551D01*
X112397273Y-83764333D01*
X112323300Y-83777090D01*
X112243937Y-83786971D01*
X112151584Y-83795119D01*
X112055228Y-83801664D01*
X111997502Y-83805876D01*
X111950997Y-83810448D01*
X111921669Y-83814725D01*
X111914584Y-83817115D01*
X111718338Y-83817115D01*
X111696654Y-83795202D01*
X111653129Y-83743008D01*
X111628980Y-83701982D01*
X111623103Y-83671019D01*
X111629022Y-83655657D01*
X111645220Y-83647606D01*
X111675350Y-83646930D01*
X111723066Y-83653689D01*
X111792017Y-83667945D01*
X111820262Y-83674353D01*
X111929593Y-83694380D01*
X112036771Y-83702558D01*
X112146844Y-83698415D01*
X112264863Y-83681481D01*
X112395878Y-83651286D01*
X112544941Y-83607359D01*
X112547244Y-83606624D01*
X112640817Y-83574699D01*
X112722213Y-83541575D01*
X112796266Y-83504158D01*
X112867821Y-83459349D01*
X112941716Y-83404054D01*
X113022791Y-83335174D01*
X113115885Y-83249614D01*
X113138095Y-83228591D01*
X113229519Y-83143831D01*
X113304388Y-83079181D01*
X113363650Y-83033957D01*
X113408251Y-83007471D01*
X113439138Y-82999039D01*
X113450819Y-83001959D01*
G37*
G36*
X112727097Y-79987784D02*
G01*
X112919892Y-80035881D01*
X113118441Y-80110152D01*
X113322555Y-80210510D01*
X113532046Y-80336866D01*
X113746729Y-80489134D01*
X113966418Y-80667226D01*
X114094187Y-80780610D01*
X114175203Y-80855514D01*
X114239979Y-80917643D01*
X114292990Y-80971820D01*
X114338710Y-81022867D01*
X114381614Y-81075607D01*
X114426177Y-81134862D01*
X114438144Y-81151321D01*
X114496302Y-81227454D01*
X114565589Y-81311450D01*
X114640550Y-81397219D01*
X114715729Y-81478670D01*
X114785667Y-81549718D01*
X114841131Y-81601033D01*
X114920326Y-81665335D01*
X115021344Y-81740441D01*
X115144923Y-81826877D01*
X115291798Y-81925170D01*
X115317520Y-81942040D01*
X115486377Y-82058029D01*
X115635814Y-82173353D01*
X115772759Y-82294021D01*
X115904136Y-82426048D01*
X116006647Y-82540136D01*
X116093983Y-82642476D01*
X116164167Y-82728211D01*
X116219011Y-82800209D01*
X116260325Y-82861338D01*
X116289920Y-82914467D01*
X116309605Y-82962464D01*
X116321191Y-83008199D01*
X116325915Y-83045983D01*
X116319382Y-83100349D01*
X116291887Y-83165999D01*
X116242848Y-83243971D01*
X116171682Y-83335303D01*
X116147772Y-83363342D01*
X116098202Y-83422644D01*
X116067890Y-83464097D01*
X116056307Y-83488485D01*
X116058687Y-83495627D01*
X116082966Y-83495684D01*
X116113928Y-83478054D01*
X116144384Y-83460196D01*
X116170548Y-83459063D01*
X116191337Y-83465761D01*
X116249107Y-83502468D01*
X116295237Y-83563021D01*
X116328959Y-83646356D01*
X116333367Y-83662575D01*
X116350358Y-83782999D01*
X116340728Y-83905278D01*
X116304905Y-84028597D01*
X116243318Y-84152137D01*
X116156396Y-84275084D01*
X116044564Y-84396622D01*
X115908253Y-84515936D01*
X115869997Y-84545626D01*
X115817036Y-84587540D01*
X115770233Y-84627784D01*
X115735179Y-84661359D01*
X115718864Y-84680809D01*
X115705889Y-84704576D01*
X115683632Y-84748821D01*
X115654146Y-84809318D01*
X115619482Y-84881839D01*
X115581692Y-84962156D01*
X115567119Y-84993455D01*
X115464077Y-85204515D01*
X115363154Y-85389269D01*
X115264482Y-85547498D01*
X115168194Y-85678979D01*
X115129685Y-85724821D01*
X115027071Y-85841639D01*
X115048874Y-85892075D01*
X115064100Y-85923923D01*
X115089125Y-85972641D01*
X115120392Y-86031427D01*
X115152144Y-86089517D01*
X115187687Y-86155007D01*
X115211287Y-86202598D01*
X115225099Y-86237627D01*
X115231283Y-86265429D01*
X115232163Y-86287191D01*
X115228218Y-86312898D01*
X115216776Y-86345768D01*
X115196465Y-86388237D01*
X115165907Y-86442743D01*
X115123730Y-86511725D01*
X115068558Y-86597619D01*
X114999014Y-86702863D01*
X114990631Y-86715422D01*
X114913823Y-86835872D01*
X114853940Y-86943220D01*
X114808393Y-87043280D01*
X114774592Y-87141866D01*
X114749946Y-87244795D01*
X114746390Y-87263643D01*
X114736498Y-87334347D01*
X114737216Y-87381212D01*
X114748770Y-87405521D01*
X114771385Y-87408553D01*
X114772026Y-87408386D01*
X114791039Y-87400405D01*
X114830632Y-87381670D01*
X114887254Y-87353937D01*
X114957357Y-87318961D01*
X115037386Y-87278496D01*
X115110592Y-87241081D01*
X115282488Y-87153624D01*
X115433388Y-87078758D01*
X115565815Y-87015447D01*
X115682288Y-86962651D01*
X115785329Y-86919331D01*
X115877458Y-86884449D01*
X115961197Y-86856967D01*
X116039065Y-86835846D01*
X116113583Y-86820048D01*
X116146099Y-86814493D01*
X116311024Y-86795770D01*
X116456069Y-86795266D01*
X116581587Y-86813047D01*
X116687931Y-86849187D01*
X116775456Y-86903753D01*
X116820956Y-86947466D01*
X116868535Y-87015213D01*
X116889376Y-87081019D01*
X116883769Y-87145807D01*
X116883592Y-87146414D01*
X116869708Y-87193667D01*
X116112301Y-87405092D01*
X115847268Y-87478395D01*
X115604545Y-87544125D01*
X115384525Y-87602188D01*
X115187604Y-87652489D01*
X115014174Y-87694935D01*
X114864633Y-87729431D01*
X114739373Y-87755883D01*
X114638789Y-87774197D01*
X114563277Y-87784279D01*
X114514744Y-87786125D01*
X114440278Y-87785340D01*
X114391323Y-87792538D01*
X114368108Y-87807680D01*
X114366800Y-87810832D01*
X114361695Y-87818947D01*
X114349249Y-87828423D01*
X114326706Y-87840443D01*
X114291311Y-87856190D01*
X114240308Y-87876845D01*
X114170943Y-87903591D01*
X114080459Y-87937613D01*
X114012600Y-87962857D01*
X113866691Y-88016357D01*
X113712209Y-88071705D01*
X113546251Y-88129899D01*
X113365921Y-88191934D01*
X113168318Y-88258809D01*
X112950545Y-88331522D01*
X112709702Y-88411067D01*
X112705047Y-88412597D01*
X112568833Y-88457371D01*
X112456048Y-88494327D01*
X112364283Y-88524090D01*
X112291132Y-88547290D01*
X112234190Y-88564552D01*
X112191047Y-88576503D01*
X112159298Y-88583772D01*
X112136536Y-88586984D01*
X112120356Y-88586767D01*
X112108346Y-88583748D01*
X112098104Y-88578555D01*
X112089222Y-88573043D01*
X112054014Y-88536665D01*
X112038620Y-88482952D01*
X112039675Y-88463826D01*
X112041291Y-88434519D01*
X112149049Y-88434519D01*
X112167800Y-88445613D01*
X112175855Y-88446068D01*
X112202667Y-88442239D01*
X112250468Y-88431846D01*
X112314256Y-88416265D01*
X112389027Y-88396871D01*
X112469772Y-88375038D01*
X112551490Y-88352139D01*
X112629175Y-88329552D01*
X112697822Y-88308648D01*
X112752426Y-88290804D01*
X112784298Y-88278968D01*
X112820635Y-88265064D01*
X112878780Y-88244326D01*
X112954633Y-88218150D01*
X113044097Y-88187927D01*
X113143071Y-88155051D01*
X113247458Y-88120916D01*
X113284915Y-88108800D01*
X113489263Y-88042712D01*
X113668147Y-87984474D01*
X113822074Y-87933911D01*
X113951548Y-87890854D01*
X114057077Y-87855129D01*
X114139165Y-87826566D01*
X114198321Y-87804995D01*
X114235048Y-87790243D01*
X114249700Y-87782314D01*
X114251655Y-87774300D01*
X114255358Y-87759116D01*
X114249690Y-87721017D01*
X114235247Y-87676485D01*
X114214581Y-87633986D01*
X114197792Y-87610001D01*
X114169192Y-87585704D01*
X114124147Y-87557385D01*
X114071651Y-87530602D01*
X114063493Y-87526976D01*
X113999157Y-87496891D01*
X113933547Y-87461548D01*
X113863354Y-87418743D01*
X113785269Y-87366278D01*
X113695988Y-87301949D01*
X113592200Y-87223555D01*
X113499329Y-87151448D01*
X113420777Y-87090016D01*
X113343058Y-87029416D01*
X113270821Y-86973260D01*
X113208715Y-86925156D01*
X113161386Y-86888716D01*
X113147051Y-86877771D01*
X113063599Y-86810676D01*
X113004605Y-86754825D01*
X112969871Y-86710019D01*
X112960812Y-86689202D01*
X112950810Y-86661459D01*
X112944093Y-86642829D01*
X112922936Y-86605554D01*
X112901914Y-86584872D01*
X112896007Y-86582988D01*
X112871660Y-86591808D01*
X112858036Y-86620431D01*
X112857047Y-86662951D01*
X112862002Y-86687995D01*
X112880243Y-86739513D01*
X112907957Y-86788290D01*
X112947901Y-86837103D01*
X113002827Y-86888734D01*
X113075489Y-86945963D01*
X113168640Y-87011571D01*
X113209726Y-87039108D01*
X113343395Y-87131403D01*
X113472660Y-87227577D01*
X113590996Y-87322576D01*
X113691875Y-87411344D01*
X113699321Y-87418331D01*
X113756720Y-87479111D01*
X113789750Y-87531611D01*
X113798899Y-87578555D01*
X113784650Y-87622666D01*
X113747490Y-87666667D01*
X113744167Y-87669703D01*
X113716503Y-87692082D01*
X113688914Y-87705894D01*
X113651768Y-87714732D01*
X113607088Y-87720826D01*
X113533643Y-87732896D01*
X113440160Y-87753406D01*
X113331657Y-87780815D01*
X113213151Y-87813574D01*
X113089665Y-87850139D01*
X112966213Y-87888967D01*
X112847819Y-87928509D01*
X112739495Y-87967222D01*
X112646265Y-88003562D01*
X112573146Y-88035982D01*
X112556984Y-88044135D01*
X112488285Y-88083926D01*
X112420006Y-88130332D01*
X112354473Y-88180902D01*
X112294009Y-88233185D01*
X112240935Y-88284731D01*
X112197581Y-88333087D01*
X112166265Y-88375804D01*
X112149314Y-88410431D01*
X112149049Y-88434519D01*
X112041291Y-88434519D01*
X112042497Y-88412640D01*
X112053582Y-88364967D01*
X112071982Y-88323443D01*
X112101603Y-88282555D01*
X112146348Y-88236783D01*
X112201630Y-88187834D01*
X112323349Y-88094446D01*
X112469862Y-88000401D01*
X112638854Y-87907015D01*
X112828009Y-87815600D01*
X112954025Y-87760646D01*
X113013832Y-87737387D01*
X113087961Y-87711379D01*
X113171725Y-87683977D01*
X113260440Y-87656537D01*
X113349418Y-87630414D01*
X113433974Y-87606966D01*
X113509422Y-87587545D01*
X113571077Y-87573511D01*
X113614252Y-87566217D01*
X113628271Y-87565561D01*
X113649950Y-87562710D01*
X113654610Y-87549253D01*
X113641385Y-87523066D01*
X113609410Y-87482025D01*
X113580822Y-87449344D01*
X113492465Y-87359266D01*
X113380701Y-87259695D01*
X113247081Y-87151900D01*
X113093154Y-87037149D01*
X112975340Y-86954181D01*
X112902877Y-86901188D01*
X112849194Y-86852788D01*
X112808624Y-86801690D01*
X112775501Y-86740603D01*
X112744160Y-86662237D01*
X112740453Y-86651894D01*
X112716090Y-86588907D01*
X112704079Y-86562462D01*
X113074561Y-86562462D01*
X113078300Y-86599978D01*
X113084478Y-86625643D01*
X113095235Y-86660107D01*
X113109368Y-86687961D01*
X113131706Y-86715476D01*
X113167082Y-86748935D01*
X113203722Y-86780555D01*
X113325511Y-86883225D01*
X113441419Y-86979463D01*
X113549052Y-87067353D01*
X113646020Y-87144981D01*
X113729926Y-87210434D01*
X113798381Y-87261795D01*
X113848990Y-87297149D01*
X113850938Y-87298417D01*
X113879493Y-87315281D01*
X113926931Y-87341507D01*
X113987876Y-87374194D01*
X114056951Y-87410447D01*
X114100014Y-87432678D01*
X114300804Y-87535669D01*
X114303976Y-87521931D01*
X114436098Y-87521931D01*
X114438714Y-87570301D01*
X114448487Y-87619491D01*
X114450047Y-87625488D01*
X114473741Y-87714792D01*
X115492171Y-87433108D01*
X115656295Y-87387604D01*
X115815047Y-87343378D01*
X115966143Y-87301079D01*
X116107296Y-87261358D01*
X116236221Y-87224863D01*
X116350638Y-87192241D01*
X116448257Y-87164145D01*
X116526796Y-87141223D01*
X116583968Y-87124123D01*
X116617490Y-87113496D01*
X116619815Y-87112686D01*
X116672857Y-87093290D01*
X116704954Y-87079150D01*
X116720978Y-87067021D01*
X116725801Y-87053664D01*
X116725208Y-87042542D01*
X116710212Y-87011263D01*
X116677349Y-86977913D01*
X116634561Y-86948941D01*
X116589791Y-86930799D01*
X116586756Y-86930095D01*
X116554029Y-86925842D01*
X116503491Y-86922519D01*
X116444508Y-86920686D01*
X116426633Y-86920510D01*
X116384275Y-86920931D01*
X116345325Y-86923223D01*
X116304894Y-86928305D01*
X116258093Y-86937105D01*
X116200033Y-86950548D01*
X116125829Y-86969558D01*
X116030589Y-86995060D01*
X116025858Y-86996341D01*
X115834861Y-87052099D01*
X115663810Y-87111205D01*
X115505474Y-87176599D01*
X115352621Y-87251218D01*
X115226526Y-87321220D01*
X115151598Y-87363752D01*
X115068171Y-87409280D01*
X114987767Y-87451605D01*
X114936069Y-87477662D01*
X114863576Y-87511540D01*
X114808950Y-87531802D01*
X114766705Y-87538744D01*
X114731357Y-87532661D01*
X114697420Y-87513849D01*
X114670079Y-87491981D01*
X114632669Y-87446053D01*
X114614518Y-87387962D01*
X114615273Y-87315034D01*
X114634576Y-87224590D01*
X114634589Y-87224544D01*
X114657137Y-87152884D01*
X114684646Y-87081046D01*
X114719068Y-87005184D01*
X114762351Y-86921451D01*
X114816448Y-86826000D01*
X114883308Y-86714986D01*
X114935705Y-86630798D01*
X115108532Y-86355781D01*
X115084469Y-86265970D01*
X115065447Y-86207509D01*
X115039830Y-86145529D01*
X115010993Y-86086688D01*
X114982314Y-86037643D01*
X114957166Y-86005055D01*
X114948558Y-85997931D01*
X114920879Y-85990502D01*
X114903261Y-86005035D01*
X114898823Y-86037211D01*
X114903120Y-86060832D01*
X114918730Y-86104509D01*
X114945258Y-86164462D01*
X114979456Y-86233772D01*
X115017343Y-86304213D01*
X115025402Y-86325479D01*
X115023516Y-86349640D01*
X115010041Y-86383927D01*
X114990485Y-86422241D01*
X114966220Y-86463749D01*
X114929932Y-86520759D01*
X114885794Y-86586946D01*
X114837976Y-86655980D01*
X114816985Y-86685432D01*
X114728956Y-86812620D01*
X114656990Y-86928282D01*
X114597236Y-87039395D01*
X114545843Y-87152933D01*
X114513900Y-87234568D01*
X114479542Y-87330704D01*
X114455678Y-87407240D01*
X114441475Y-87469281D01*
X114436098Y-87521931D01*
X114303976Y-87521931D01*
X114316648Y-87467043D01*
X114327715Y-87428497D01*
X114346693Y-87371970D01*
X114371075Y-87304587D01*
X114398353Y-87233467D01*
X114402985Y-87221803D01*
X114449364Y-87116533D01*
X114508976Y-86997817D01*
X114577590Y-86873037D01*
X114650971Y-86749574D01*
X114724890Y-86634809D01*
X114795112Y-86536121D01*
X114799328Y-86530596D01*
X114838617Y-86475929D01*
X114868172Y-86428001D01*
X114884688Y-86392417D01*
X114886992Y-86381845D01*
X114882053Y-86354518D01*
X114867286Y-86310358D01*
X114845751Y-86256466D01*
X114820507Y-86199936D01*
X114794611Y-86147872D01*
X114771122Y-86107372D01*
X114764845Y-86098323D01*
X114751423Y-86085271D01*
X114734182Y-86083474D01*
X114707204Y-86094313D01*
X114664576Y-86119164D01*
X114658024Y-86123218D01*
X114622036Y-86144406D01*
X114569346Y-86173988D01*
X114507384Y-86207847D01*
X114450883Y-86238017D01*
X114403704Y-86262558D01*
X114362315Y-86282812D01*
X114322219Y-86300345D01*
X114278919Y-86316725D01*
X114227919Y-86333520D01*
X114164720Y-86352296D01*
X114084826Y-86374623D01*
X113983741Y-86402065D01*
X113968343Y-86406216D01*
X113843635Y-86439243D01*
X113739264Y-86465258D01*
X113649578Y-86485202D01*
X113568927Y-86500020D01*
X113491656Y-86510656D01*
X113412115Y-86518052D01*
X113324653Y-86523154D01*
X113250797Y-86526031D01*
X113188326Y-86529163D01*
X113135184Y-86533751D01*
X113097713Y-86539130D01*
X113083162Y-86543636D01*
X113074561Y-86562462D01*
X112704079Y-86562462D01*
X112691472Y-86534706D01*
X112669931Y-86496341D01*
X112662234Y-86486240D01*
X112631779Y-86463378D01*
X112586292Y-86440712D01*
X112549930Y-86427658D01*
X112418268Y-86381424D01*
X112273896Y-86317895D01*
X112121997Y-86240232D01*
X111967755Y-86151600D01*
X111816353Y-86055162D01*
X111672971Y-85954083D01*
X111542797Y-85851526D01*
X111431009Y-85750655D01*
X111415327Y-85735036D01*
X111348480Y-85660537D01*
X111274446Y-85566165D01*
X111196576Y-85457102D01*
X111118225Y-85338527D01*
X111042752Y-85215622D01*
X110973508Y-85093566D01*
X110913848Y-84977541D01*
X110886304Y-84918101D01*
X110848283Y-84822438D01*
X110808705Y-84705547D01*
X110769075Y-84573203D01*
X110730894Y-84431188D01*
X110695663Y-84285280D01*
X110681919Y-84220954D01*
X110664888Y-84141254D01*
X110640070Y-84004894D01*
X110628102Y-83925035D01*
X110616540Y-83834731D01*
X110605823Y-83742621D01*
X110596793Y-83656576D01*
X110590294Y-83584463D01*
X110587832Y-83548912D01*
X110582998Y-83463302D01*
X110578410Y-83400525D01*
X110572561Y-83356292D01*
X110563946Y-83326311D01*
X110551056Y-83306293D01*
X110532384Y-83291947D01*
X110528793Y-83290154D01*
X110705150Y-83290154D01*
X110710732Y-83564074D01*
X110725310Y-83737188D01*
X110738170Y-83826477D01*
X110759043Y-83934801D01*
X110786313Y-84056119D01*
X110818359Y-84184395D01*
X110853565Y-84313590D01*
X110890314Y-84437666D01*
X110926984Y-84550585D01*
X110961959Y-84646308D01*
X110981378Y-84692797D01*
X111107683Y-84949282D01*
X111248660Y-85186587D01*
X111403411Y-85403884D01*
X111571040Y-85600345D01*
X111750648Y-85775144D01*
X111941338Y-85927448D01*
X112142212Y-86056432D01*
X112352372Y-86161267D01*
X112570919Y-86241124D01*
X112695474Y-86274355D01*
X112860638Y-86304105D01*
X113034637Y-86318009D01*
X113222115Y-86316241D01*
X113412461Y-86300698D01*
X113454758Y-86292855D01*
X113516565Y-86277376D01*
X113591929Y-86256126D01*
X113674895Y-86230975D01*
X113759512Y-86203789D01*
X113839825Y-86176439D01*
X113909881Y-86150790D01*
X113963725Y-86128712D01*
X113970533Y-86125591D01*
X114201847Y-86003198D01*
X114429790Y-85854364D01*
X114653638Y-85679697D01*
X114872670Y-85479807D01*
X115086162Y-85255301D01*
X115286558Y-85015503D01*
X115339035Y-84948409D01*
X115378470Y-84894123D01*
X115404819Y-84848126D01*
X115418044Y-84805896D01*
X115418104Y-84762914D01*
X115404956Y-84714660D01*
X115378559Y-84656613D01*
X115338874Y-84584253D01*
X115285858Y-84493059D01*
X115281751Y-84486032D01*
X115245903Y-84417251D01*
X115220209Y-84347652D01*
X115202826Y-84279809D01*
X115190258Y-84216483D01*
X115185488Y-84166723D01*
X115188307Y-84118121D01*
X115198505Y-84058273D01*
X115199037Y-84055605D01*
X115232230Y-83941413D01*
X115285696Y-83822256D01*
X115355679Y-83705872D01*
X115394513Y-83652653D01*
X115441531Y-83588663D01*
X115474183Y-83532890D01*
X115493297Y-83479479D01*
X115499704Y-83422576D01*
X115494235Y-83356329D01*
X115477718Y-83274884D01*
X115458638Y-83200514D01*
X115427162Y-83093678D01*
X115423228Y-83080323D01*
X115383349Y-82969261D01*
X115336417Y-82862223D01*
X115279845Y-82754107D01*
X115246871Y-82699324D01*
X115462844Y-82699324D01*
X115469701Y-82768258D01*
X115485652Y-82856205D01*
X115510746Y-82965539D01*
X115535996Y-83064516D01*
X115565541Y-83168972D01*
X115593367Y-83248884D01*
X115620963Y-83306702D01*
X115649820Y-83344875D01*
X115681425Y-83365851D01*
X115717270Y-83372077D01*
X115722995Y-83371896D01*
X115764234Y-83359845D01*
X115813829Y-83330772D01*
X115864263Y-83289719D01*
X115897381Y-83254974D01*
X115930705Y-83211073D01*
X115966422Y-83157387D01*
X115986911Y-83122957D01*
X116010117Y-83078277D01*
X116020318Y-83046410D01*
X116019455Y-83017471D01*
X116012697Y-82991675D01*
X115983644Y-82926172D01*
X115934854Y-82855327D01*
X115864687Y-82777077D01*
X115773174Y-82690845D01*
X115705061Y-82632602D01*
X115651469Y-82592492D01*
X115608575Y-82568592D01*
X115572555Y-82558981D01*
X115539583Y-82561736D01*
X115525328Y-82566268D01*
X115496321Y-82582875D01*
X115476205Y-82609005D01*
X115465028Y-82647030D01*
X115462844Y-82699324D01*
X115246871Y-82699324D01*
X115211050Y-82639810D01*
X115127442Y-82514227D01*
X115068579Y-82430618D01*
X115009759Y-82346833D01*
X114967028Y-82281561D01*
X114939396Y-82232171D01*
X114925866Y-82196036D01*
X114925448Y-82170526D01*
X114937149Y-82153012D01*
X114959222Y-82141146D01*
X114982239Y-82135766D01*
X115008598Y-82138235D01*
X115044359Y-82150202D01*
X115095577Y-82173314D01*
X115118564Y-82184482D01*
X115209162Y-82232880D01*
X115311143Y-82293888D01*
X115418602Y-82363420D01*
X115525632Y-82437390D01*
X115626332Y-82511707D01*
X115714790Y-82582287D01*
X115785105Y-82645043D01*
X115787935Y-82647799D01*
X115844159Y-82704820D01*
X115902610Y-82767449D01*
X115958351Y-82830081D01*
X116006439Y-82887112D01*
X116041937Y-82932941D01*
X116051276Y-82946526D01*
X116070280Y-82981544D01*
X116077110Y-83014655D01*
X116071415Y-83053472D01*
X116052847Y-83105606D01*
X116042910Y-83129180D01*
X115996509Y-83214344D01*
X115927765Y-83308382D01*
X115839026Y-83408796D01*
X115732636Y-83513092D01*
X115610942Y-83618771D01*
X115504028Y-83702721D01*
X115409388Y-83786318D01*
X115338115Y-83876385D01*
X115290971Y-83970965D01*
X115268721Y-84068101D01*
X115272125Y-84165835D01*
X115293568Y-84242466D01*
X115336738Y-84316888D01*
X115399480Y-84376178D01*
X115477990Y-84419064D01*
X115568463Y-84444281D01*
X115667093Y-84450560D01*
X115770075Y-84436635D01*
X115826665Y-84420089D01*
X115927069Y-84371609D01*
X116021564Y-84301011D01*
X116105914Y-84213308D01*
X116175880Y-84113510D01*
X116227226Y-84006625D01*
X116252622Y-83916357D01*
X116260151Y-83869809D01*
X116262674Y-83830202D01*
X116259613Y-83789057D01*
X116250388Y-83737892D01*
X116236213Y-83675737D01*
X116218487Y-83605353D01*
X116203689Y-83559563D01*
X116189894Y-83536218D01*
X116175175Y-83533169D01*
X116157606Y-83548270D01*
X116141503Y-83570062D01*
X116122504Y-83595012D01*
X116103690Y-83606260D01*
X116074192Y-83608309D01*
X116051635Y-83607266D01*
X115979827Y-83613370D01*
X115924384Y-83639244D01*
X115887528Y-83682842D01*
X115871477Y-83742121D01*
X115871599Y-83772907D01*
X115882571Y-83825784D01*
X115903338Y-83862280D01*
X115929552Y-83880561D01*
X115956868Y-83878796D01*
X115980937Y-83855151D01*
X115993600Y-83824336D01*
X116009479Y-83784700D01*
X116027531Y-83772152D01*
X116047745Y-83786692D01*
X116056944Y-83800998D01*
X116067258Y-83845740D01*
X116055458Y-83898357D01*
X116023668Y-83954418D01*
X115974005Y-84009493D01*
X115945672Y-84033333D01*
X115918741Y-84052550D01*
X115898154Y-84058249D01*
X115872726Y-84050879D01*
X115844473Y-84037406D01*
X115797635Y-84007583D01*
X115753365Y-83969071D01*
X115743638Y-83958380D01*
X115705514Y-83922996D01*
X115656371Y-83889618D01*
X115631317Y-83876599D01*
X115592066Y-83856230D01*
X115564583Y-83837050D01*
X115556498Y-83826941D01*
X115564394Y-83811815D01*
X115589414Y-83782877D01*
X115627961Y-83743903D01*
X115676438Y-83698672D01*
X115690997Y-83685670D01*
X115781495Y-83602847D01*
X115871207Y-83515668D01*
X115956363Y-83428161D01*
X116033196Y-83344355D01*
X116097940Y-83268279D01*
X116146826Y-83203961D01*
X116159971Y-83184217D01*
X116191678Y-83128554D01*
X116212020Y-83076942D01*
X116219919Y-83026755D01*
X116214293Y-82975373D01*
X116194064Y-82920174D01*
X116158149Y-82858537D01*
X116105470Y-82787837D01*
X116034947Y-82705452D01*
X115945499Y-82608763D01*
X115905782Y-82567163D01*
X115827185Y-82486643D01*
X115753788Y-82414659D01*
X115681771Y-82348059D01*
X115607322Y-82283691D01*
X115526622Y-82218405D01*
X115435856Y-82149048D01*
X115331210Y-82072472D01*
X115208866Y-81985522D01*
X115159705Y-81951039D01*
X115054200Y-81876931D01*
X114967845Y-81815370D01*
X114897284Y-81763649D01*
X114839168Y-81719063D01*
X114790146Y-81678907D01*
X114746868Y-81640473D01*
X114705983Y-81601057D01*
X114664140Y-81557951D01*
X114636608Y-81528574D01*
X114580010Y-81470233D01*
X114538005Y-81432689D01*
X114511175Y-81416435D01*
X114504774Y-81416018D01*
X114478265Y-81424039D01*
X114430768Y-81439310D01*
X114366734Y-81460330D01*
X114290613Y-81485600D01*
X114206855Y-81513619D01*
X114119907Y-81542887D01*
X114034222Y-81571903D01*
X113954247Y-81599170D01*
X113884432Y-81623184D01*
X113829227Y-81642448D01*
X113793082Y-81655460D01*
X113783335Y-81659239D01*
X113738367Y-81683334D01*
X113706257Y-81715167D01*
X113684751Y-81759474D01*
X113671593Y-81820995D01*
X113664529Y-81904465D01*
X113664296Y-81909299D01*
X113647509Y-82084294D01*
X113614681Y-82237871D01*
X113565914Y-82369879D01*
X113501308Y-82480166D01*
X113420963Y-82568583D01*
X113324980Y-82634979D01*
X113213461Y-82679203D01*
X113139066Y-82695042D01*
X113039458Y-82697810D01*
X112932331Y-82678804D01*
X112822963Y-82640228D01*
X112716635Y-82584283D01*
X112618626Y-82513173D01*
X112553156Y-82450563D01*
X112505575Y-82391474D01*
X112450549Y-82310135D01*
X112394679Y-82217398D01*
X112390088Y-82209777D01*
X112326204Y-82093638D01*
X112300694Y-82044567D01*
X112288664Y-82024888D01*
X112274026Y-82017708D01*
X112248529Y-82021830D01*
X112215516Y-82032217D01*
X112190311Y-82040910D01*
X112170813Y-82050508D01*
X112155925Y-82064501D01*
X112144552Y-82086375D01*
X112135595Y-82119618D01*
X112127960Y-82167717D01*
X112120547Y-82234161D01*
X112112263Y-82322436D01*
X112107449Y-82375861D01*
X112091939Y-82510535D01*
X112070970Y-82623416D01*
X112043128Y-82719586D01*
X112007000Y-82804131D01*
X111970686Y-82867589D01*
X111918026Y-82942197D01*
X111865958Y-82996275D01*
X111807175Y-83035301D01*
X111734370Y-83064757D01*
X111690581Y-83077562D01*
X111628714Y-83092956D01*
X111582736Y-83100450D01*
X111542762Y-83100774D01*
X111498906Y-83094658D01*
X111487883Y-83092546D01*
X111370452Y-83056049D01*
X111256525Y-82994822D01*
X111148863Y-82911303D01*
X111050221Y-82807935D01*
X110963360Y-82687155D01*
X110901432Y-82573848D01*
X110882527Y-82539567D01*
X110872115Y-82520690D01*
X110846641Y-82491375D01*
X110826112Y-82486643D01*
X110811634Y-82507229D01*
X110809957Y-82512903D01*
X110804861Y-82535867D01*
X110795825Y-82580161D01*
X110783920Y-82640402D01*
X110770215Y-82711203D01*
X110762600Y-82751100D01*
X110722360Y-83021298D01*
X110705150Y-83290154D01*
X110528793Y-83290154D01*
X110506425Y-83278984D01*
X110490493Y-83271793D01*
X110402968Y-83226272D01*
X110308807Y-83167110D01*
X110213457Y-83098637D01*
X110122363Y-83025184D01*
X110040972Y-82951082D01*
X109974727Y-82880662D01*
X109937940Y-82832384D01*
X109888271Y-82747500D01*
X109835178Y-82637338D01*
X109778491Y-82501497D01*
X109718040Y-82339572D01*
X109656681Y-82160336D01*
X109610049Y-82019093D01*
X109487250Y-81944163D01*
X109417934Y-81899023D01*
X109368501Y-81858225D01*
X109333828Y-81815483D01*
X109308778Y-81764507D01*
X109288711Y-81700822D01*
X109278687Y-81666676D01*
X109266931Y-81641129D01*
X109249234Y-81621730D01*
X109221388Y-81606030D01*
X109179182Y-81591580D01*
X109118406Y-81575929D01*
X109044842Y-81558903D01*
X108971058Y-81541119D01*
X108917687Y-81525322D01*
X108878341Y-81508970D01*
X108846631Y-81489523D01*
X108823286Y-81470739D01*
X108764344Y-81404262D01*
X108728417Y-81329680D01*
X108727603Y-81324288D01*
X108717054Y-81254379D01*
X108823948Y-81254379D01*
X108828741Y-81297188D01*
X108849315Y-81329741D01*
X108890613Y-81363762D01*
X108946634Y-81395751D01*
X109011375Y-81422209D01*
X109070282Y-81438034D01*
X109131205Y-81454435D01*
X109193391Y-81477954D01*
X109232446Y-81497436D01*
X109267738Y-81519546D01*
X109291842Y-81540369D01*
X109310414Y-81567325D01*
X109329101Y-81607834D01*
X109343151Y-81642824D01*
X109383465Y-81731112D01*
X109429677Y-81800327D01*
X109488518Y-81858562D01*
X109566722Y-81913912D01*
X109570723Y-81916414D01*
X109627952Y-81955817D01*
X109673119Y-81994285D01*
X109698764Y-82024651D01*
X109711617Y-82052012D01*
X109730607Y-82100313D01*
X109753901Y-82164510D01*
X109779666Y-82239559D01*
X109804848Y-82316582D01*
X109849665Y-82451154D01*
X109891891Y-82563174D01*
X109934058Y-82656784D01*
X109978697Y-82736127D01*
X110028343Y-82805341D01*
X110085526Y-82868571D01*
X110152780Y-82929956D01*
X110206521Y-82973513D01*
X110260594Y-83013235D01*
X110321084Y-83053590D01*
X110383362Y-83091970D01*
X110442797Y-83125766D01*
X110494759Y-83152367D01*
X110534618Y-83169165D01*
X110557745Y-83173549D01*
X110559965Y-83172700D01*
X110568730Y-83153800D01*
X110568862Y-83128092D01*
X110561484Y-83108244D01*
X110542554Y-83086562D01*
X110508184Y-83059620D01*
X110454479Y-83023983D01*
X110441512Y-83015785D01*
X110316384Y-82928476D01*
X110211638Y-82835037D01*
X110121966Y-82729589D01*
X110042058Y-82606251D01*
X109998571Y-82525149D01*
X109962200Y-82445281D01*
X109928257Y-82356391D01*
X109898421Y-82264463D01*
X109874379Y-82175478D01*
X109857812Y-82095418D01*
X109850405Y-82030265D01*
X109851046Y-82000932D01*
X109871609Y-81923909D01*
X109917582Y-81842241D01*
X109989459Y-81755053D01*
X109991885Y-81752486D01*
X110028922Y-81709248D01*
X110071284Y-81653530D01*
X110110651Y-81596360D01*
X110115795Y-81588321D01*
X110159175Y-81524291D01*
X110200602Y-81476108D01*
X110246553Y-81438957D01*
X110303506Y-81408019D01*
X110377939Y-81378478D01*
X110415360Y-81365535D01*
X110475019Y-81344375D01*
X110526238Y-81324252D01*
X110562733Y-81307752D01*
X110576934Y-81299060D01*
X110590092Y-81272476D01*
X110585821Y-81243531D01*
X110566149Y-81225025D01*
X110565166Y-81224712D01*
X110545463Y-81225348D01*
X110504970Y-81231080D01*
X110449398Y-81240969D01*
X110384457Y-81254075D01*
X110377621Y-81255536D01*
X110304626Y-81270679D01*
X110250862Y-81279890D01*
X110209150Y-81283646D01*
X110172308Y-81282426D01*
X110133154Y-81276710D01*
X110114336Y-81273093D01*
X110038124Y-81250905D01*
X109958172Y-81216103D01*
X109925373Y-81198109D01*
X109886618Y-81174414D01*
X109856619Y-81152915D01*
X109830860Y-81128643D01*
X109804824Y-81096625D01*
X109773996Y-81051892D01*
X109733858Y-80989473D01*
X109729322Y-80982322D01*
X109674133Y-80898977D01*
X109624844Y-80834578D01*
X109575700Y-80783515D01*
X109520947Y-80740179D01*
X109454830Y-80698962D01*
X109417411Y-80678306D01*
X109336675Y-80640673D01*
X109266361Y-80619287D01*
X109209205Y-80614442D01*
X109167944Y-80626431D01*
X109147740Y-80649358D01*
X109143268Y-80668202D01*
X109148485Y-80689289D01*
X109165667Y-80715287D01*
X109197093Y-80748866D01*
X109245040Y-80792701D01*
X109311786Y-80849461D01*
X109334230Y-80868097D01*
X109394221Y-80918292D01*
X109449561Y-80965620D01*
X109495535Y-81005974D01*
X109527424Y-81035246D01*
X109536361Y-81044171D01*
X109570160Y-81090948D01*
X109586724Y-81137316D01*
X109586293Y-81178149D01*
X109569107Y-81208318D01*
X109535408Y-81222696D01*
X109527958Y-81223203D01*
X109461966Y-81216942D01*
X109379263Y-81196598D01*
X109285219Y-81163933D01*
X109185203Y-81120716D01*
X109125170Y-81090774D01*
X109049811Y-81056516D01*
X108991641Y-81041716D01*
X108951184Y-81046405D01*
X108928963Y-81070619D01*
X108926634Y-81078309D01*
X108929299Y-81108782D01*
X108951947Y-81143188D01*
X108996184Y-81183152D01*
X109063622Y-81230303D01*
X109098631Y-81252262D01*
X109147574Y-81282879D01*
X109185409Y-81307820D01*
X109207746Y-81324105D01*
X109211583Y-81328877D01*
X109188032Y-81326479D01*
X109146893Y-81314231D01*
X109094789Y-81294637D01*
X109038339Y-81270206D01*
X108984165Y-81243442D01*
X108980119Y-81241270D01*
X108932163Y-81218008D01*
X108890450Y-81202485D01*
X108862833Y-81197531D01*
X108859974Y-81197977D01*
X108834608Y-81217483D01*
X108823948Y-81254379D01*
X108717054Y-81254379D01*
X108716566Y-81251143D01*
X108729858Y-81172799D01*
X108740271Y-81146987D01*
X108780349Y-81087549D01*
X108839209Y-81032928D01*
X108908511Y-80989763D01*
X108964787Y-80968229D01*
X108999797Y-80960070D01*
X109031923Y-80956660D01*
X109066369Y-80958909D01*
X109108335Y-80967727D01*
X109163024Y-80984023D01*
X109235638Y-81008706D01*
X109274230Y-81022323D01*
X109324453Y-81039145D01*
X109363914Y-81050471D01*
X109386520Y-81054636D01*
X109389508Y-81053877D01*
X109382514Y-81041564D01*
X109360030Y-81015012D01*
X109326120Y-80978860D01*
X109305620Y-80958105D01*
X109224117Y-80875885D01*
X109161264Y-80809432D01*
X109115590Y-80756237D01*
X109085626Y-80713791D01*
X109069904Y-80679583D01*
X109066953Y-80651106D01*
X109075307Y-80625848D01*
X109093489Y-80601303D01*
X109095448Y-80599162D01*
X109126815Y-80572345D01*
X109165721Y-80556304D01*
X109200031Y-80549060D01*
X109279373Y-80545130D01*
X109359959Y-80561074D01*
X109443515Y-80597896D01*
X109531765Y-80656604D01*
X109626430Y-80738202D01*
X109729234Y-80843699D01*
X109756438Y-80873959D01*
X109840901Y-80963666D01*
X109922183Y-81039292D01*
X109996487Y-81097516D01*
X110048616Y-81129469D01*
X110111122Y-81156914D01*
X110171964Y-81172000D01*
X110238420Y-81175298D01*
X110317770Y-81167381D01*
X110383461Y-81155754D01*
X110455300Y-81142658D01*
X110506554Y-81136322D01*
X110542867Y-81136371D01*
X110569880Y-81142433D01*
X110572121Y-81143289D01*
X110624926Y-81173976D01*
X110653386Y-81215370D01*
X110659505Y-81255531D01*
X110648089Y-81312674D01*
X110614444Y-81361482D01*
X110557299Y-81403003D01*
X110475381Y-81438282D01*
X110415105Y-81456542D01*
X110364892Y-81471803D01*
X110321964Y-81490131D01*
X110282820Y-81514699D01*
X110243955Y-81548681D01*
X110201867Y-81595249D01*
X110153052Y-81657579D01*
X110094009Y-81738842D01*
X110076984Y-81762848D01*
X110028773Y-81831633D01*
X109994454Y-81882689D01*
X109971852Y-81920217D01*
X109958795Y-81948408D01*
X109953112Y-81971466D01*
X109952628Y-81993585D01*
X109953281Y-82001844D01*
X109963179Y-82055688D01*
X109983350Y-82128243D01*
X110011630Y-82214047D01*
X110045859Y-82307641D01*
X110083874Y-82403566D01*
X110123512Y-82496362D01*
X110162611Y-82580568D01*
X110199010Y-82650726D01*
X110230038Y-82700677D01*
X110269257Y-82748281D01*
X110318277Y-82797770D01*
X110372794Y-82845914D01*
X110428495Y-82889478D01*
X110481077Y-82925234D01*
X110526229Y-82949945D01*
X110559646Y-82960383D01*
X110572995Y-82958008D01*
X110577367Y-82942994D01*
X110583578Y-82905014D01*
X110591101Y-82848177D01*
X110599403Y-82776593D01*
X110607948Y-82694370D01*
X110610307Y-82670063D01*
X110624589Y-82525743D01*
X110638050Y-82403694D01*
X110651626Y-82299070D01*
X110659324Y-82250618D01*
X111815592Y-82250618D01*
X111823567Y-82287416D01*
X111843008Y-82346815D01*
X111862753Y-82379279D01*
X111883567Y-82385048D01*
X111906220Y-82364365D01*
X111929945Y-82320867D01*
X111947899Y-82265174D01*
X111952564Y-82211428D01*
X111943881Y-82167832D01*
X111931254Y-82149016D01*
X111898880Y-82134475D01*
X111864216Y-82143821D01*
X111833481Y-82175125D01*
X111830337Y-82180292D01*
X111816219Y-82214110D01*
X111815592Y-82250618D01*
X110659324Y-82250618D01*
X110666250Y-82207020D01*
X110682858Y-82122692D01*
X110694513Y-82074069D01*
X110702382Y-82041237D01*
X110712606Y-82004749D01*
X110862165Y-82004749D01*
X110864976Y-82028393D01*
X110867658Y-82031254D01*
X110887138Y-82029820D01*
X110931047Y-82021821D01*
X110997549Y-82007709D01*
X111084818Y-81987938D01*
X111191019Y-81962960D01*
X111314322Y-81933228D01*
X111452895Y-81899195D01*
X111604908Y-81861314D01*
X111768526Y-81820036D01*
X111818381Y-81807322D01*
X113269906Y-81807322D01*
X113271366Y-81832175D01*
X113277416Y-81883988D01*
X113283609Y-81937132D01*
X113283955Y-81940106D01*
X113291997Y-81976962D01*
X113305318Y-81989387D01*
X113324805Y-81977000D01*
X113351341Y-81939421D01*
X113372389Y-81902053D01*
X113395724Y-81855323D01*
X113406357Y-81822799D01*
X113406103Y-81795705D01*
X113399263Y-81772000D01*
X113382884Y-81738554D01*
X113360614Y-81724136D01*
X113343104Y-81721456D01*
X113303829Y-81729651D01*
X113278825Y-81759204D01*
X113269906Y-81807322D01*
X111818381Y-81807322D01*
X111941923Y-81775816D01*
X112123261Y-81729107D01*
X112310716Y-81680359D01*
X112502451Y-81630027D01*
X112669666Y-81585742D01*
X112832486Y-81542569D01*
X112990868Y-81500819D01*
X113142360Y-81461124D01*
X113284512Y-81424116D01*
X113414870Y-81390426D01*
X113530983Y-81360684D01*
X113630398Y-81335522D01*
X113710664Y-81315573D01*
X113769329Y-81301466D01*
X113801557Y-81294302D01*
X113880737Y-81277615D01*
X113971930Y-81257173D01*
X114060880Y-81236212D01*
X114103085Y-81225789D01*
X114257743Y-81186745D01*
X114209506Y-81118770D01*
X114066915Y-80934231D01*
X113910446Y-80761691D01*
X113743114Y-80603557D01*
X113567938Y-80462235D01*
X113387935Y-80340131D01*
X113206120Y-80239649D01*
X113025512Y-80163195D01*
X112999893Y-80154344D01*
X112856143Y-80113225D01*
X112707134Y-80083364D01*
X112565119Y-80067119D01*
X112539151Y-80065733D01*
X112400053Y-80069751D01*
X112255366Y-80091640D01*
X112113484Y-80129335D01*
X111982800Y-80180769D01*
X111906533Y-80221377D01*
X111771937Y-80315692D01*
X111638709Y-80434023D01*
X111508968Y-80573216D01*
X111384836Y-80730114D01*
X111268428Y-80901564D01*
X111161867Y-81084411D01*
X111067271Y-81275501D01*
X110986758Y-81471679D01*
X110922449Y-81669792D01*
X110914874Y-81697451D01*
X110897823Y-81767190D01*
X110883310Y-81837869D01*
X110872050Y-81904408D01*
X110864762Y-81961728D01*
X110862165Y-82004749D01*
X110712606Y-82004749D01*
X110725760Y-81957804D01*
X110753924Y-81867545D01*
X110780284Y-81787893D01*
X110882912Y-81506452D01*
X110993797Y-81246987D01*
X111112528Y-81009972D01*
X111238692Y-80795878D01*
X111371880Y-80605181D01*
X111511680Y-80438352D01*
X111657680Y-80295865D01*
X111809470Y-80178192D01*
X111966640Y-80085807D01*
X112128776Y-80019183D01*
X112295469Y-79978794D01*
X112359514Y-79970464D01*
X112540242Y-79965949D01*
X112727097Y-79987784D01*
G37*
D13*
%TO.C,R6*%
X119796141Y-62520000D02*
X119488859Y-62520000D01*
X119796141Y-63280000D02*
X119488859Y-63280000D01*
%TO.C,R8*%
X86015000Y-61485436D02*
X86015000Y-61939564D01*
X87485000Y-61485436D02*
X87485000Y-61939564D01*
%TO.C,D7*%
X113112500Y-61360000D02*
X115797500Y-61360000D01*
X115797500Y-59440000D02*
X113112500Y-59440000D01*
X115797500Y-61360000D02*
X115797500Y-59440000D01*
%TO.C,R16*%
X119796141Y-65020000D02*
X119488859Y-65020000D01*
X119796141Y-65780000D02*
X119488859Y-65780000D01*
%TO.C,U1*%
X79752500Y-53290000D02*
X81572500Y-53290000D01*
X79752500Y-53340000D02*
X79752500Y-53290000D01*
X79752500Y-56410000D02*
X79752500Y-56360000D01*
X81572500Y-53290000D02*
X81572500Y-53340000D01*
X81572500Y-56360000D02*
X81572500Y-56410000D01*
X81572500Y-56410000D02*
X79752500Y-56410000D01*
X79212500Y-53340000D02*
X78972500Y-53010000D01*
X79452500Y-53010000D01*
X79212500Y-53340000D01*
G36*
X79212500Y-53340000D02*
G01*
X78972500Y-53010000D01*
X79452500Y-53010000D01*
X79212500Y-53340000D01*
G37*
%TO.C,D8*%
X113112500Y-58860000D02*
X115797500Y-58860000D01*
X115797500Y-56940000D02*
X113112500Y-56940000D01*
X115797500Y-58860000D02*
X115797500Y-56940000D01*
%TO.C,74HC595*%
D15*
X105900000Y-69980000D02*
X109100000Y-69980000D01*
X109100000Y-60180000D01*
X105900000Y-60180000D01*
X105900000Y-69980000D01*
X108900000Y-69580000D02*
G75*
G02*
X108500000Y-69580000I-200000J0D01*
G01*
X108500000Y-69580000D02*
G75*
G02*
X108900000Y-69580000I200000J0D01*
G01*
X110500000Y-70380000D02*
G75*
G02*
X110100000Y-70380000I-200000J0D01*
G01*
X110100000Y-70380000D02*
G75*
G02*
X110500000Y-70380000I200000J0D01*
G01*
D13*
%TO.C,J1*%
X70310000Y-49605000D02*
X72010000Y-49605000D01*
X70310000Y-58945000D02*
X72010000Y-58945000D01*
%TO.C,D4*%
X113112500Y-68860000D02*
X115797500Y-68860000D01*
X115797500Y-66940000D02*
X113112500Y-66940000D01*
X115797500Y-68860000D02*
X115797500Y-66940000D01*
%TO.C,D2*%
X113112500Y-73860000D02*
X115797500Y-73860000D01*
X115797500Y-71940000D02*
X113112500Y-71940000D01*
X115797500Y-73860000D02*
X115797500Y-71940000D01*
%TO.C,C3*%
X88038748Y-58065000D02*
X88561252Y-58065000D01*
X88038748Y-59535000D02*
X88561252Y-59535000D01*
%TO.C,R1*%
X76812258Y-49977500D02*
X76337742Y-49977500D01*
X76812258Y-51022500D02*
X76337742Y-51022500D01*
%TD*%
M02*
